<?xml version="1.0" encoding="UTF-8" standalone="no"?>
<!DOCTYPE svg PUBLIC "-//W3C//DTD SVG 1.1 Tiny//EN" "http://www.w3.org/Graphics/SVG/1.1/DTD/svg11-tiny.dtd">
<svg xmlns="http://www.w3.org/2000/svg" baseProfile="tiny" height="100%" viewBox="0 0 88 87.999" width="100%">
<defs/>
<rect height="18.32884" style="fill:#ffffff;fill-opacity:1" width="22.371967" x="40.700809" y="27.3521"/>
<path d="M 46.085463,82.369644 C 45.719174,81.685227 45.419482,80.671957 45.419482,80.117933 C 45.419482,79.282459 44.483151,79.110621 39.930747,79.110621 C 36.074202,79.110621 33.252345,78.711566 30.441395,77.768672 C 25.40168,76.078172 24.060945,74.913806 24.315173,72.448324 C 24.499278,70.662891 24.261758,70.450844 20.262798,68.830584 C 18.698657,68.196841 17.467127,67.148442 16.263767,66.507845 C 13.607096,65.093592 11.430142,63.912086 8.5359635,61.158628 C 6.5861047,59.303575 5.5801093,57.634949 4.687788,56.083458 C 3.2927514,53.65789 2.6382694,51.231412 2.6415299,46.621653 C 2.6457189,40.699231 3.2727471,40.002254 5.0294089,36.823053 C 8.2614487,30.973719 15.218997,25.122841 23.643497,21.934911 C 24.802289,21.496411 25.604623,20.502517 26.144453,18.836842 C 27.353003,15.1078 30.304328,9.564861 32.391009,7.1050692 C 34.752281,4.3215864 36.230924,4.7278903 36.804997,8.3179525 C 37.204338,10.815286 37.313562,10.915956 39.623784,10.915956 C 43.720224,10.915956 48.697756,12.130048 53.301953,14.25226 C 58.182277,16.501747 59.377893,17.883325 58.256911,19.977898 C 57.861953,20.715884 57.634638,21.397396 57.751767,21.492369 C 57.868895,21.587342 60.040489,22.744263 62.577536,24.063306 C 65.114577,25.382348 68.928042,28.034092 71.051894,29.956071 L 74.91345,33.450577 L 78.4167,29.890944 C 82.382953,25.860861 83.620371,25.778485 84.647427,29.476159 C 86.041674,34.495801 85.028932,58.141332 83.332126,60.185854 C 82.044765,61.737033 80.351549,61.203395 78.057706,58.523552 C 76.846209,57.108191 75.593247,55.950629 75.27335,55.951191 C 74.953453,55.951753 72.714397,57.817064 70.297661,60.096326 C 67.732242,62.515819 63.917182,65.259686 61.130401,66.6896 C 57.083036,68.766327 56.248756,69.481168 55.644089,71.39047 C 54.715902,74.321323 51.425873,80.324293 49.738097,82.166514 C 48.111215,83.942265 46.961329,84.006213 46.085463,82.369644 z M 60.737496,37.882712 C 63.037381,37.080966 63.928595,35.128273 62.682138,33.621906 C 60.101414,30.503059 52.791125,29.336532 47.954494,31.271768 C 45.774775,32.143919 45.379962,32.562876 45.68098,33.684315 C 45.881333,34.430726 46.049211,35.27271 46.054043,35.555391 C 46.058874,35.838071 47.293227,36.627854 48.797048,37.310463 C 51.862507,38.701926 57.598868,38.976843 60.737496,37.882712 z" style="fill:#99d8ee"/>
<path d="M 46.085463,82.369644 C 45.719174,81.685227 45.419482,80.671957 45.419482,80.117933 C 45.419482,79.282459 44.483151,79.110621 39.930747,79.110621 C 36.074202,79.110621 33.252345,78.711566 30.441395,77.768672 C 25.40168,76.078172 24.060945,74.913806 24.315173,72.448324 C 24.499278,70.662891 24.261758,70.450844 20.262798,68.830584 C 18.622272,68.165892 17.416133,67.156671 16.165628,66.479952 C 13.591643,65.087025 11.366122,63.851179 8.5359635,61.158628 C 6.5652276,59.283713 5.5407288,57.636666 4.6482264,56.06674 C 3.2771428,53.654983 2.6382917,51.199842 2.6415299,46.621653 C 2.6457189,40.699231 3.3169412,40.046449 5.073603,36.867248 C 8.3056428,31.017914 15.218997,25.122841 23.643497,21.934911 C 24.802289,21.496411 25.604623,20.502517 26.144453,18.836842 C 27.353003,15.1078 30.304328,9.564861 32.391009,7.1050692 C 34.752281,4.3215864 36.230924,4.7278903 36.804997,8.3179525 C 37.204338,10.815286 37.313562,10.915956 39.623784,10.915956 C 43.720224,10.915956 48.697756,12.130048 53.301953,14.25226 C 58.182277,16.501747 59.377893,17.883325 58.256911,19.977898 C 57.861953,20.715884 57.634638,21.397396 57.751767,21.492369 C 57.868895,21.587342 60.040489,22.744263 62.577536,24.063306 C 65.114577,25.382348 68.928042,28.034092 71.051894,29.956071 L 74.91345,33.450577 L 78.4167,29.890944 C 82.382953,25.860861 83.620371,25.778485 84.647427,29.476159 C 86.041674,34.495801 85.028932,58.141332 83.332126,60.185854 C 82.044765,61.737033 80.351549,61.203395 78.057706,58.523552 C 76.846209,57.108191 75.593247,55.950629 75.27335,55.951191 C 74.953453,55.951753 72.714397,57.817064 70.297661,60.096326 C 67.732242,62.515819 63.917182,65.259686 61.130401,66.6896 C 57.083036,68.766327 56.248756,69.481168 55.644089,71.39047 C 54.715902,74.321323 51.425873,80.324293 49.738097,82.166514 C 48.111215,83.942265 46.961329,84.006213 46.085463,82.369644 z M 62.789821,38.014092 C 65.266613,36.209714 65.147098,34.522251 62.381026,32.242222 C 58.174024,28.774454 51.393064,28.162181 46.062828,30.768803 C 44.143051,31.707623 43.84055,32.151127 44.010781,33.77736 C 44.276671,36.317436 45.727093,37.632115 49.60123,38.844608 C 53.679866,40.121103 60.485929,39.69251 62.789821,38.014092 z M 80.056891,37.584539 C 81.142299,35.202339 80.976644,34.969474 79.516815,36.825342 C 78.122665,38.597715 77.927917,39.223175 78.770199,39.223175 C 79.067244,39.223175 79.646256,38.485789 80.056891,37.584539 z M 47.34952,25.031395 C 50.308798,24.995108 50.631816,24.885679 49.323131,24.362793 C 45.545197,22.853316 30.870085,23.370903 28.15559,25.109365 C 27.380959,25.605468 29.401118,25.69573 35.44762,25.435178 C 40.047544,25.236961 45.403398,25.055259 47.34952,25.031395 z" style="fill:#e2c6b6"/>
<path d="M 46.139277,82.166514 C 45.844999,81.370374 45.482273,80.333075 45.333219,79.861406 C 45.13757,79.242295 43.367662,78.958232 38.968223,78.839856 C 34.526473,78.720342 31.887169,78.292163 29.23361,77.260596 C 24.906575,75.578459 23.902783,74.548739 24.453005,72.35648 C 24.792591,71.003459 24.56298,70.612054 23.077318,70.011388 C 13.961661,66.325865 7.2436194,60.847366 4.3958436,55.526269 C 3.2185129,53.326415 2.6377175,52.011429 2.6415299,46.621653 C 2.6457188,40.699231 3.3169412,40.134837 5.073603,36.955636 C 7.6647957,32.266104 12.92956,26.975471 18.92328,24.140404 C 21.642543,22.854177 24.251501,21.59616 24.720966,21.344813 C 25.190431,21.093465 26.112448,19.36025 26.769894,17.493222 C 28.641178,12.179111 33.861035,4.6657564 35.134781,5.4529747 C 35.422186,5.6306007 35.856131,6.9525943 36.099104,8.3907387 C 36.597608,11.34136 36.3023,11.184217 42.963055,12.04328 C 46.358369,12.481188 49.544766,13.450122 53.144065,15.13917 C 58.26469,17.542131 58.374751,17.642086 58.016718,19.564413 C 57.663329,21.461804 57.817179,21.61679 62.379296,23.959188 C 64.980182,25.294601 68.864364,27.976469 71.010817,29.918895 L 74.91345,33.450577 L 78.4167,29.890944 C 82.382953,25.860861 83.620371,25.778485 84.647427,29.476159 C 86.041674,34.495801 85.028932,58.141332 83.332126,60.185854 C 82.044765,61.737033 80.351549,61.203395 78.057706,58.523552 C 76.846209,57.108191 75.593247,55.950629 75.27335,55.951191 C 74.953453,55.951753 72.723236,57.808731 70.317303,60.077808 C 67.772123,62.478218 63.871253,65.282409 60.988787,66.783728 C 56.33422,69.208048 55.966565,69.557102 54.907939,72.557004 C 53.493362,76.565583 48.836118,83.614042 47.602038,83.614042 C 47.091797,83.614042 46.433555,82.962655 46.139277,82.166514 z M 62.789821,38.014092 C 65.266613,36.209714 65.147098,34.522251 62.381026,32.242222 C 58.174024,28.774454 51.393064,28.162181 46.062828,30.768803 C 44.143051,31.707623 43.84055,32.151127 44.010781,33.77736 C 44.276671,36.317436 45.727093,37.632115 49.60123,38.844608 C 53.679866,40.121103 60.485929,39.69251 62.789821,38.014092 z M 80.056891,37.584539 C 81.142299,35.202339 80.976644,34.969474 79.516815,36.825342 C 78.122665,38.597715 77.927917,39.223175 78.770199,39.223175 C 79.067244,39.223175 79.646256,38.485789 80.056891,37.584539 z M 47.34952,25.031395 C 50.308798,24.995108 50.631816,24.885679 49.323131,24.362793 C 45.545197,22.853316 30.870085,23.370903 28.15559,25.109365 C 27.380959,25.605468 29.401118,25.69573 35.44762,25.435178 C 40.047544,25.236961 45.403398,25.055259 47.34952,25.031395 z" style="fill:#71cbf0"/>
<path d="M 46.139277,82.166514 C 45.844999,81.370374 45.482273,80.333075 45.333219,79.861406 C 45.13757,79.242295 43.367662,78.958232 38.968223,78.839856 C 34.526473,78.720342 31.887169,78.292163 29.23361,77.260596 C 24.917379,75.58266 23.903259,74.546841 24.448767,72.373368 C 24.826382,70.868826 24.459266,70.582576 18.701108,67.891775 C 8.2400778,63.003307 2.3153066,55.768019 2.3153066,47.88155 C 2.3153066,42.73801 3.5536805,38.356801 6.0242626,34.759736 C 8.8183454,30.691668 15.258953,25.710126 20.328992,23.695622 C 24.340577,22.10168 26.119105,20.792209 26.119105,19.432556 C 26.119105,16.422751 33.737779,4.5895802 35.12401,5.4463183 C 35.417339,5.6276054 35.856131,6.9525943 36.099104,8.3907387 C 36.597608,11.34136 36.3023,11.184217 42.963055,12.04328 C 46.358369,12.481188 49.544766,13.450122 53.144065,15.13917 C 58.351508,17.582872 58.380676,17.610186 57.992494,19.679372 C 57.61022,21.717071 57.700025,21.812613 62.240179,24.198398 C 64.7912,25.538921 68.530339,28.165116 70.549377,30.034387 C 72.568409,31.903658 74.482041,33.433062 74.801893,33.433062 C 75.121739,33.433062 76.809197,31.985534 78.551796,30.216333 C 80.294395,28.447131 82.09292,26.999603 82.548524,26.999603 C 83.541574,26.999603 83.661577,29.321103 82.699273,29.915841 C 82.326583,30.146175 81.345635,31.863233 80.519386,33.731525 C 79.693143,35.599817 78.695294,37.327319 78.301946,37.57042 C 77.286013,38.198305 77.414277,39.866521 78.478493,39.866521 C 79.425871,39.866521 81.216046,36.567113 82.362231,32.70854 C 83.853352,27.688771 84.341896,30.572484 84.337849,44.369942 C 84.333661,58.635769 83.942024,61.096936 81.676134,61.096936 C 81.11946,61.096936 79.413899,59.735409 77.886004,58.071321 L 75.10801,55.045706 L 70.065394,59.840522 C 67.021429,62.734909 63.283608,65.527807 60.634818,66.887049 C 56.4781,69.020094 56.166093,69.340268 54.714502,72.962396 C 52.862187,77.584437 48.821801,83.614042 47.576924,83.614042 C 47.080496,83.614042 46.433555,82.962655 46.139277,82.166514 z M 62.098295,38.739666 C 63.310237,38.120996 64.599643,37.127022 64.963642,36.530838 C 65.981653,34.863463 64.230993,32.20406 60.641097,29.96453 C 58.106558,28.383375 57.744873,27.945743 58.696711,27.611856 C 59.801499,27.224318 59.795812,27.164109 58.593724,26.52143 C 57.893935,26.147298 55.584347,25.31296 53.461306,24.667344 C 47.965137,22.995963 33.373202,23.002413 27.084124,24.679004 C 22.887206,25.79785 16.058657,28.750744 16.565782,29.227487 C 16.689426,29.343724 19.540893,29.205049 22.902375,28.919321 C 34.538619,27.930234 44.441832,27.644175 45.419482,28.268904 C 46.218366,28.7794 46.005979,29.201867 44.185808,30.722863 L 41.987114,32.560165 L 43.220789,35.08194 C 44.176548,37.035625 45.106645,37.85071 47.34952,38.700131 C 51.325045,40.205741 59.185061,40.22681 62.098295,38.739666 z" style="fill:#d6af9d"/>
<path d="M 46.498125,83.131533 C 46.341932,82.866153 46.019251,81.739603 45.781056,80.628094 L 45.347973,78.607164 L 38.467759,78.367029 C 32.737483,78.167032 31.049911,77.859641 28.370816,76.527883 C 25.491267,75.096484 25.154086,74.70807 25.154086,72.822397 C 25.154086,70.807612 24.933609,70.620006 20.088983,68.512443 C 13.837163,65.792705 10.743822,63.682226 7.1490725,59.683999 C 2.6964627,54.731625 1.4920468,49.557406 2.9683696,41.723533 C 4.2499989,34.922771 11.797011,27.085676 20.328992,23.695622 C 25.03468,21.825889 25.732967,21.141542 27.329848,16.83452 C 28.803577,12.85966 33.761973,5.6654537 34.804275,5.9897712 C 35.158115,6.0998705 35.543651,7.1797636 35.661022,8.3895344 C 35.950324,11.371455 36.793619,12.200936 39.547307,12.212157 C 43.241079,12.227208 49.595547,13.948914 53.810803,16.076769 C 57.237751,17.806686 57.664455,18.232247 57.503437,19.759506 C 57.340431,21.305622 57.822813,21.757921 62.113549,24.082118 C 64.749241,25.509815 68.551511,28.197835 70.563035,30.055496 C 72.574559,31.913157 74.482041,33.433062 74.801893,33.433062 C 75.121739,33.433062 76.809197,31.985534 78.551796,30.216333 C 80.294395,28.447131 82.09292,26.999603 82.548524,26.999603 C 83.541574,26.999603 83.661577,29.321103 82.699273,29.915841 C 82.326583,30.146175 81.345635,31.863233 80.519386,33.731525 C 79.693143,35.599817 78.695294,37.327319 78.301946,37.57042 C 77.286013,38.198305 77.414277,39.866521 78.478493,39.866521 C 79.425871,39.866521 81.216046,36.567113 82.362231,32.70854 C 83.853352,27.688771 84.341896,30.572484 84.337849,44.369942 C 84.333661,58.635769 83.942024,61.096936 81.676134,61.096936 C 81.11946,61.096936 79.413899,59.735409 77.886004,58.071321 L 75.10801,55.045706 L 70.074768,59.841962 C 66.823922,62.939749 63.487916,65.400193 60.654318,66.789936 C 56.403104,68.874956 56.201235,69.0843 54.141941,73.543627 C 50.93394,80.490431 47.487798,84.813046 46.498125,83.131533 z M 62.098295,38.739666 C 63.310237,38.120996 64.599643,37.127022 64.963642,36.530838 C 65.981653,34.863463 64.230993,32.20406 60.641097,29.96453 C 58.106558,28.383375 57.744873,27.945743 58.696711,27.611856 C 59.801499,27.224318 59.795812,27.164109 58.593724,26.52143 C 57.893935,26.147298 55.584347,25.31296 53.461306,24.667344 C 47.965137,22.995963 33.373202,23.002413 27.084124,24.679004 C 22.887206,25.79785 16.058657,28.750744 16.565782,29.227487 C 16.689426,29.343724 19.540893,29.205049 22.902375,28.919321 C 34.538619,27.930234 44.441832,27.644175 45.419482,28.268904 C 46.218366,28.7794 46.005979,29.201867 44.185808,30.722863 L 41.987114,32.560165 L 43.220789,35.08194 C 44.176548,37.035625 45.106645,37.85071 47.34952,38.700131 C 51.325045,40.205741 59.185061,40.22681 62.098295,38.739666 z" style="fill:#9fa1a4"/>
<path d="M 46.203512,80.879822 L 45.664061,78.788948 L 38.947476,78.428102 C 29.090913,77.89857 24.353197,75.680243 25.166862,71.975651 C 25.513058,70.399428 25.273418,70.184988 21.652527,68.830867 C 14.358764,66.103177 7.3402511,60.661735 4.8168304,55.77817 C 1.8622689,50.06022 2.2384377,41.795729 5.7239726,35.848114 C 8.682876,30.799127 15.609572,25.579055 22.977791,22.845356 C 25.578506,21.880458 26.047998,21.409744 26.749487,19.063835 C 28.46024,13.342769 33.748987,5.2398529 35.19076,6.1309176 C 35.508953,6.327572 35.769293,7.4267537 35.769293,8.5735441 C 35.769293,11.256892 36.761835,12.200351 39.597202,12.212157 C 43.246451,12.227351 49.617555,13.960023 53.814627,16.078699 C 57.611789,17.9955 57.684619,18.081989 57.286869,20.202176 C 56.906626,22.229045 57.010212,22.396254 58.903736,22.812142 C 61.313066,23.34132 69.411703,28.651141 72.077864,31.449679 C 73.117125,32.54054 74.457401,33.433062 75.056259,33.433062 C 75.655112,33.433062 77.212613,32.130287 78.51737,30.538006 C 79.840405,28.923416 81.439698,27.642949 82.13327,27.642949 C 82.817263,27.642949 83.37689,27.75247 83.37689,27.886329 C 83.37689,28.020188 82.074115,30.484953 80.481833,33.363584 C 77.305332,39.106271 77.036903,40.066763 78.69788,39.746888 C 79.396033,39.612436 80.426519,37.926801 81.470547,35.211458 C 83.490569,29.957714 83.832276,29.565103 84.403593,31.841422 C 85.049235,34.413864 84.262533,56.592791 83.451454,58.684389 C 82.471734,61.210863 80.601213,60.926974 78.152767,57.880206 C 77.015351,56.464845 75.707531,55.306823 75.246497,55.306823 C 74.785469,55.306823 72.566614,57.12147 70.315714,59.339373 C 67.824408,61.794157 64.140256,64.500081 60.899542,66.255341 C 55.77641,69.030169 55.534066,69.265061 54.464724,72.492432 C 53.11123,76.577389 48.973375,82.970696 47.683015,82.970696 C 47.161997,82.970696 46.502499,82.038675 46.203512,80.879822 z M 62.098295,38.739666 C 63.310237,38.120996 64.599643,37.127022 64.963642,36.530838 C 65.981653,34.863463 64.230993,32.20406 60.641097,29.96453 C 58.106558,28.383375 57.744873,27.945743 58.696711,27.611856 C 59.801499,27.224318 59.795812,27.164109 58.593724,26.52143 C 57.893935,26.147298 55.584347,25.31296 53.461306,24.667344 C 47.965137,22.995963 33.373202,23.002413 27.084124,24.679004 C 22.887206,25.79785 16.058657,28.750744 16.565782,29.227487 C 16.689426,29.343724 19.540893,29.205049 22.902375,28.919321 C 34.538619,27.930234 44.441832,27.644175 45.419482,28.268904 C 46.218366,28.7794 46.005979,29.201867 44.185808,30.722863 L 41.987114,32.560165 L 43.220789,35.08194 C 44.176548,37.035625 45.106645,37.85071 47.34952,38.700131 C 51.325045,40.205741 59.185061,40.22681 62.098295,38.739666 z" style="fill:#59a9d9"/>
<path d="M 46.203512,80.879822 L 45.664061,78.788948 L 38.947476,78.428102 C 29.090913,77.89857 24.353197,75.680243 25.166862,71.975651 C 25.513058,70.399428 25.273418,70.184988 21.652527,68.830867 C 14.358764,66.103177 7.3402511,60.661735 4.8168304,55.77817 C 1.8622689,50.06022 2.2384377,41.795729 5.7239726,35.848114 C 8.682876,30.799127 15.609572,25.579055 22.977791,22.845356 C 25.578506,21.880458 26.047998,21.409744 26.749487,19.063835 C 28.46024,13.342769 33.748987,5.2398529 35.19076,6.1309176 C 35.508953,6.327572 35.769293,7.4267537 35.769293,8.5735441 C 35.769293,11.256892 36.761835,12.200351 39.597202,12.212157 C 43.246451,12.227351 49.617555,13.960023 53.814627,16.078699 C 57.611789,17.9955 57.684619,18.081989 57.286869,20.202176 C 56.906626,22.229045 57.010212,22.396254 58.903736,22.812142 C 61.313066,23.34132 69.411703,28.651141 72.077864,31.449679 C 73.117125,32.54054 74.457401,33.433062 75.056259,33.433062 C 75.655112,33.433062 77.212613,32.130287 78.51737,30.538006 C 79.840405,28.923416 81.439698,27.642949 82.13327,27.642949 C 82.817263,27.642949 83.37689,27.75247 83.37689,27.886329 C 83.37689,28.020188 82.074115,30.484953 80.481833,33.363584 C 77.305332,39.106271 77.036903,40.066763 78.69788,39.746888 C 79.396033,39.612436 80.426519,37.926801 81.470547,35.211458 C 83.490569,29.957714 83.832276,29.565103 84.403593,31.841422 C 85.049235,34.413864 84.262533,56.592791 83.451454,58.684389 C 82.471734,61.210863 80.601213,60.926974 78.152767,57.880206 C 77.015351,56.464845 75.707531,55.306823 75.246497,55.306823 C 74.785469,55.306823 72.566614,57.12147 70.315714,59.339373 C 67.824408,61.794157 64.140256,64.500081 60.899542,66.255341 C 55.77641,69.030169 55.534066,69.265061 54.464724,72.492432 C 53.11123,76.577389 48.973375,82.970696 47.683015,82.970696 C 47.161997,82.970696 46.502499,82.038675 46.203512,80.879822 z M 64.318482,38.62909 C 67.096771,36.912012 67.213185,35.788579 65.054309,31.528242 C 63.693471,28.842757 62.865273,28.091851 59.425034,26.424324 C 53.794933,23.695344 48.18626,22.895994 37.746223,23.334649 C 28.880171,23.707171 24.880454,24.477223 19.682331,26.81243 C 16.986406,28.023547 12.939411,31.518701 14.265898,31.490286 C 14.592958,31.48328 18.33462,31.111789 22.580702,30.664751 C 26.826785,30.217713 32.458172,29.861563 35.094895,29.873307 L 39.888938,29.89466 L 40.309371,31.927476 C 41.665441,38.484146 45.727504,40.68121 55.794147,40.302787 C 60.819227,40.113886 62.426717,39.798265 64.318482,38.62909 z" style="fill:#d18d6e"/>
<path d="M 46.285321,81.027271 C 46.071544,79.95839 45.633217,78.921046 45.311261,78.722066 C 44.989304,78.523085 41.914512,78.308092 38.478388,78.244311 C 33.262017,78.147474 31.699981,77.864306 29.014161,76.528604 C 26.495258,75.275913 25.782299,74.57996 25.727673,73.320508 C 25.689306,72.435907 25.61693,71.385562 25.566837,70.986404 C 25.516744,70.58724 23.741212,69.611979 21.62121,68.819152 C 14.358714,66.103164 7.3357406,60.653005 4.8168304,55.77817 C 1.8622689,50.06022 2.2384377,41.795729 5.7239726,35.848114 C 8.6864839,30.792971 15.608335,25.579872 23.000089,22.83684 C 25.770729,21.808673 26.094325,21.447962 27.35992,17.976949 C 28.843024,13.909395 33.539572,6.4125343 34.604664,6.4125343 C 34.967084,6.4125343 35.100099,6.8386358 34.900253,7.3594263 C 34.37074,8.7393125 35.714576,12.128093 37.08136,12.859574 C 37.72856,13.205945 39.50752,13.492775 41.034603,13.496975 C 44.347419,13.506086 48.981215,14.68483 53.667143,16.710438 C 56.540247,17.952407 57.035142,18.407347 56.749805,19.544217 C 56.282698,21.405319 56.925083,22.180573 59.67761,23.077606 C 62.333612,23.94318 70.0235,29.186729 72.391315,31.74677 C 74.573885,34.106529 75.789835,33.866604 78.51737,30.538006 C 79.840405,28.923416 81.439698,27.642949 82.13327,27.642949 C 82.817263,27.642949 83.37689,27.75247 83.37689,27.886329 C 83.37689,28.020188 82.074115,30.484953 80.481833,33.363584 C 77.305332,39.106271 77.036903,40.066763 78.69788,39.746888 C 79.396033,39.612436 80.426519,37.926801 81.470547,35.211458 C 83.490569,29.957714 83.832276,29.565103 84.403593,31.841422 C 85.049235,34.413864 84.262533,56.592791 83.451454,58.684389 C 82.471734,61.210863 80.601213,60.926974 78.152767,57.880206 C 77.015351,56.464845 75.707531,55.306823 75.246497,55.306823 C 74.785469,55.306823 72.566614,57.12147 70.315714,59.339373 C 67.815749,61.80269 64.148317,64.493982 60.891307,66.255341 C 55.754136,69.033476 55.497652,69.28202 53.867032,73.062237 C 51.711059,78.060352 48.554236,82.968059 47.494272,82.969545 C 47.043126,82.970182 46.499098,82.096158 46.285321,81.027271 z M 64.318482,38.62909 C 67.096771,36.912012 67.213185,35.788579 65.054309,31.528242 C 63.693471,28.842757 62.865273,28.091851 59.425034,26.424324 C 53.794933,23.695344 48.18626,22.895994 37.746223,23.334649 C 28.880171,23.707171 24.880454,24.477223 19.682331,26.81243 C 16.986406,28.023547 12.939411,31.518701 14.265898,31.490286 C 14.592958,31.48328 18.33462,31.111789 22.580702,30.664751 C 26.826785,30.217713 32.458172,29.861563 35.094895,29.873307 L 39.888938,29.89466 L 40.309371,31.927476 C 41.665441,38.484146 45.727504,40.68121 55.794147,40.302787 C 60.819227,40.113886 62.426717,39.798265 64.318482,38.62909 z" style="fill:#5f8eac"/>
<path d="M 46.285321,81.027271 C 46.071544,79.95839 45.633217,78.921046 45.311261,78.722066 C 44.989304,78.523085 41.914512,78.308092 38.478388,78.244311 C 33.262017,78.147474 31.699981,77.864306 29.014161,76.528604 C 26.495258,75.275913 25.782299,74.57996 25.727673,73.320508 C 25.689306,72.435907 25.61693,71.385562 25.566837,70.986404 C 25.516744,70.58724 23.741212,69.611979 21.62121,68.819152 C 11.477753,65.025753 4.4466961,58.106254 3.0299706,50.52289 C 2.3616307,46.945442 3.3469632,40.315171 5.0401943,36.996165 C 7.3522881,32.464087 12.760769,27.878657 19.707201,24.561152 L 26.051611,21.531163 L 27.389296,17.879409 C 28.853056,13.88348 33.554042,6.4125343 34.604664,6.4125343 C 34.967084,6.4125343 35.100099,6.8386358 34.900253,7.3594263 C 34.37074,8.7393125 35.714576,12.128093 37.08136,12.859574 C 37.72856,13.205945 39.50752,13.492775 41.034603,13.496975 C 44.347419,13.506086 48.981215,14.68483 53.667143,16.710438 C 56.540247,17.952407 57.035142,18.407347 56.749805,19.544217 C 56.269825,21.456609 56.773896,21.949337 61.619337,24.304176 C 63.983209,25.452996 67.824929,28.121721 70.156492,30.234674 C 72.488048,32.347628 74.636303,34.076408 74.930389,34.076408 C 75.224469,34.076408 76.798485,32.62888 78.428196,30.859679 C 81.138413,27.917492 82.75029,26.891268 82.722794,28.125458 C 82.716881,28.390839 81.464654,30.930904 79.940065,33.770049 C 77.16738,38.933448 76.863534,40.509867 78.641002,40.509867 C 79.456662,40.509867 81.441422,36.881322 83.03977,32.468043 C 83.479845,31.252913 83.54176,31.270804 84.152952,32.789716 C 84.967769,34.814654 84.377087,56.215843 83.438252,58.684389 C 82.47654,61.213081 80.601927,60.92786 78.152767,57.880206 C 77.015351,56.464845 75.707531,55.306823 75.246497,55.306823 C 74.785469,55.306823 72.566614,57.12147 70.315714,59.339373 C 67.815749,61.80269 64.148317,64.493982 60.891307,66.255341 C 55.754136,69.033476 55.497652,69.28202 53.867032,73.062237 C 51.711059,78.060352 48.554236,82.968059 47.494272,82.969545 C 47.043126,82.970182 46.499098,82.096158 46.285321,81.027271 z M 21.087511,46.621653 C 21.826846,43.887974 21.32241,43.083251 18.869488,43.083251 C 16.286246,43.083251 15.182225,44.052808 15.182225,46.321425 C 15.182225,48.580744 15.688708,48.969985 18.333389,48.743145 C 20.200369,48.583011 20.650916,48.235955 21.087511,46.621653 z M 59.834888,40.523437 C 63.885201,39.860155 66.649897,37.973542 66.649897,35.872914 C 66.649897,35.21515 65.926975,33.25036 65.043404,31.506713 C 63.620542,28.698831 62.903533,28.080371 58.770778,26.096211 C 56.204408,24.864081 52.222865,23.552208 49.922903,23.180939 C 37.027353,21.09928 18.799743,24.492651 15.120246,29.660028 C 13.619029,31.768292 13.573261,31.756739 19.837747,30.850789 C 27.276942,29.774955 39.648263,29.494022 39.92421,30.394658 C 40.05678,30.827339 40.325847,31.922313 40.522135,32.827933 C 41.963037,39.475841 49.031881,42.292545 59.834888,40.523437 z" style="fill:#db7249"/>
<path d="M 46.285321,81.027271 C 46.071544,79.95839 45.633217,78.921046 45.311261,78.722066 C 44.989304,78.523085 41.914512,78.308092 38.478388,78.244311 C 33.262017,78.147474 31.699981,77.864306 29.014161,76.528604 C 26.495258,75.275913 25.782299,74.57996 25.727673,73.320508 C 25.689306,72.435907 25.61693,71.385562 25.566837,70.986404 C 25.516744,70.58724 23.741212,69.611979 21.62121,68.819152 C 11.477753,65.025753 4.4466961,58.106254 3.0299706,50.52289 C 2.3616307,46.945442 3.3469632,40.315171 5.0401943,36.996165 C 7.3522881,32.464087 12.760769,27.878657 19.707201,24.561152 L 26.051611,21.531163 L 27.389296,17.879409 C 28.806519,14.010523 33.541837,6.4125343 34.535833,6.4125343 C 35.417421,6.4125343 35.31976,6.6385778 32.857111,10.298059 C 30.437396,13.89374 30.349409,14.668432 32.490908,13.522336 C 33.535961,12.963041 34.176031,13.036994 35.436097,13.862622 C 36.321572,14.442807 37.458279,14.759318 37.962113,14.565979 C 41.106198,13.35948 57.263015,17.984026 56.677282,19.922798 C 56.232282,21.395746 56.9572,22.038421 61.619337,24.304176 C 63.983209,25.452996 67.824929,28.121721 70.156492,30.234674 C 72.488048,32.347628 74.636303,34.076408 74.930389,34.076408 C 75.224469,34.076408 76.798485,32.62888 78.428196,30.859679 C 81.138413,27.917492 82.75029,26.891268 82.722794,28.125458 C 82.716881,28.390839 81.464654,30.930904 79.940065,33.770049 C 77.16738,38.933448 76.863534,40.509867 78.641002,40.509867 C 79.456662,40.509867 81.441422,36.881322 83.03977,32.468043 C 83.479845,31.252913 83.54176,31.270804 84.152952,32.789716 C 84.967769,34.814654 84.377087,56.215843 83.438252,58.684389 C 82.47654,61.213081 80.601927,60.92786 78.152767,57.880206 C 77.015351,56.464845 75.707531,55.306823 75.246497,55.306823 C 74.785469,55.306823 72.566614,57.12147 70.315714,59.339373 C 67.815749,61.80269 64.148317,64.493982 60.891307,66.255341 C 55.754136,69.033476 55.497652,69.28202 53.867032,73.062237 C 51.711059,78.060352 48.554236,82.968059 47.494272,82.969545 C 47.043126,82.970182 46.499098,82.096158 46.285321,81.027271 z M 21.087511,46.621653 C 21.826846,43.887974 21.32241,43.083251 18.869488,43.083251 C 16.286246,43.083251 15.182225,44.052808 15.182225,46.321425 C 15.182225,48.580744 15.688708,48.969985 18.333389,48.743145 C 20.200369,48.583011 20.650916,48.235955 21.087511,46.621653 z M 59.834888,40.523437 C 63.885201,39.860155 66.649897,37.973542 66.649897,35.872914 C 66.649897,35.21515 65.926975,33.25036 65.043404,31.506713 C 63.620542,28.698831 62.903533,28.080371 58.770778,26.096211 C 56.204408,24.864081 52.222865,23.552208 49.922903,23.180939 C 37.027353,21.09928 18.799743,24.492651 15.120246,29.660028 C 13.619029,31.768292 13.573261,31.756739 19.837747,30.850789 C 27.276942,29.774955 39.648263,29.494022 39.92421,30.394658 C 40.05678,30.827339 40.325847,31.922313 40.522135,32.827933 C 41.963037,39.475841 49.031881,42.292545 59.834888,40.523437 z" style="fill:#3989c6"/>
<path d="M 46.285321,81.027271 C 46.071544,79.95839 45.633217,78.921046 45.311261,78.722066 C 44.989304,78.523085 41.914512,78.308092 38.478388,78.244311 C 33.262017,78.147474 31.699981,77.864306 29.014161,76.528604 C 26.495258,75.275913 25.782299,74.57996 25.727673,73.320508 C 25.689306,72.435907 25.61693,71.385562 25.566837,70.986404 C 25.516744,70.58724 23.741212,69.611979 21.62121,68.819152 C 11.477753,65.025753 4.4466961,58.106254 3.0299706,50.52289 C 2.3616307,46.945442 3.3469632,40.315171 5.0401943,36.996165 C 7.3522881,32.464087 12.760769,27.878657 19.707201,24.561152 L 26.051611,21.531163 L 27.389296,17.879409 C 28.806519,14.010523 33.541837,6.4125343 34.535833,6.4125343 C 35.417421,6.4125343 35.31976,6.6385778 32.857111,10.298059 C 30.437396,13.89374 30.349409,14.668432 32.490908,13.522336 C 33.535961,12.963041 34.176031,13.036994 35.436097,13.862622 C 36.321572,14.442807 37.458279,14.759318 37.962113,14.565979 C 41.106198,13.35948 57.263015,17.984026 56.677282,19.922798 C 56.232282,21.395746 56.9572,22.038421 61.619337,24.304176 C 63.983209,25.452996 67.824929,28.121721 70.156492,30.234674 C 72.488048,32.347628 74.636303,34.076408 74.930389,34.076408 C 75.224469,34.076408 76.798485,32.62888 78.428196,30.859679 C 81.138413,27.917492 82.75029,26.891268 82.722794,28.125458 C 82.716881,28.390839 81.464654,30.930904 79.940065,33.770049 C 77.16738,38.933448 76.863534,40.509867 78.641002,40.509867 C 79.456662,40.509867 81.441422,36.881322 83.03977,32.468043 C 83.479845,31.252913 83.54176,31.270804 84.152952,32.789716 C 84.967769,34.814654 84.377087,56.215843 83.438252,58.684389 C 82.47654,61.213081 80.601927,60.92786 78.152767,57.880206 C 77.015351,56.464845 75.707531,55.306823 75.246497,55.306823 C 74.785469,55.306823 72.566614,57.12147 70.315714,59.339373 C 67.815749,61.80269 64.148317,64.493982 60.891307,66.255341 C 55.754136,69.033476 55.497652,69.28202 53.867032,73.062237 C 51.711059,78.060352 48.554236,82.968059 47.494272,82.969545 C 47.043126,82.970182 46.499098,82.096158 46.285321,81.027271 z M 21.087511,46.621653 C 21.826846,43.887974 21.32241,43.083251 18.869488,43.083251 C 16.286246,43.083251 15.182225,44.052808 15.182225,46.321425 C 15.182225,48.580744 15.688708,48.969985 18.333389,48.743145 C 20.200369,48.583011 20.650916,48.235955 21.087511,46.621653 z M 59.75678,40.53615 C 64.054852,39.832204 67.204879,37.70059 67.257646,35.460328 C 67.421622,28.499006 57.879778,23.372413 43.489444,22.690274 C 28.920671,21.999676 16.121345,25.975984 12.907407,32.191055 C 11.517012,34.879782 11.748973,35.7908 13.423434,34.217726 C 14.410444,33.290478 16.417231,32.609767 19.636205,32.110326 C 23.807162,31.46318 26.74433,31.49358 36.412639,32.283966 C 38.31819,32.439744 38.961059,32.938916 40.594388,35.530985 C 42.280828,38.207343 43.011619,38.750875 46.384501,39.837435 C 50.734538,41.238782 54.322171,41.42624 59.75678,40.53615 z" style="fill:#3683b8"/>
<path d="M 46.285321,81.027271 C 46.071544,79.95839 45.633217,78.921046 45.311261,78.722066 C 44.989304,78.523085 41.914512,78.308092 38.478388,78.244311 C 33.262017,78.147474 31.699981,77.864306 29.014161,76.528604 C 26.495258,75.275913 25.782299,74.57996 25.727673,73.320508 C 25.689306,72.435907 25.61693,71.385562 25.566837,70.986404 C 25.516744,70.58724 23.741212,69.611979 21.62121,68.819152 C 11.477753,65.025753 4.4466961,58.106254 3.0299706,50.52289 C 2.3616307,46.945442 3.3469632,40.315171 5.0401943,36.996165 C 7.3522881,32.464087 12.760769,27.878657 19.707201,24.561152 L 26.051611,21.531163 L 27.389296,17.879409 C 28.806519,14.010523 33.541837,6.4125343 34.535833,6.4125343 C 35.417421,6.4125343 35.31976,6.6385778 32.857111,10.298059 C 30.437396,13.89374 30.349409,14.668432 32.490908,13.522336 C 33.535961,12.963041 34.176031,13.036994 35.436097,13.862622 C 36.321572,14.442807 37.458279,14.759318 37.962113,14.565979 C 41.106198,13.35948 57.263015,17.984026 56.677282,19.922798 C 56.232282,21.395746 56.9572,22.038421 61.619337,24.304176 C 63.983209,25.452996 67.824929,28.121721 70.156492,30.234674 C 72.488048,32.347628 74.636303,34.076408 74.930389,34.076408 C 75.224469,34.076408 76.798485,32.62888 78.428196,30.859679 C 81.138413,27.917492 82.75029,26.891268 82.722794,28.125458 C 82.716881,28.390839 81.464654,30.930904 79.940065,33.770049 C 77.16738,38.933448 76.863534,40.509867 78.641002,40.509867 C 79.456662,40.509867 81.441422,36.881322 83.03977,32.468043 C 83.479845,31.252913 83.54176,31.270804 84.152952,32.789716 C 84.967769,34.814654 84.377087,56.215843 83.438252,58.684389 C 82.47654,61.213081 80.601927,60.92786 78.152767,57.880206 C 77.015351,56.464845 75.707531,55.306823 75.246497,55.306823 C 74.785469,55.306823 72.566614,57.12147 70.315714,59.339373 C 67.815749,61.80269 64.148317,64.493982 60.891307,66.255341 C 55.754136,69.033476 55.497652,69.28202 53.867032,73.062237 C 51.711059,78.060352 48.554236,82.968059 47.494272,82.969545 C 47.043126,82.970182 46.499098,82.096158 46.285321,81.027271 z M 21.087511,46.621653 C 21.826846,43.887974 21.32241,43.083251 18.869488,43.083251 C 16.286246,43.083251 15.182225,44.052808 15.182225,46.321425 C 15.182225,48.580744 15.688708,48.969985 18.333389,48.743145 C 20.200369,48.583011 20.650916,48.235955 21.087511,46.621653 z M 64.445041,39.701429 C 67.458717,38.120942 68.073891,37.070887 67.567501,34.371613 C 66.236483,27.276663 55.670058,22.577691 40.916061,22.519506 C 35.777004,22.49924 27.61921,23.621631 23.186464,24.958834 C 18.220094,26.457014 13.43795,30.031218 11.534185,33.66782 C 10.122474,36.364492 11.330463,37.101067 13.781862,35.03835 C 17.090863,32.25401 25.855206,31.431835 32.627417,33.270467 C 34.17871,33.691637 35.344696,33.683466 36.126503,33.245944 C 37.055451,32.72608 37.507663,32.888597 38.303361,34.028271 C 41.060752,37.977666 42.901472,39.581563 45.522453,40.318571 C 49.517988,41.4421 61.89568,41.038412 64.445041,39.701429 z" style="fill:#d75e31"/>
<path d="M 46.285321,81.027271 C 46.071544,79.95839 45.633217,78.921046 45.311261,78.722066 C 44.989304,78.523085 41.914512,78.308092 38.478388,78.244311 C 33.262017,78.147474 31.699981,77.864306 29.014161,76.528604 C 26.495258,75.275913 25.782299,74.57996 25.727673,73.320508 C 25.689306,72.435907 25.61693,71.385562 25.566837,70.986404 C 25.516744,70.58724 23.741212,69.611979 21.62121,68.819152 C 11.477753,65.025753 4.4466961,58.106254 3.0299706,50.52289 C 2.3616307,46.945442 3.3469632,40.315171 5.0401943,36.996165 C 7.3522881,32.464087 12.760769,27.878657 19.707201,24.561152 L 26.051611,21.531163 L 27.389296,17.879409 C 28.806519,14.010523 33.541837,6.4125343 34.535833,6.4125343 C 35.500648,6.4125343 35.230693,7.0601411 33.19385,9.6318642 C 31.039935,12.351403 28.728253,17.072966 28.706618,18.796943 C 28.689816,20.135733 29.362714,20.172 35.863084,19.182656 C 40.025717,18.549111 41.95448,18.612112 48.408329,19.59243 C 52.602827,20.229562 56.324195,21.07776 56.678035,21.477317 C 57.031875,21.876874 59.25546,23.146345 61.619337,24.298363 C 63.983209,25.450381 67.824929,28.121721 70.156492,30.234674 C 72.488048,32.347628 74.636303,34.076408 74.930389,34.076408 C 75.224469,34.076408 76.798485,32.62888 78.428196,30.859679 C 81.138413,27.917492 82.75029,26.891268 82.722794,28.125458 C 82.716881,28.390839 81.464654,30.930904 79.940065,33.770049 C 77.16738,38.933448 76.863534,40.509867 78.641002,40.509867 C 79.456662,40.509867 81.441422,36.881322 83.03977,32.468043 C 83.479845,31.252913 83.54176,31.270804 84.152952,32.789716 C 84.967769,34.814654 84.377087,56.215843 83.438252,58.684389 C 82.47654,61.213081 80.601927,60.92786 78.152767,57.880206 C 77.015351,56.464845 75.707531,55.306823 75.246497,55.306823 C 74.785469,55.306823 72.566614,57.12147 70.315714,59.339373 C 67.815749,61.80269 64.148317,64.493982 60.891307,66.255341 C 55.754136,69.033476 55.497652,69.28202 53.867032,73.062237 C 51.711059,78.060352 48.554236,82.968059 47.494272,82.969545 C 47.043126,82.970182 46.499098,82.096158 46.285321,81.027271 z M 21.087511,46.621653 C 21.826846,43.887974 21.32241,43.083251 18.869488,43.083251 C 16.286246,43.083251 15.182225,44.052808 15.182225,46.321425 C 15.182225,48.580744 15.688708,48.969985 18.333389,48.743145 C 20.200369,48.583011 20.650916,48.235955 21.087511,46.621653 z M 64.445041,39.701429 C 67.458717,38.120942 68.073891,37.070887 67.567501,34.371613 C 66.236483,27.276663 55.670058,22.577691 40.916061,22.519506 C 35.777004,22.49924 27.61921,23.621631 23.186464,24.958834 C 18.220094,26.457014 13.43795,30.031218 11.534185,33.66782 C 10.122474,36.364492 11.330463,37.101067 13.781862,35.03835 C 17.090863,32.25401 25.855206,31.431835 32.627417,33.270467 C 34.17871,33.691637 35.344696,33.683466 36.126503,33.245944 C 37.055451,32.72608 37.507663,32.888597 38.303361,34.028271 C 41.060752,37.977666 42.901472,39.581563 45.522453,40.318571 C 49.517988,41.4421 61.89568,41.038412 64.445041,39.701429 z" style="fill:#a26754"/>
<path d="M 46.706174,81.093278 C 46.706174,78.07726 46.211378,77.823929 40.320652,77.823929 C 34.958981,77.823929 28.703101,76.558822 26.936806,75.117347 C 26.385577,74.667494 26.336872,74.115709 26.775969,73.29525 C 27.853892,71.281134 27.538835,70.967998 22.634913,69.179438 C 11.59517,65.153019 4.502159,58.403133 3.0299706,50.52289 C 2.3616307,46.945442 3.3469632,40.315171 5.0401943,36.996165 C 7.4415279,32.289162 12.756324,27.869364 20.392879,24.228834 C 24.247434,22.391275 27.415262,20.598311 27.432496,20.244471 C 27.449731,19.890631 27.864848,18.732608 28.354981,17.671088 L 29.24613,15.74105 L 28.888891,17.831924 C 28.566738,19.717448 28.685907,19.922798 30.102279,19.922798 C 30.966123,19.922798 33.387786,19.605785 35.483751,19.218325 C 37.848077,18.781256 41.128593,18.704782 44.126241,19.016855 C 48.149444,19.435695 48.581124,19.583355 46.706174,19.899344 C 44.859065,20.210642 45.552668,20.434319 50.566249,21.144165 C 58.463188,22.26225 64.387082,25.006205 70.119731,30.201363 C 72.471508,32.332638 74.636303,34.076408 74.930389,34.076408 C 75.224469,34.076408 76.798485,32.62888 78.428196,30.859679 C 81.138413,27.917492 82.75029,26.891268 82.722794,28.125458 C 82.716881,28.390839 81.464654,30.930904 79.940065,33.770049 C 77.16738,38.933448 76.863534,40.509867 78.641002,40.509867 C 79.456662,40.509867 81.441422,36.881322 83.03977,32.468043 C 83.479845,31.252913 83.54176,31.270804 84.152952,32.789716 C 84.967769,34.814654 84.377087,56.215843 83.438252,58.684389 C 82.47654,61.213081 80.601927,60.92786 78.152767,57.880206 C 77.015351,56.464845 75.707531,55.306823 75.246497,55.306823 C 74.785469,55.306823 72.531925,57.15565 70.238628,59.415328 C 67.435892,62.176977 64.295334,64.432041 60.658551,66.29427 C 55.349803,69.012638 55.214876,69.141005 53.479803,73.123753 C 51.556542,77.538477 48.364693,82.327351 47.345485,82.327351 C 46.993863,82.327351 46.706174,81.772014 46.706174,81.093278 z M 21.087511,46.621653 C 21.826846,43.887974 21.32241,43.083251 18.869488,43.083251 C 16.286246,43.083251 15.182225,44.052808 15.182225,46.321425 C 15.182225,48.580744 15.688708,48.969985 18.333389,48.743145 C 20.200369,48.583011 20.650916,48.235955 21.087511,46.621653 z M 64.445041,39.701429 C 67.458717,38.120942 68.073891,37.070887 67.567501,34.371613 C 66.236483,27.276663 55.670058,22.577691 40.916061,22.519506 C 35.777004,22.49924 27.61921,23.621631 23.186464,24.958834 C 18.220094,26.457014 13.43795,30.031218 11.534185,33.66782 C 10.122474,36.364492 11.330463,37.101067 13.781862,35.03835 C 17.090863,32.25401 25.855206,31.431835 32.627417,33.270467 C 34.17871,33.691637 35.344696,33.683466 36.126503,33.245944 C 37.055451,32.72608 37.507663,32.888597 38.303361,34.028271 C 41.060752,37.977666 42.901472,39.581563 45.522453,40.318571 C 49.517988,41.4421 61.89568,41.038412 64.445041,39.701429 z" style="fill:#52748f"/>
<path d="M 46.706174,81.093278 C 46.706174,78.07726 46.211378,77.823929 40.320652,77.823929 C 34.958981,77.823929 28.703101,76.558822 26.936806,75.117347 C 26.385577,74.667494 26.336872,74.115709 26.775969,73.29525 C 27.86515,71.260096 27.521009,70.902891 22.741539,69.107641 C 12.838686,65.387963 6.0069778,59.649032 3.8882159,53.270039 C 2.5187976,49.147107 3.0404044,41.491935 4.9638922,37.483266 C 7.0976196,33.036444 13.21246,27.948728 20.749193,24.34946 C 24.410325,22.601038 27.418855,20.817398 27.434814,20.385817 C 27.450774,19.954237 27.864848,18.732608 28.354981,17.671088 L 29.24613,15.74105 L 28.888891,17.831924 C 28.566738,19.717448 28.685907,19.922798 30.102279,19.922798 C 30.966123,19.922798 33.387786,19.605785 35.483751,19.218325 C 37.848077,18.781256 41.128593,18.704782 44.126241,19.016855 C 48.131135,19.433789 48.572591,19.583835 46.706174,19.893749 C 44.833797,20.204651 45.429893,20.409821 50.244576,21.111635 C 58.224222,22.274788 64.361554,25.352487 71.474991,31.758087 C 72.890352,33.03261 74.466967,34.075628 74.978582,34.075905 C 75.490203,34.076182 77.124443,32.701256 78.610237,31.020515 C 80.096032,29.339774 81.478756,28.12541 81.68296,28.321927 C 82.150615,28.771979 78.605509,36.341852 77.650751,36.931927 C 76.797025,37.459558 76.7462,39.202021 77.547597,40.468499 C 78.437531,41.874907 80.059187,40.242456 81.8998,36.087312 C 82.742178,34.185667 83.587039,32.785418 83.77727,32.975647 C 83.967501,33.165876 84.099786,38.310393 84.071247,44.407908 C 84.019406,55.482353 83.354978,60.45359 81.926666,60.45359 C 81.510158,60.45359 79.796175,59.101038 78.11782,57.447918 L 75.066263,54.442245 L 70.020412,59.263022 C 66.635685,62.496771 63.383539,64.880768 60.141642,66.504683 C 55.449279,68.855166 55.256422,69.045635 53.510111,73.054182 C 51.56091,77.528447 48.37069,82.327351 47.345485,82.327351 C 46.993863,82.327351 46.706174,81.772014 46.706174,81.093278 z M 21.879966,48.826278 C 22.202242,48.52608 22.491748,47.056778 22.523312,45.561161 C 22.573628,43.177059 22.382444,42.791201 20.972338,42.430896 C 17.339114,41.502548 13.955053,43.737862 13.915993,47.091905 C 13.899683,48.492459 14.254409,48.928001 15.664734,49.239054 C 16.637795,49.453666 17.723441,49.722936 18.077281,49.837431 C 18.918035,50.109481 21.135347,49.519886 21.879966,48.826278 z M 64.445041,39.701429 C 67.475843,38.11196 68.072804,37.076684 67.567681,34.286012 C 66.894181,30.565105 62.914167,27.083147 56.321875,24.447497 C 51.066793,22.346475 50.602029,22.276005 42.202752,22.306675 C 25.678132,22.367016 15.51647,26.132298 11.541541,33.66782 C 10.119891,36.36293 11.328785,37.102479 13.781862,35.03835 C 17.090863,32.25401 25.855206,31.431835 32.627417,33.270467 C 34.17871,33.691637 35.344696,33.683466 36.126503,33.245944 C 37.055451,32.72608 37.507663,32.888597 38.303361,34.028271 C 41.060752,37.977666 42.901472,39.581563 45.522453,40.318571 C 49.517988,41.4421 61.89568,41.038412 64.445041,39.701429 z" style="fill:#2c74ab"/>
<path d="M 46.706174,81.093278 C 46.706174,78.07726 46.211378,77.823929 40.320652,77.823929 C 34.958981,77.823929 28.703101,76.558822 26.936806,75.117347 C 26.385577,74.667494 26.336872,74.115709 26.775969,73.29525 C 27.86515,71.260096 27.521009,70.902891 22.741539,69.107641 C 12.838686,65.387963 6.0069778,59.649032 3.8882159,53.270039 C 2.5187976,49.147107 3.0404044,41.491935 4.9638922,37.483266 C 7.0976196,33.036444 13.21246,27.948728 20.749193,24.34946 C 24.410325,22.601038 27.418855,20.817398 27.434814,20.385817 C 27.450774,19.954237 27.864848,18.732608 28.354981,17.671088 L 29.24613,15.74105 L 28.888891,17.831924 C 28.566738,19.717448 28.685907,19.922798 30.102279,19.922798 C 30.966123,19.922798 33.387786,19.605785 35.483751,19.218325 C 37.848077,18.781256 41.128593,18.704782 44.126241,19.016855 C 48.131135,19.433789 48.572591,19.583835 46.706174,19.893749 C 44.833797,20.204651 45.429893,20.409821 50.244576,21.111635 C 58.224222,22.274788 64.361554,25.352487 71.474991,31.758087 C 72.890352,33.03261 74.466967,34.075628 74.978582,34.075905 C 75.490203,34.076182 77.124443,32.701256 78.610237,31.020515 C 80.096032,29.339774 81.478756,28.12541 81.68296,28.321927 C 82.150615,28.771979 78.605509,36.341852 77.650751,36.931927 C 76.797025,37.459558 76.7462,39.202021 77.547597,40.468499 C 78.437531,41.874907 80.059187,40.242456 81.8998,36.087312 C 82.742178,34.185667 83.587039,32.785418 83.77727,32.975647 C 83.967501,33.165876 84.099786,38.310393 84.071247,44.407908 C 84.019406,55.482353 83.354978,60.45359 81.926666,60.45359 C 81.510158,60.45359 79.796175,59.101038 78.11782,57.447918 L 75.066263,54.442245 L 70.020412,59.263022 C 66.635685,62.496771 63.383539,64.880768 60.141642,66.504683 C 55.449279,68.855166 55.256422,69.045635 53.510111,73.054182 C 51.56091,77.528447 48.37069,82.327351 47.345485,82.327351 C 46.993863,82.327351 46.706174,81.772014 46.706174,81.093278 z M 21.879966,48.826278 C 22.202242,48.52608 22.491748,47.056778 22.523312,45.561161 C 22.573628,43.177059 22.382444,42.791201 20.972338,42.430896 C 17.339114,41.502548 13.955053,43.737862 13.915993,47.091905 C 13.899683,48.492459 14.254409,48.928001 15.664734,49.239054 C 16.637795,49.453666 17.723441,49.722936 18.077281,49.837431 C 18.918035,50.109481 21.135347,49.519886 21.879966,48.826278 z M 61.128181,40.831466 C 66.843428,39.620706 68.754924,37.978496 68.192949,34.761966 C 67.391243,30.173296 64.099416,27.141713 57.139644,24.582522 C 46.011148,20.490441 26.889509,21.850858 17.245973,27.420774 C 14.068339,29.256113 10.678803,33.571259 10.678803,35.781299 C 10.678803,37.695651 11.517526,37.678217 15.452094,35.68208 C 19.004868,33.879639 21.934326,33.610443 22.719919,35.014218 C 23.156752,35.794797 23.998044,35.844579 27.737817,35.311143 C 33.945681,34.425661 36.878915,35.012186 39.676571,37.698397 C 43.441184,41.313045 52.564857,42.645583 61.128181,40.831466 z" style="fill:#2d6791"/>
<path d="M 46.706174,81.093278 C 46.706174,78.07726 46.211378,77.823929 40.320652,77.823929 C 34.958981,77.823929 28.703101,76.558822 26.936806,75.117347 C 26.385577,74.667494 26.336872,74.115709 26.775969,73.29525 C 27.86515,71.260096 27.521009,70.902891 22.741539,69.107641 C 12.838686,65.387963 6.0069778,59.649032 3.8882159,53.270039 C 2.5187976,49.147107 3.0404044,41.491935 4.9638922,37.483266 C 7.0976196,33.036444 13.21246,27.948728 20.749193,24.34946 C 24.410325,22.601038 27.418855,20.817398 27.434814,20.385817 C 27.450774,19.954237 27.864848,18.732608 28.354981,17.671088 L 29.24613,15.74105 L 28.888891,17.831924 C 28.566738,19.717448 28.685907,19.922798 30.102279,19.922798 C 30.966123,19.922798 33.387786,19.605785 35.483751,19.218325 C 37.848077,18.781256 41.128593,18.704782 44.126241,19.016855 C 48.149444,19.435695 48.581124,19.583355 46.706174,19.899344 C 44.839607,20.213921 45.487277,20.431541 50.492722,21.171637 C 57.616327,22.224921 63.661323,25.164207 70.008535,30.660898 C 72.177737,32.539429 74.392693,34.076408 74.930665,34.076408 C 75.468638,34.076408 77.124443,32.701256 78.610237,31.020515 C 80.096032,29.339774 81.474928,28.121582 81.674455,28.313421 C 82.127004,28.748541 79.13035,35.299604 77.812804,36.75548 C 76.565497,38.133739 76.926041,40.753765 78.401716,41.035048 C 79.254175,41.197538 80.037024,40.186018 81.533099,36.988975 C 82.630223,34.644475 83.661809,32.860183 83.825508,33.023883 C 83.989207,33.187583 84.099786,38.310393 84.071247,44.407908 C 84.019406,55.482353 83.354978,60.45359 81.926666,60.45359 C 81.510158,60.45359 79.796175,59.101038 78.11782,57.447918 L 75.066263,54.442245 L 70.020412,59.263022 C 66.635685,62.496771 63.383539,64.880768 60.141642,66.504683 C 55.449279,68.855166 55.256422,69.045635 53.510111,73.054182 C 51.56091,77.528447 48.37069,82.327351 47.345485,82.327351 C 46.993863,82.327351 46.706174,81.772014 46.706174,81.093278 z M 21.736259,49.593167 C 23.744304,48.829709 26.219404,42.010421 24.805603,41.136644 C 22.933401,39.979559 19.208351,39.779873 16.96684,40.716436 C 15.08892,41.501082 14.606288,42.135475 13.972553,44.652265 C 13.557022,46.30249 13.399327,47.947617 13.622119,48.308103 C 14.62338,49.928178 19.022603,50.624897 21.736259,49.593167 z M 63.331673,40.802081 C 67.305209,39.622068 69.615329,37.297746 68.635056,35.466093 C 68.250901,34.74829 67.936588,33.621708 67.936588,32.962576 C 67.936588,31.037998 63.470488,27.222699 58.67561,25.05111 C 52.762065,22.372881 45.182494,21.555626 35.24069,22.52428 C 21.964089,23.817852 16.347806,26.146279 11.729102,32.271837 C 9.7810032,34.855503 9.6493804,37.466816 11.449958,37.809887 C 12.051012,37.924408 14.066386,37.288938 15.928567,36.397731 C 19.3769,34.74742 21.009776,34.733807 18.766581,36.374072 C 16.539098,38.002847 18.196787,38.075814 24.473943,36.625294 C 32.528501,34.764054 35.554322,35.081285 38.94237,38.142183 C 40.339517,39.404421 42.440803,40.60894 43.611895,40.818893 C 44.782988,41.028846 47.04393,41.46287 48.636211,41.783391 C 52.183834,42.497516 59.200235,42.028986 63.331673,40.802081 z" style="fill:#a44f31"/>
<path d="M 46.696322,80.611759 C 46.679223,77.447836 46.16905,77.21046 39.602913,77.311253 C 33.882265,77.399064 29.463162,76.591343 27.602685,75.117849 C 27.027773,74.662521 27.013603,74.11652 27.546354,72.947264 C 27.937844,72.088037 28.13875,71.283964 27.992812,71.160435 C 27.846873,71.036907 25.556177,70.130297 22.902375,69.145753 C 12.885015,65.429362 6.024244,59.701017 3.8882159,53.270039 C 2.5187976,49.147107 3.0404044,41.491935 4.9638922,37.483266 C 9.1664689,28.724832 26.072025,19.956774 38.837126,19.914929 C 40.157461,19.9106 44.676201,20.391105 48.878771,20.982716 C 55.477384,21.911627 57.170875,22.41219 61.29217,24.651881 C 63.91697,26.07831 67.839334,28.782368 70.008535,30.660898 C 72.177737,32.539429 74.392693,34.076408 74.930665,34.076408 C 75.468638,34.076408 77.124443,32.701256 78.610237,31.020515 C 80.096032,29.339774 81.474928,28.121582 81.674455,28.313421 C 82.127004,28.748541 79.13035,35.299604 77.812804,36.75548 C 76.565497,38.133739 76.926041,40.753765 78.401716,41.035048 C 79.254175,41.197538 80.037024,40.186018 81.533099,36.988975 C 82.630223,34.644475 83.661809,32.860183 83.825508,33.023883 C 83.989207,33.187583 84.099786,38.310393 84.071247,44.407908 C 84.019406,55.482353 83.354978,60.45359 81.926666,60.45359 C 81.510158,60.45359 79.796175,59.101038 78.11782,57.447918 L 75.066263,54.442245 L 70.020412,59.263022 C 66.613856,62.517622 63.386454,64.879308 60.086269,66.532424 L 55.197984,68.981043 L 51.697085,75.459472 C 47.990955,82.317687 46.71266,83.634713 46.696322,80.611759 z M 21.736259,49.593167 C 23.744304,48.829709 26.219404,42.010421 24.805603,41.136644 C 22.933401,39.979559 19.208351,39.779873 16.96684,40.716436 C 15.08892,41.501082 14.606288,42.135475 13.972553,44.652265 C 13.557022,46.30249 13.399327,47.947617 13.622119,48.308103 C 14.62338,49.928178 19.022603,50.624897 21.736259,49.593167 z M 63.331673,40.802081 C 67.305209,39.622068 69.615329,37.297746 68.635056,35.466093 C 68.250901,34.74829 67.936588,33.621708 67.936588,32.962576 C 67.936588,31.037998 63.470488,27.222699 58.67561,25.05111 C 52.762065,22.372881 45.182494,21.555626 35.24069,22.52428 C 21.964089,23.817852 16.347806,26.146279 11.729102,32.271837 C 9.7810032,34.855503 9.6493804,37.466816 11.449958,37.809887 C 12.051012,37.924408 14.066386,37.288938 15.928567,36.397731 C 19.3769,34.74742 21.009776,34.733807 18.766581,36.374072 C 16.539098,38.002847 18.196787,38.075814 24.473943,36.625294 C 32.528501,34.764054 35.554322,35.081285 38.94237,38.142183 C 40.339517,39.404421 42.440803,40.60894 43.611895,40.818893 C 44.782988,41.028846 47.04393,41.46287 48.636211,41.783391 C 52.183834,42.497516 59.200235,42.028986 63.331673,40.802081 z" style="fill:#575b65"/>
<path d="M 47.102671,81.630748 C 46.943705,81.12928 46.640652,79.928661 46.42922,78.962703 L 46.044799,77.20642 L 39.781191,77.306164 C 33.880055,77.400138 29.487885,76.61092 27.602685,75.117849 C 27.026344,74.661389 27.013198,74.117414 27.550037,72.939178 C 28.459038,70.944143 27.368198,70.034226 21.814836,68.155193 C 14.695849,65.746422 7.8789208,60.467244 5.2013164,55.289328 C 3.5124447,52.023411 3.0777191,48.009998 3.90059,43.280958 C 4.8664234,37.730316 5.9985262,35.598364 10.150381,31.511483 C 13.686028,28.031165 23.84681,22.455339 26.98478,22.273445 C 27.92352,22.21903 28.691784,21.997347 28.692034,21.780815 C 28.692722,21.184491 35.629485,19.916698 38.610811,19.968016 C 40.667684,20.003421 40.958518,20.133217 39.951042,20.566144 C 38.9998,20.974907 39.586837,21.150688 42.202752,21.24039 C 50.064655,21.509981 48.940551,22.177468 40.552064,22.220559 C 28.309161,22.28345 20.162226,24.429214 14.512702,29.078886 C 12.307995,30.893404 9.9449991,34.707319 10.146914,36.125341 C 10.4422,38.199097 12.010243,38.272973 15.928567,36.397731 C 19.3769,34.74742 21.009776,34.733807 18.766581,36.374072 C 16.539098,38.002847 18.196787,38.075814 24.473943,36.625294 C 32.503961,34.769725 35.557469,35.084128 38.908449,38.111538 C 40.28694,39.356921 42.243474,40.541272 43.256302,40.74343 C 50.04387,42.098208 53.754875,42.48101 56.617743,42.121706 C 65.0803,41.059614 70.13144,38.262116 68.635056,35.466093 C 68.250901,34.74829 67.936588,33.599824 67.936588,32.913947 C 67.936588,31.065168 62.962315,26.817424 58.755443,25.073772 C 55.25643,23.623512 54.028682,22.496182 55.948251,22.496182 C 57.933088,22.496182 66.126432,27.251416 69.81972,30.546874 C 71.99531,32.488118 74.260074,34.076408 74.852525,34.076408 C 75.444975,34.076408 77.202976,32.846009 78.759185,31.342188 C 81.23375,28.950931 81.529194,28.809711 81.114583,30.216333 C 80.466329,32.415595 78.912436,35.463015 77.779169,36.757575 C 76.561509,38.148546 76.942202,40.756846 78.403543,41.0354 C 79.254593,41.197625 79.985421,40.270822 81.2986,37.364001 C 82.264738,35.225379 83.315425,33.466028 83.633456,33.45433 C 84.270549,33.430898 83.703896,55.987403 83.007725,58.362716 C 82.396714,60.447463 81.545381,60.180598 78.15552,56.841705 L 75.141657,53.873165 L 69.974682,58.705266 C 66.674955,61.791137 63.11886,64.382265 60.134392,65.87533 L 55.461085,68.213294 L 52.021322,74.782968 C 48.219951,82.043294 47.535513,82.996173 47.102671,81.630748 z M 21.736259,49.593167 C 23.744304,48.829709 26.219404,42.010421 24.805603,41.136644 C 22.933401,39.979559 19.208351,39.779873 16.96684,40.716436 C 15.08892,41.501082 14.606288,42.135475 13.972553,44.652265 C 13.557022,46.30249 13.399327,47.947617 13.622119,48.308103 C 14.62338,49.928178 19.022603,50.624897 21.736259,49.593167 z" style="fill:#185888"/>
<path d="M 47.102671,81.630748 C 46.943705,81.12928 46.640652,79.928661 46.42922,78.962703 L 46.044799,77.20642 L 39.781191,77.306164 C 33.880055,77.400138 29.487885,76.61092 27.602685,75.117849 C 27.026344,74.661389 27.013198,74.117414 27.550037,72.939178 C 28.459038,70.944143 27.368198,70.034226 21.814836,68.155193 C 14.695849,65.746422 7.8789208,60.467244 5.2013164,55.289328 C 3.5124447,52.023411 3.0777191,48.009998 3.90059,43.280958 C 4.8664234,37.730316 5.9985262,35.598364 10.150381,31.511483 C 13.686028,28.031165 23.84681,22.455339 26.98478,22.273445 C 27.92352,22.21903 28.691784,21.997347 28.692034,21.780815 C 28.692722,21.184491 35.629485,19.916698 38.610811,19.968016 C 40.667684,20.003421 40.958518,20.133217 39.951042,20.566144 C 38.9998,20.974907 39.586837,21.150688 42.202752,21.24039 C 50.064655,21.509981 48.940551,22.177468 40.552064,22.220559 C 26.861871,22.290884 18.742227,24.772171 13.0606,30.621693 C 11.773615,31.946708 10.436823,33.844935 10.089951,34.839973 C 9.5278002,36.45256 9.7376963,36.970828 12.021711,39.6098 C 13.548639,41.374029 14.457355,42.999055 14.270391,43.63104 C 12.84723,48.441681 13.347067,49.399172 17.56954,49.950922 C 20.933495,50.39049 23.285484,49.354467 23.827652,47.194302 C 24.072384,46.219209 25.008599,44.546744 25.90813,43.477713 L 27.54364,41.53402 L 26.179419,40.42934 C 25.429098,39.821767 24.457189,39.179114 24.019623,39.001224 C 22.611405,38.428719 24.902583,37.376956 28.55095,36.921123 C 31.223261,36.58724 32.207494,36.720307 33.110569,37.537579 C 33.74399,38.110817 34.737168,38.579829 35.31763,38.579829 C 35.898093,38.579829 37.467579,39.150026 38.805375,39.846933 C 46.038573,43.614966 63.578859,43.076474 67.881492,38.954286 C 69.592741,37.314805 69.629675,37.143298 68.894704,34.248694 C 67.892371,30.301097 63.47842,26.198519 58.568292,24.650738 C 56.64405,24.044174 55.06967,23.31126 55.06967,23.022039 C 55.06967,21.050588 64.660562,25.943445 69.81972,30.546874 C 71.99531,32.488118 74.260074,34.076408 74.852525,34.076408 C 75.444975,34.076408 77.202976,32.846009 78.759185,31.342188 C 81.23375,28.950931 81.529194,28.809711 81.114583,30.216333 C 80.466329,32.415595 78.912436,35.463015 77.779169,36.757575 C 76.561509,38.148546 76.942202,40.756846 78.403543,41.0354 C 79.254593,41.197625 79.985421,40.270822 81.2986,37.364001 C 82.264738,35.225379 83.315425,33.466028 83.633456,33.45433 C 84.270549,33.430898 83.703896,55.987403 83.007725,58.362716 C 82.396714,60.447463 81.545381,60.180598 78.15552,56.841705 L 75.141657,53.873165 L 69.974682,58.705266 C 66.674955,61.791137 63.11886,64.382265 60.134392,65.87533 L 55.461085,68.213294 L 52.021322,74.782968 C 48.219951,82.043294 47.535513,82.996173 47.102671,81.630748 z" style="fill:#2b5170"/>
<path d="M 47.102671,81.630748 C 46.943705,81.12928 46.640652,79.928661 46.42922,78.962703 L 46.044799,77.20642 L 39.781191,77.306164 C 33.880055,77.400138 29.487885,76.61092 27.602685,75.117849 C 27.026344,74.661389 27.013198,74.117414 27.550037,72.939178 C 28.459038,70.944143 27.368198,70.034226 21.814836,68.155193 C 14.007183,65.513403 7.3375516,60.0277 4.7092752,54.086045 C 3.6386016,51.66561 3.4898709,50.32748 3.8011924,45.91602 C 4.2350495,39.768215 5.1389794,37.34728 8.4020343,33.593899 C 11.244246,30.324598 12.606181,29.992827 10.731274,33.026489 C 8.9310036,35.939389 9.0200009,36.536138 11.657513,39.237196 L 13.922915,41.557178 L 12.944205,44.331138 C 11.574044,48.214588 11.666573,48.584908 14.321892,49.84494 C 16.085283,50.681723 17.642087,50.875729 20.508087,50.615849 C 22.614476,50.424848 24.565576,50.027029 24.843864,49.731806 C 25.122152,49.436583 25.477296,48.030866 25.633073,46.60799 C 25.788851,45.185114 26.256338,43.385586 26.671933,42.609039 C 27.336488,41.367307 27.213014,41.062876 25.647478,40.083197 C 24.668432,39.470531 23.731026,38.865896 23.564353,38.739564 C 22.881568,38.222035 25.353454,37.320623 28.55095,36.921123 C 31.223261,36.58724 32.207494,36.720307 33.110569,37.537579 C 33.74399,38.110817 34.737168,38.579829 35.31763,38.579829 C 35.898093,38.579829 37.467579,39.150026 38.805375,39.846933 C 46.038573,43.614966 63.578859,43.076474 67.881492,38.954286 C 69.573923,37.332834 69.623203,37.117827 68.929033,34.383887 C 67.810229,29.977598 63.654652,26.298095 57.390137,24.166925 C 56.720271,23.939039 56.335738,23.589049 56.535617,23.38917 C 57.362695,22.562092 65.540704,27.278036 69.497346,30.8637 C 71.837593,32.98453 74.313246,34.719754 74.998789,34.719754 C 75.684332,34.719754 77.053713,33.706493 78.04186,32.468062 C 79.030008,31.229632 80.04845,30.216362 80.305074,30.216351 C 81.02005,30.216322 79.63916,33.472416 77.775483,36.181012 C 76.352788,38.248713 76.213439,38.842959 76.832628,40.201924 C 77.232235,41.078973 77.834227,41.796559 78.170375,41.796559 C 79.231439,41.796559 80.845665,39.787195 81.898545,37.155781 C 83.543903,33.04364 84.032176,35.419976 83.69974,45.921797 C 83.362801,56.565944 82.937678,59.810244 81.879863,59.810244 C 81.489094,59.810244 79.796175,58.457692 78.11782,56.804572 L 75.066263,53.798899 L 70.005647,58.633784 C 66.638587,61.85065 63.358102,64.262573 60.203056,65.840981 L 55.461085,68.213294 L 52.021322,74.782968 C 48.219951,82.043294 47.535513,82.996173 47.102671,81.630748 z M 28.692488,21.917445 C 28.692488,21.221067 35.265323,19.91591 38.610811,19.94798 L 41.237734,19.973162 L 39.307696,20.809272 C 37.00545,21.806626 28.692488,22.674457 28.692488,21.917445 z" style="fill:#96300e"/>
<path d="M 47.128313,81.684005 C 46.355162,79.259511 46.230159,77.796452 46.767776,77.464183 C 47.681966,76.899184 48.741669,80.323701 48.039581,81.574128 C 47.524322,82.491809 47.39104,82.50788 47.128313,81.684005 z M 30.622526,76.428853 C 27.596937,75.574689 27.144013,75.01234 28.157159,73.367865 C 28.923033,72.12474 28.843139,71.844595 27.405797,70.733234 C 26.521196,70.049261 24.005264,68.886195 21.814836,68.148644 C 14.020027,65.524018 7.3393646,60.031798 4.7092752,54.086045 C 3.6386016,51.66561 3.4898709,50.32748 3.8011924,45.91602 C 4.2350495,39.768215 5.1389794,37.34728 8.4020343,33.593899 C 11.244246,30.324598 12.606181,29.992827 10.731274,33.026489 C 8.9310036,35.939389 9.0200009,36.536138 11.657513,39.237196 L 13.922915,41.557178 L 12.944205,44.331138 C 11.574044,48.214588 11.666573,48.584908 14.321892,49.84494 C 16.085283,50.681723 17.642087,50.875729 20.508087,50.615849 C 22.614476,50.424848 24.565576,50.027029 24.843864,49.731806 C 25.122152,49.436583 25.477296,48.030866 25.633073,46.60799 C 25.788851,45.185114 26.256338,43.385586 26.671933,42.609039 C 27.336488,41.367307 27.213014,41.062876 25.647478,40.083197 C 24.668432,39.470531 23.731026,38.865896 23.564353,38.739564 C 22.881568,38.222035 25.353454,37.320623 28.55095,36.921123 C 31.223261,36.58724 32.207494,36.720307 33.110569,37.537579 C 33.74399,38.110817 34.737168,38.579829 35.31763,38.579829 C 35.898093,38.579829 37.467579,39.150026 38.805375,39.846933 C 46.038573,43.614966 63.578859,43.076474 67.881492,38.954286 C 69.573923,37.332834 69.623203,37.117827 68.929033,34.383887 C 67.810229,29.977598 63.654652,26.298095 57.390137,24.166925 C 56.720271,23.939039 56.335738,23.589049 56.535617,23.38917 C 57.362695,22.562092 65.540704,27.278036 69.497346,30.8637 C 71.837593,32.98453 74.313246,34.719754 74.998789,34.719754 C 75.684332,34.719754 77.053713,33.706493 78.04186,32.468062 C 79.030008,31.229632 80.04845,30.216362 80.305074,30.216351 C 81.02005,30.216322 79.63916,33.472416 77.775483,36.181012 C 76.352788,38.248713 76.213439,38.842959 76.832628,40.201924 C 77.232235,41.078973 77.834227,41.796559 78.170375,41.796559 C 79.231439,41.796559 80.845665,39.787195 81.898545,37.155781 C 83.543903,33.04364 84.032176,35.419976 83.69974,45.921797 C 83.362801,56.565944 82.937678,59.810244 81.879863,59.810244 C 81.489094,59.810244 79.796175,58.457692 78.11782,56.804572 L 75.066263,53.798899 L 69.983869,58.654584 C 66.482775,61.999515 63.376533,64.26394 60.000164,65.932632 C 57.231744,67.300862 54.932679,68.878552 54.716995,69.558112 C 54.230094,71.092202 52.094234,72.159738 46.062828,73.883603 C 43.409026,74.642101 39.896103,75.69421 38.256331,76.221631 C 34.891911,77.303778 33.824316,77.33276 30.622526,76.428853 z M 28.692488,21.906836 C 28.692488,21.372745 37.060754,19.899154 39.816485,19.94798 C 41.036292,19.969593 40.964178,20.091669 39.307696,20.809272 C 36.988074,21.814153 28.692488,22.671879 28.692488,21.906836 z" style="fill:#114973"/>
<path d="M 47.128313,81.684005 C 46.355162,79.259511 46.230159,77.796452 46.767776,77.464183 C 47.681966,76.899184 48.741669,80.323701 48.039581,81.574128 C 47.524322,82.491809 47.39104,82.50788 47.128313,81.684005 z M 30.622526,76.428853 C 27.596937,75.574689 27.144013,75.01234 28.157159,73.367865 C 28.923033,72.12474 28.843139,71.844595 27.405797,70.733234 C 26.521196,70.049261 24.005264,68.886195 21.814836,68.148644 C 14.020027,65.524018 7.3393646,60.031798 4.7092752,54.086045 C 3.6386016,51.66561 3.4898709,50.32748 3.8011924,45.91602 C 4.250558,39.548457 5.161189,37.227476 8.698849,33.433062 C 11.570012,30.353517 11.674425,30.434814 9.7367899,34.241212 L 8.50667,36.657727 L 10.606105,39.636219 C 12.481863,42.297378 12.662059,42.930976 12.297433,45.5832 C 11.917004,48.350373 12.011894,48.623006 13.696612,49.603263 C 16.746674,51.377946 19.388544,51.624419 23.269056,50.496323 C 25.859938,49.743133 26.775912,49.193047 26.525558,48.540636 C 26.319987,48.004928 26.966169,47.071125 28.102224,46.262182 C 29.45113,45.301677 29.915355,44.539002 29.653422,43.713724 C 29.332874,42.703766 29.673145,42.525578 32.041948,42.462933 C 33.561228,42.422754 35.962297,42.345836 37.377658,42.292003 C 38.793019,42.238171 43.301972,42.522241 47.397553,42.92327 C 58.701477,44.030125 66.587428,42.562377 70.078737,38.701806 C 71.053336,37.624133 71.124927,37.1555 70.494828,35.978147 C 69.890288,34.848558 69.912818,34.442032 70.604383,34.00135 C 71.083219,33.696225 71.909249,33.625519 72.44001,33.844225 C 75.300969,35.023115 76.166848,34.817988 77.993565,32.528587 C 79.008275,31.256868 80.059503,30.216362 80.329631,30.216351 C 81.085813,30.216322 78.974815,34.850621 77.506873,36.413172 C 75.621535,38.420022 76.056495,41.474886 78.227575,41.474886 C 79.487935,41.474886 80.196812,40.801994 81.522703,38.347034 C 82.451823,36.626715 83.393964,35.5136 83.616363,35.873444 C 84.091467,36.642174 83.579164,54.53941 82.992549,57.66633 C 82.771334,58.845483 82.270631,59.810244 81.879863,59.810244 C 81.489094,59.810244 79.796175,58.457692 78.11782,56.804572 L 75.066263,53.798899 L 69.983869,58.654584 C 66.482775,61.999515 63.376533,64.26394 60.000164,65.932632 C 57.231744,67.300862 54.932679,68.878552 54.716995,69.558112 C 54.230094,71.092202 52.094234,72.159738 46.062828,73.883603 C 43.409026,74.642101 39.896103,75.69421 38.256331,76.221631 C 34.891911,77.303778 33.824316,77.33276 30.622526,76.428853 z M 28.692488,21.906836 C 28.692488,21.372745 37.060754,19.899154 39.816485,19.94798 C 41.036292,19.969593 40.964178,20.091669 39.307696,20.809272 C 36.988074,21.814153 28.692488,22.671879 28.692488,21.906836 z" style="fill:#6a210b"/>
<path d="M 30.300853,70.670097 C 17.084851,67.634289 8.1375265,61.836176 4.7092752,54.086045 C 3.6386016,51.66561 3.4898709,50.32748 3.8011924,45.91602 C 4.250558,39.548457 5.161189,37.227476 8.698849,33.433062 C 11.570012,30.353517 11.674425,30.434814 9.7367899,34.241212 L 8.50667,36.657727 L 10.606105,39.636219 C 12.481863,42.297378 12.662059,42.930976 12.297433,45.5832 C 11.917004,48.350373 12.011894,48.623006 13.696612,49.603263 C 16.746674,51.377946 19.388544,51.624419 23.269056,50.496323 C 25.859938,49.743133 26.775912,49.193047 26.525558,48.540636 C 26.319987,48.004928 26.966169,47.071125 28.102224,46.262182 C 29.45113,45.301677 29.915355,44.539002 29.653422,43.713724 C 29.332874,42.703766 29.673145,42.525578 32.041948,42.462933 C 33.561228,42.422754 35.962297,42.345836 37.377658,42.292003 C 38.793019,42.238171 43.301972,42.522241 47.397553,42.92327 C 58.701477,44.030125 66.587428,42.562377 70.078737,38.701806 C 71.053336,37.624133 71.124927,37.1555 70.494828,35.978147 C 69.890288,34.848558 69.912818,34.442032 70.604383,34.00135 C 71.083219,33.696225 71.909249,33.625519 72.44001,33.844225 C 75.300969,35.023115 76.166848,34.817988 77.993565,32.528587 C 79.008275,31.256868 80.059503,30.216362 80.329631,30.216351 C 81.085813,30.216322 78.974815,34.850621 77.506873,36.413172 C 75.621535,38.420022 76.056495,41.474886 78.227575,41.474886 C 79.487935,41.474886 80.196812,40.801994 81.522703,38.347034 C 82.451823,36.626715 83.393964,35.5136 83.616363,35.873444 C 84.091467,36.642174 83.579164,54.53941 82.992549,57.66633 C 82.771334,58.845483 82.270631,59.810244 81.879863,59.810244 C 81.489094,59.810244 79.796175,58.457692 78.11782,56.804572 L 75.066263,53.798899 L 70.03793,58.602939 C 61.115507,67.127371 50.064482,71.487255 37.789098,71.325846 C 35.085924,71.290301 31.716214,70.995218 30.300853,70.670097 z M 29.174998,22.070106 C 29.617298,21.891634 30.341062,21.891634 30.783363,22.070106 C 31.225663,22.248579 30.863781,22.394601 29.97918,22.394601 C 29.09458,22.394601 28.732698,22.248579 29.174998,22.070106 z M 33.678419,21.398806 C 34.47456,21.245462 35.777335,21.245462 36.573476,21.398806 C 37.369616,21.552149 36.718229,21.677612 35.125948,21.677612 C 33.533666,21.677612 32.882279,21.552149 33.678419,21.398806 z" style="fill:#072a4f"/>
<path d="M 28.09676,70.068658 C 16.988586,67.160033 8.2436638,61.148164 5.0850291,54.248797 C 3.6184172,51.045294 3.5043925,50.22063 3.9121194,45.765934 C 4.3679532,40.785634 5.5238289,37.348081 7.2143901,35.94504 C 7.9523561,35.332583 8.0610353,35.373529 7.7624835,36.151541 C 7.5572041,36.686491 8.3028934,38.474491 9.4241752,40.135915 C 11.17952,42.736843 11.40339,43.51997 11.05786,45.850772 C 10.666316,48.491977 10.719642,48.590806 13.469813,50.320892 C 16.959182,52.515995 20.627754,52.634107 26.490354,50.740097 C 29.994933,49.607885 30.607921,49.197503 30.290131,48.196236 C 30.005523,47.299513 30.556978,46.594719 32.505796,45.364484 C 35.58363,43.421533 40.446933,43.164184 44.834213,44.712106 C 47.109361,45.514825 47.976856,45.552885 49.511283,44.917304 C 51.211965,44.212859 51.516513,44.286905 52.643681,45.678899 C 53.781534,47.084086 54.299126,47.204193 58.481112,47.033458 C 63.613066,46.823941 64.168679,46.645387 63.67686,45.363728 C 63.441383,44.750094 64.677977,43.846337 67.609917,42.489275 C 72.547777,40.203763 72.347844,40.240106 73.676044,41.386578 C 74.916673,42.457466 78.346285,43.16333 79.336208,42.551524 C 79.734311,42.305484 80.805932,40.804566 81.717592,39.216149 L 83.375153,36.328119 L 83.197937,47.410916 C 82.982551,60.880756 82.63932,61.605448 78.620319,57.076024 C 77.128978,55.395283 75.629474,54.020131 75.288083,54.020131 C 74.946685,54.020131 72.646305,55.974294 70.176121,58.362716 C 58.888795,69.276436 42.491669,73.837906 28.09676,70.068658 z M 56.032956,45.653831 C 55.566905,44.899744 57.215551,44.120217 58.4243,44.523133 C 58.957204,44.700768 58.751361,45.063487 57.841221,45.550579 C 56.913868,46.046883 56.297623,46.082071 56.032956,45.653831 z M 75.656739,35.2938 C 76.54134,34.946702 77.796862,34.024159 78.446789,33.243705 C 79.09671,32.463251 79.414561,32.258956 79.153112,32.789716 C 78.184857,34.755368 76.706274,36.005304 75.396191,35.965667 C 74.187421,35.929094 74.2143,35.859782 75.656739,35.2938 z" style="fill:#021c43"/>
<path d="M 30.33167,70.665542 C 21.946046,68.700924 14.768994,65.212593 10.176768,60.869456 C 4.3214135,55.331706 2.9347541,51.151001 4.3841211,43.404924 C 4.9789967,40.225637 5.5080888,38.901502 6.1835782,38.901502 C 6.7098307,38.901502 7.2350563,39.569248 7.350746,40.385381 C 7.4664363,41.201514 8.2625769,42.188878 9.1199472,42.579522 C 10.775115,43.333667 11.055264,44.394455 10.080347,46.216103 C 9.3198966,47.637018 9.7135895,48.205131 13.187877,50.700382 C 15.620816,52.447731 16.567099,52.733439 19.9215,52.733439 C 22.068083,52.733439 24.992078,52.322426 26.419269,51.820076 C 33.736655,49.244469 36.460788,48.727946 43.811117,48.522412 C 50.533545,48.334435 65.733109,47.491494 66.649897,47.255813 C 66.826817,47.210332 68.998109,46.941501 71.474991,46.658411 C 73.951873,46.375322 76.289779,45.895833 76.670344,45.592881 C 77.050908,45.289928 78.643189,45.265728 80.208746,45.539101 L 83.055217,46.036144 L 82.905266,52.39763 C 82.822795,55.896447 82.464626,59.049811 82.109331,59.405105 C 81.676913,59.837524 80.548053,59.054154 78.694831,57.035612 C 77.172147,55.377097 75.586138,54.020131 75.17037,54.020131 C 74.754595,54.020131 72.448766,55.974294 70.046306,58.362716 C 64.234847,64.140218 55.300763,69.000897 47.919311,70.401133 C 42.218903,71.482482 34.325186,71.601153 30.33167,70.665542 z M 37.82752,46.908452 C 34.860877,46.266767 34.714642,45.876992 37.261296,45.399237 C 39.516582,44.976143 41.559407,45.404252 41.559407,46.29998 C 41.559407,47.147761 40.062366,47.391848 37.82752,46.908452 z M 71.314154,44.584391 C 69.942001,44.035529 70.431098,42.982558 71.9575,43.199342 C 72.753641,43.312412 73.332652,43.694429 73.244192,44.048269 C 73.048737,44.830089 72.387551,45.013751 71.314154,44.584391 z M 81.446852,41.276176 C 81.446852,40.989965 81.871905,40.193824 82.391413,39.506974 C 83.29615,38.310805 83.336829,38.332745 83.356432,40.027358 C 83.369762,41.180177 83.040684,41.796559 82.411871,41.796559 C 81.881111,41.796559 81.446852,41.562386 81.446852,41.276176 z" style="fill:#010e2e"/>
<path d="M 31.376044,70.929802 C 28.590169,70.399016 18.468176,66.406534 15.503349,64.66903 C 11.285168,62.197011 8.302465,59.410578 6.4005717,56.165244 C 3.5432828,51.289649 3.3571101,49.19103 5.2514395,43.211769 C 5.6646728,41.907441 8.4270927,44.811 8.4270927,46.549674 C 8.4270927,48.8794 13.875024,53.198395 17.499266,53.741883 C 21.751922,54.379608 26.947198,53.690825 32.874237,51.703488 C 37.509166,50.149395 39.33259,49.931133 51.209595,49.508762 C 58.46332,49.250805 67.757166,48.525949 71.862581,47.897971 C 75.968003,47.269993 80.122641,46.95589 81.095109,47.199964 L 82.863236,47.643737 L 82.63755,53.030398 C 82.51343,55.993062 82.165881,58.65815 81.86522,58.952816 C 81.564565,59.247481 80.222456,58.258172 78.882752,56.754351 C 77.543055,55.25053 75.940892,54.020131 75.322392,54.020131 C 74.703886,54.020131 72.071591,56.039859 69.472847,58.508417 C 66.478773,61.352496 63.034048,63.853295 60.069594,65.33499 C 57.496557,66.621051 54.957085,68.052052 54.426324,68.514991 C 52.198632,70.458024 37.165822,72.032909 31.376044,70.929802 z" style="fill:#000218"/>
<path d="M 31.587545,70.947205 C 28.185507,70.16985 17.723858,65.800103 14.860552,63.960479 C 8.6411338,59.96461 4.2453443,54.125164 4.2453443,49.859046 C 4.2453443,48.816716 4.6044047,48.230018 5.2423117,48.230018 C 6.843902,48.230018 9.9389034,50.064232 10.682831,51.454274 C 11.059866,52.15877 12.800274,53.460787 14.550406,54.347645 C 16.300538,55.234504 18.200092,56.673807 18.771638,57.546096 C 19.438983,58.564593 20.651656,59.269971 22.160776,59.517459 C 23.453256,59.72942 25.089751,60.166487 25.797432,60.488719 C 28.588086,61.759402 33.488858,62.377783 41.048049,62.413048 C 54.543049,62.476004 62.789821,61.471742 62.789821,59.765414 C 62.789821,59.441799 63.777203,58.668111 64.98401,58.046106 C 66.190811,57.4241 69.223467,55.506316 71.723239,53.784362 C 76.538754,50.467226 78.230123,50.272419 78.230123,53.034921 C 78.230123,54.676454 77.357675,55.210874 76.621758,54.020131 C 75.72698,52.572352 73.901074,53.613466 69.544799,58.055336 C 66.285448,61.378736 63.664315,63.360709 60.495547,64.897939 C 58.042076,66.088174 55.455678,67.579373 54.747997,68.211717 C 52.304917,70.394732 37.053255,72.196107 31.587545,70.947205 z M 40.947407,67.113043 C 42.234429,65.826017 38.224232,64.894169 32.245582,65.090994 C 26.402424,65.283368 24.409609,66.280367 27.512754,67.458829 C 29.554937,68.23437 40.097423,67.963026 40.947407,67.113043 z" style="fill:#010106"/>
</svg>
