<?xml version="1.0" encoding="UTF-8" standalone="no"?>
<!DOCTYPE svg PUBLIC "-//W3C//DTD SVG 1.1 Tiny//EN" "http://www.w3.org/Graphics/SVG/1.1/DTD/svg11-tiny.dtd">
<svg xmlns="http://www.w3.org/2000/svg" baseProfile="tiny" height="142pt" version="1.1" viewBox="0 0 150 142" width="150pt">
<defs/>
<path d=" M 55.6 15.6 C 57.7 12.7 59.8 9.6 63.0 7.9 C 62.9 8.2 62.6 9.0 62.5 9.4 C 59.8 13.0 56.3 16.2 54.1 20.2 C 51.6 24.3 50.7 29.1 49.5 33.7 C 49.1 33.8 48.3 34.0 47.8 34.1 C 48.9 27.4 51.9 21.2 55.6 15.6 Z" fill="#020314" stroke="#020314" stroke-width="0.09375"/>
<path d=" M 54.1 20.2 C 56.3 16.2 59.8 13.0 62.5 9.4 C 63.6 12.2 64.0 15.2 64.3 18.1 C 70.3 18.6 76.6 17.3 82.2 19.8 C 80.1 20.0 78.0 20.2 75.9 20.3 C 83.8 21.4 91.1 24.5 98.0 28.3 C 97.0 30.4 96.1 32.5 95.1 34.6 C 88.6 35.6 82.3 32.9 75.9 32.1 C 67.1 30.7 58.2 32.2 49.5 33.7 C 50.7 29.1 51.6 24.3 54.1 20.2 Z" fill="#da6134" stroke="#da6134" stroke-width="0.09375"/>
<path d=" M 49.5 33.7 C 58.2 32.2 67.1 30.7 75.9 32.1 C 82.3 32.9 88.6 35.6 95.1 34.6 C 96.9 34.3 98.6 35.2 100.2 35.8 C 106.4 38.6 112.2 42.1 117.0 46.9 C 119.3 49.1 121.5 51.3 124.0 53.3 C 128.5 49.6 131.0 43.4 136.9 41.6 C 138.2 44.2 138.8 47.0 138.7 49.9 C 138.7 55.6 139.5 61.2 138.7 66.8 C 138.4 68.4 138.1 69.9 137.8 71.5 C 132.9 71.3 127.9 71.2 123.1 72.2 C 109.9 74.7 96.4 75.1 83.0 75.9 C 75.2 76.5 67.1 75.2 59.5 77.5 C 51.8 79.3 44.5 83.8 36.4 82.8 C 30.5 82.5 26.5 77.7 22.0 74.6 C 22.2 72.9 22.4 71.1 22.6 69.4 C 20.7 67.0 18.3 64.9 17.0 62.1 C 16.5 59.6 17.0 57.0 17.3 54.6 C 18.6 51.4 21.4 49.1 23.8 46.8 C 30.7 40.9 38.9 36.2 47.8 34.1 C 48.3 34.0 49.1 33.8 49.5 33.7 Z" fill="#05254b" stroke="#05254b" stroke-width="0.09375"/>
<path d=" M 54.4 36.3 C 69.3 33.8 85.1 34.4 99.3 39.7 C 103.6 41.4 107.6 43.9 110.7 47.3 C 112.9 49.6 113.2 52.8 114.1 55.7 C 111.8 58.6 109.3 61.7 105.3 62.2 C 96.4 63.8 86.8 64.9 77.9 62.0 C 72.2 60.2 71.3 53.4 67.6 49.4 C 66.8 48.3 65.3 48.3 64.0 48.1 C 55.1 47.2 46.0 47.5 37.2 49.2 C 33.4 49.8 29.5 51.2 25.7 49.9 C 32.6 41.2 43.9 38.2 54.4 36.3 Z" fill="#6fc2e7" stroke="#6fc2e7" stroke-width="0.09375"/>
<path d=" M 131.9 53.0 C 133.6 49.7 134.3 45.9 137.2 43.5 C 136.8 51.0 133.9 58.4 129.1 64.3 C 128.6 62.9 127.9 61.6 127.7 60.1 C 129.0 57.6 130.8 55.5 131.9 53.0 Z" fill="#fefffe" stroke="#fefffe" stroke-width="0.09375"/>
<path d=" M 37.2 49.2 C 46.0 47.5 55.1 47.2 64.0 48.1 C 65.3 48.3 66.8 48.3 67.6 49.4 C 71.3 53.4 72.2 60.2 77.9 62.0 C 86.8 64.9 96.4 63.8 105.3 62.2 C 109.3 61.7 111.8 58.6 114.1 55.7 L 114.5 55.1 C 115.0 55.6 116.0 56.6 116.5 57.1 C 114.7 59.1 113.0 61.4 110.4 62.5 C 102.5 66.0 93.6 67.2 85.1 66.0 C 79.7 65.2 74.3 65.1 69.0 64.8 C 65.5 64.7 62.6 62.7 59.2 62.3 C 55.8 62.7 51.7 63.6 50.1 67.0 C 48.2 70.3 47.2 74.0 47.4 77.7 C 43.2 77.7 38.9 78.1 34.7 78.3 C 33.1 78.6 31.9 77.3 30.7 76.6 C 33.9 76.8 37.1 76.7 40.2 76.7 C 40.8 73.6 41.3 70.4 41.8 67.3 C 38.8 66.8 35.2 65.4 32.7 67.7 C 30.3 69.9 29.3 73.1 28.1 76.0 C 27.5 75.9 26.3 75.7 25.7 75.5 C 26.4 72.8 27.4 70.0 27.2 67.1 C 26.2 63.8 23.2 61.4 22.6 57.9 C 22.1 55.0 23.7 52.3 24.9 49.8 L 25.7 49.9 C 29.5 51.2 33.4 49.8 37.2 49.2 Z" fill="#226293" stroke="#226293" stroke-width="0.09375"/>
<path d=" M 88.4 47.1 C 94.3 46.4 101.1 48.2 105.1 52.9 C 106.7 54.8 104.9 57.2 103.1 58.2 C 96.9 62.0 88.8 60.8 82.6 57.6 C 80.0 56.4 79.0 53.6 78.7 51.0 C 80.8 47.9 85.0 47.8 88.4 47.1 Z" fill="#fefffe" stroke="#fefffe" stroke-width="0.09375"/>
<path d=" M 13.5 60.6 C 14.4 58.4 15.9 56.4 17.3 54.6 C 17.0 57.0 16.5 59.6 17.0 62.1 C 18.3 64.9 20.7 67.0 22.6 69.4 C 22.4 71.1 22.2 72.9 22.0 74.6 C 26.5 77.7 30.5 82.5 36.4 82.8 C 44.5 83.8 51.8 79.3 59.5 77.5 C 67.1 75.2 75.2 76.5 83.0 75.9 C 96.4 75.1 109.9 74.7 123.1 72.2 C 127.9 71.2 132.9 71.3 137.8 71.5 C 138.1 69.9 138.4 68.4 138.7 66.8 C 138.7 76.1 138.9 85.7 136.0 94.7 C 130.5 94.1 128.1 88.3 124.6 84.8 C 121.2 86.9 118.9 90.3 116.1 93.1 C 109.8 99.2 102.0 103.6 93.8 106.8 C 80.4 111.5 65.7 112.2 51.7 110.0 C 50.1 109.7 48.6 109.4 47.2 109.0 C 35.0 105.6 22.8 99.2 15.7 88.3 C 10.5 80.1 10.8 69.7 13.5 60.6 Z" fill="#020314" stroke="#020314" stroke-width="0.09375"/>
<path d=" M 32.7 67.7 C 35.2 65.4 38.8 66.8 41.8 67.3 C 41.3 70.4 40.8 73.6 40.2 76.7 C 37.1 76.7 33.9 76.8 30.7 76.6 C 29.8 76.4 28.9 76.2 28.1 76.0 C 29.3 73.1 30.3 69.9 32.7 67.7 Z" fill="#6fc2e7" stroke="#6fc2e7" stroke-width="0.09375"/>
<path d=" M 51.7 110.0 C 65.7 112.2 80.4 111.5 93.8 106.8 C 92.2 114.7 88.4 122.2 83.0 128.2 C 82.1 124.8 81.1 121.1 77.9 119.2 C 78.1 120.1 78.4 121.1 78.6 122.1 C 72.5 122.0 66.3 122.9 60.3 121.6 C 55.7 120.8 51.4 118.8 47.0 117.1 C 48.6 114.8 50.1 112.4 51.7 110.0 Z" fill="#812507" stroke="#812507" stroke-width="0.09375"/>
<path d=" M 47.2 109.0 C 48.6 109.4 50.1 109.7 51.7 110.0 C 50.1 112.4 48.6 114.8 47.0 117.1 C 43.9 115.0 45.9 111.5 47.2 109.0 Z" fill="#da6134" stroke="#da6134" stroke-width="0.09375"/>
<path d=" M 77.9 119.2 C 81.1 121.1 82.1 124.8 83.0 128.2 C 82.6 128.6 82.0 129.4 81.7 129.8 C 81.2 129.7 80.3 129.5 79.8 129.4 C 79.5 126.9 79.1 124.5 78.6 122.1 C 78.4 121.1 78.1 120.1 77.9 119.2 Z" fill="#020314" stroke="#020314" stroke-width="0.09375"/>
</svg>
