<?xml version="1.0" encoding="UTF-8" standalone="no"?>
<!DOCTYPE svg PUBLIC "-//W3C//DTD SVG 1.1 Tiny//EN" "http://www.w3.org/Graphics/SVG/1.1/DTD/svg11-tiny.dtd">
<svg xmlns="http://www.w3.org/2000/svg" baseProfile="tiny" height="100%" viewBox="0 0 88 87.999" width="100%">
<defs/>
<rect height="18.32884" style="fill:#ffffff;fill-opacity:1" width="22.371967" x="40.700809" y="27.3521"/>
<g transform="matrix(0.6433459,0,0,0.6433459,-4.7614983,-2.0924666e-2)">
<path d="M 78.385086,129.25 C 76.581756,123.53441 76.752303,123.63927 69.67679,123.89578 C 62.596449,124.15246 54.401731,122.26592 47.662304,118.82772 C 44.074281,116.99725 43.807176,116.57566 44.30232,113.52445 C 44.83086,110.26744 44.740025,110.17319 39.085124,108.11131 C 21.141517,101.56874 9.875,88.216839 9.875,73.494509 C 9.875,60.983062 13.935539,52.859449 24.633949,43.967396 C 29.468416,39.949197 42.092001,33 44.556805,33 C 45.265255,33 46.390691,31.3125 47.057774,29.25 C 50.081962,19.899755 58.700994,7 61.924215,7 C 63.354402,7 63.983329,8.0965122 64.648675,11.75 L 65.513709,16.5 L 73.506855,17.147947 C 82.371085,17.866506 88.143162,19.66564 94.737596,23.765488 C 98.71234,26.236639 99.088837,26.803524 98.646821,29.65154 C 98.177815,32.673454 98.422744,32.933562 104.60166,35.975433 C 108.14584,37.720228 113.68301,41.589535 116.90647,44.573894 C 120.12993,47.558252 123.17664,50 123.67693,50 C 124.17721,50 126.71012,47.75 129.30562,45 C 131.90111,42.25 134.662,40 135.44092,40 C 137.72505,40 139.87022,42.791287 140.60785,46.723188 C 141.69505,52.518446 140.32054,86.966395 138.82121,91.5 C 136.91302,97.269911 133.9905,97.388513 128.4206,91.922077 L 124.09048,87.672387 L 117.23288,94.141504 C 113.15956,97.98407 107.27378,102.20721 102.7364,104.54296 C 97.029494,107.48075 94.939077,109.1107 94.47103,110.98765 C 93.494109,114.90527 89.24175,122.90696 85.88311,127.14759 C 82.654491,131.22405 79.304305,132.16343 78.385086,129.25 z M 101.31033,56.791677 C 106.16889,54.304818 98.938634,49.004218 90.684259,49.001554 C 82.843664,48.999024 79.851097,51.745294 83.800119,55.31911 C 87.346239,58.528305 96.425726,59.291868 101.31033,56.791677 z" style="fill:#d3f0f6"/>
<path d="M 78.079996,127.3123 L 77.049351,123.5 L 67.774676,123.38835 C 60.70907,123.30329 57.189994,122.74855 53,121.05933 C 45.525728,118.04602 43.697711,116.26144 44.41444,112.6778 C 44.877033,110.36483 44.592889,109.7063 42.946536,109.27577 C 41.823691,108.98214 37.759434,107.23442 33.914854,105.39196 C 25.562375,101.38914 16.789888,93.412136 13.141195,86.502039 C 10.836394,82.137081 10.505878,80.352043 10.546149,72.486825 C 10.604537,61.08328 12.856844,55.975934 21.664252,47.27534 C 26.370632,42.626038 30.339493,39.911193 37.346287,36.548259 C 46.599748,32.107029 46.745179,31.981782 48.046812,27.332803 C 49.539044,22.003075 58.135102,8.5458701 60.668268,7.5738032 C 62.90095,6.7170426 63.777595,7.7764132 64.759066,12.517274 L 65.583584,16.5 L 73.541792,17.147947 C 82.375135,17.867146 88.153114,19.671248 94.735721,23.765488 C 98.860926,26.331276 99.098499,26.719108 98.586087,30.051089 C 98.047957,33.550299 98.123691,33.64069 103.76999,36.238337 C 106.9215,37.688225 112.79915,41.65539 116.83145,45.054259 L 124.16291,51.234021 L 128.89186,46.117011 C 131.64805,43.134654 134.48364,41 135.68909,41 C 139.61634,41 140.2498,45.22062 139.85741,68.772628 C 139.54425,87.56878 139.24817,90.972295 137.72384,93.298717 C 135.23261,97.100812 133.28057,96.688105 128.26115,91.298091 L 123.88253,86.596181 L 119.91309,91.240024 C 115.82178,96.02645 105.16616,103.67559 99,106.2525 C 96.147365,107.44464 95.17279,108.65485 93.73093,112.7955 C 91.232344,119.9708 84.02191,130.42573 81.30532,130.8123 C 79.511587,131.06755 78.922352,130.42813 78.079996,127.3123 z M 101.80992,58.916419 C 105.3848,57.670206 106.77008,54.634992 104.83262,52.293534 C 100.82121,47.44568 89.458288,45.632461 81.940357,48.640541 C 78.552258,49.99619 77.938571,50.647405 78.406466,52.390541 C 78.71789,53.550743 78.978835,54.859501 78.986345,55.298892 C 78.993855,55.738283 80.9125,56.9659 83.25,58.02693 C 88.01487,60.189784 96.931318,60.617107 101.80992,58.916419 z" style="fill:#d0d0d0"/>
<path d="M 79.035184,128.06574 C 78.465833,127.0019 78,125.4269 78,124.56574 C 78,123.2671 76.544592,123 69.468455,123 C 63.473942,123 59.087722,122.37972 54.718455,120.91411 C 46.884853,118.28644 44.80085,116.47658 45.196015,112.6443 C 45.482183,109.86907 45.112989,109.53947 38.89711,107.02098 C 31.098331,103.86115 27.205552,101.31441 20.669226,95.095892 C 12.900111,87.704528 11.498763,84.248495 11.507073,72.5 C 11.513584,63.294343 11.749757,62.073591 14.480266,57.131925 C 19.504064,48.039873 31.057158,39.08281 44.15198,34.127576 C 45.953176,33.445983 47.200303,31.901099 48.039401,29.312018 C 49.917939,23.515693 54.505401,14.899894 57.748883,11.076458 C 61.419183,6.7498854 63.717546,7.3814335 64.609871,12.961732 C 65.230595,16.843522 65.40037,17 68.991319,17 C 75.358718,17 83.095663,18.887153 90.252307,22.185864 C 97.838154,25.682407 99.696588,27.829896 97.954163,31.085646 C 97.340251,32.232752 96.986919,33.292076 97.16898,33.439699 C 97.351041,33.587323 100.72651,35.385611 104.67003,37.435896 C 108.61354,39.486181 114.54109,43.607982 117.84235,46.595456 L 123.84465,52.027225 L 129.29001,46.494225 C 135.45505,40.229969 137.37846,40.101926 138.97489,45.849493 C 141.14207,53.651893 139.56789,90.405887 136.93042,93.583839 C 134.92938,95.99495 132.29749,95.165477 128.732,91 C 126.84888,88.8 124.90131,87.000715 124.40407,87.001589 C 123.90683,87.002463 120.4265,89.901853 116.66999,93.444678 C 112.68237,97.205475 106.75234,101.47047 102.42064,103.69309 C 96.129522,106.9211 94.832739,108.03223 93.892861,111 C 92.450111,115.55564 87.336177,124.8865 84.712742,127.75 C 82.18396,130.51018 80.396606,130.60958 79.035184,128.06574 z M 101.80992,58.916419 C 105.3848,57.670206 106.77008,54.634992 104.83262,52.293534 C 100.82121,47.44568 89.458288,45.632461 81.940357,48.640541 C 78.552258,49.99619 77.938571,50.647405 78.406466,52.390541 C 78.71789,53.550743 78.978835,54.859501 78.986345,55.298892 C 78.993855,55.738283 80.9125,56.9659 83.25,58.02693 C 88.01487,60.189784 96.931318,60.617107 101.80992,58.916419 z" style="fill:#99d8ee"/>
<path d="M 79.035184,128.06574 C 78.465833,127.0019 78,125.4269 78,124.56574 C 78,123.2671 76.544592,123 69.468455,123 C 63.473942,123 59.087722,122.37972 54.718455,120.91411 C 46.884853,118.28644 44.80085,116.47658 45.196015,112.6443 C 45.482183,109.86907 45.112989,109.53947 38.89711,107.02098 C 31.098331,103.86115 27.205552,101.31441 20.669226,95.095892 C 12.900111,87.704528 11.498763,84.248495 11.507073,72.5 C 11.513584,63.294343 11.749757,62.073591 14.480266,57.131925 C 19.504064,48.039873 31.057158,39.08281 44.15198,34.127576 C 45.953176,33.445983 47.200303,31.901099 48.039401,29.312018 C 49.917939,23.515693 54.505401,14.899894 57.748883,11.076458 C 61.419183,6.7498854 63.717546,7.3814335 64.609871,12.961732 C 65.230595,16.843522 65.40037,17 68.991319,17 C 75.358718,17 83.095663,18.887153 90.252307,22.185864 C 97.838154,25.682407 99.696588,27.829896 97.954163,31.085646 C 97.340251,32.232752 96.986919,33.292076 97.16898,33.439699 C 97.351041,33.587323 100.72651,35.385611 104.67003,37.435896 C 108.61354,39.486181 114.54109,43.607982 117.84235,46.595456 L 123.84465,52.027225 L 129.29001,46.494225 C 135.45505,40.229969 137.37846,40.101926 138.97489,45.849493 C 141.14207,53.651893 139.56789,90.405887 136.93042,93.583839 C 134.92938,95.99495 132.29749,95.165477 128.732,91 C 126.84888,88.8 124.90131,87.000715 124.40407,87.001589 C 123.90683,87.002463 120.4265,89.901853 116.66999,93.444678 C 112.68237,97.205475 106.75234,101.47047 102.42064,103.69309 C 96.129522,106.9211 94.832739,108.03223 93.892861,111 C 92.450111,115.55564 87.336177,124.8865 84.712742,127.75 C 82.18396,130.51018 80.396606,130.60958 79.035184,128.06574 z M 105,59.120633 C 108.84986,56.315955 108.66409,53.693007 104.36458,50.148989 C 97.825326,44.758782 87.28518,43.80708 79,47.858745 C 76.015949,49.318022 75.54575,50.007393 75.810353,52.535167 C 76.223645,56.483395 78.478142,58.526897 84.5,60.411565 C 90.839724,62.395716 101.41889,61.729522 105,59.120633 z M 131.83948,58.452947 C 133.52661,54.750117 133.26912,54.388158 131,57.272871 C 128.83297,60.027801 128.53026,61 129.83948,61 C 130.3012,61 131.2012,59.853826 131.83948,58.452947 z M 81,38.940669 C 85.599825,38.884265 86.101915,38.714172 84.06773,37.901412 C 78.195408,35.55512 55.384799,36.359643 51.165459,39.061864 C 49.961393,39.832993 53.101475,39.973294 62.5,39.568298 C 69.65,39.260195 77.975,38.977762 81,38.940669 z" style="fill:#e2c6b6"/>
<path d="M 79.11883,127.75 C 78.661413,126.5125 78.097601,124.90015 77.865915,124.167 C 77.561803,123.20467 74.810705,122.76313 67.972333,122.57913 C 61.068193,122.39336 56.965728,121.72781 52.841105,120.12437 C 46.115275,117.5097 44.555008,115.90913 45.410258,112.50154 C 45.938101,110.39844 45.581201,109.79005 43.271926,108.85639 C 29.102788,103.12771 18.110886,94.852506 13.684378,86.581532 C 11.854366,83.162136 11.501147,80.877726 11.507073,72.5 C 11.513584,63.294343 11.749757,62.073591 14.480266,57.131925 C 18.507948,49.84264 27.498517,41.962489 36.814999,37.555736 C 41.04175,35.556458 45.097046,33.60103 45.82677,33.210342 C 46.556493,32.819654 47.989653,30.125589 49.011569,27.223531 C 51.920245,18.963415 60.033853,7.2848541 62.01373,8.5084857 C 62.460465,8.7845829 63.134978,10.839455 63.512649,13.074869 C 64.287511,17.661238 63.828491,17.416978 74.181794,18.752284 C 79.459382,19.432956 84.412233,20.939042 90.00689,23.564453 C 97.966254,27.299553 98.137331,27.454921 97.580814,30.442935 C 97.031515,33.39219 97.270656,33.633096 104.36189,37.274058 C 108.40464,39.34979 114.44211,43.518415 117.7785,46.53767 L 123.84465,52.027225 L 129.29001,46.494225 C 135.45505,40.229969 137.37846,40.101926 138.97489,45.849493 C 141.14207,53.651893 139.56789,90.405887 136.93042,93.583839 C 134.92938,95.99495 132.29749,95.165477 128.732,91 C 126.84888,88.8 124.90131,87.000715 124.40407,87.001589 C 123.90683,87.002463 120.44024,89.888901 116.70052,93.415895 C 112.74436,97.147029 106.68095,101.50579 102.20052,103.8394 C 94.965582,107.6077 94.394109,108.15026 92.748609,112.81323 C 90.549827,119.04406 83.310729,130 81.392508,130 C 80.599403,130 79.576248,128.9875 79.11883,127.75 z M 105,59.120633 C 108.84986,56.315955 108.66409,53.693007 104.36458,50.148989 C 97.825326,44.758782 87.28518,43.80708 79,47.858745 C 76.015949,49.318022 75.54575,50.007393 75.810353,52.535167 C 76.223645,56.483395 78.478142,58.526897 84.5,60.411565 C 90.839724,62.395716 101.41889,61.729522 105,59.120633 z M 131.83948,58.452947 C 133.52661,54.750117 133.26912,54.388158 131,57.272871 C 128.83297,60.027801 128.53026,61 129.83948,61 C 130.3012,61 131.2012,59.853826 131.83948,58.452947 z M 81,38.940669 C 85.599825,38.884265 86.101915,38.714172 84.06773,37.901412 C 78.195408,35.55512 55.384799,36.359643 51.165459,39.061864 C 49.961393,39.832993 53.101475,39.973294 62.5,39.568298 C 69.65,39.260195 77.975,38.977762 81,38.940669 z" style="fill:#71cbf0"/>
<path d="M 79.11883,127.75 C 78.661413,126.5125 78.097601,124.90015 77.865915,124.167 C 77.561803,123.20467 74.810705,122.76313 67.972333,122.57913 C 61.068193,122.39336 56.965728,121.72781 52.841105,120.12437 C 46.115275,117.5097 44.555008,115.90913 45.410258,112.50154 C 45.938101,110.39844 45.581201,109.79005 43.271926,108.85639 C 29.102788,103.12771 18.110886,94.852506 13.684378,86.581532 C 11.854366,83.162136 11.501147,80.877726 11.507073,72.5 C 11.513584,63.294343 11.749757,62.073591 14.480266,57.131925 C 18.507948,49.84264 27.498517,41.962489 36.814999,37.555736 C 41.04175,35.556458 45.097046,33.60103 45.82677,33.210342 C 46.556493,32.819654 47.989653,30.125589 49.011569,27.223531 C 51.920245,18.963415 60.033853,7.2848541 62.01373,8.5084857 C 62.460465,8.7845829 63.134978,10.839455 63.512649,13.074869 C 64.287511,17.661238 63.828491,17.416978 74.181794,18.752284 C 79.459382,19.432956 84.412233,20.939042 90.00689,23.564453 C 97.966254,27.299553 98.137331,27.454921 97.580814,30.442935 C 97.031515,33.39219 97.270656,33.633096 104.36189,37.274058 C 108.40464,39.34979 114.44211,43.518415 117.7785,46.53767 L 123.84465,52.027225 L 129.29001,46.494225 C 135.45505,40.229969 137.37846,40.101926 138.97489,45.849493 C 141.14207,53.651893 139.56789,90.405887 136.93042,93.583839 C 134.92938,95.99495 132.29749,95.165477 128.732,91 C 126.84888,88.8 124.90131,87.000715 124.40407,87.001589 C 123.90683,87.002463 120.44024,89.888901 116.70052,93.415895 C 112.74436,97.147029 106.68095,101.50579 102.20052,103.8394 C 94.965582,107.6077 94.394109,108.15026 92.748609,112.81323 C 90.549827,119.04406 83.310729,130 81.392508,130 C 80.599403,130 79.576248,128.9875 79.11883,127.75 z M 103.92511,60.248446 C 105.80892,59.286801 107.81314,57.741795 108.37893,56.815101 C 109.9613,54.223377 107.24012,50.089672 101.66008,46.608605 C 97.720459,44.150899 97.158265,43.470655 98.637777,42.95167 C 100.35503,42.349291 100.34619,42.255703 98.477696,41.25674 C 97.389963,40.6752 93.8,39.378326 90.5,38.374798 C 81.9569,35.776847 59.275579,35.786873 49.5,38.392922 C 42.976421,40.132027 32.362304,44.721927 33.150566,45.462965 C 33.342755,45.64364 37.775,45.428087 43,44.983959 C 61.087072,43.446548 76.480367,43.001906 78,43.972968 C 79.241764,44.766469 78.911636,45.423141 76.082409,47.787338 L 72.664818,50.643192 L 74.582409,54.562973 C 76.068016,57.599729 77.513734,58.866676 81,60.186994 C 87.179452,62.527274 99.396855,62.560024 103.92511,60.248446 z M 131.83948,58.452947 C 133.52661,54.750117 133.26912,54.388158 131,57.272871 C 128.83297,60.027801 128.53026,61 129.83948,61 C 130.3012,61 131.2012,59.853826 131.83948,58.452947 z" style="fill:#a3b9c7"/>
<path d="M 79.11883,127.75 C 78.661413,126.5125 78.097601,124.90015 77.865915,124.167 C 77.561803,123.20467 74.810705,122.76313 67.972333,122.57913 C 61.068193,122.39336 56.965728,121.72781 52.841105,120.12437 C 46.132068,117.51623 44.555747,115.90618 45.40367,112.52779 C 45.990626,110.18917 45.41999,109.74423 36.46966,105.56172 C 20.209309,97.963213 11,86.716872 11,74.458351 C 11,66.463367 12.924896,59.653331 16.765104,54.062147 C 21.108153,47.738849 31.119264,39.99567 39,36.864379 C 45.235503,34.386797 48,32.35139 48,30.23798 C 48,25.559618 59.842267,7.1664479 61.996989,8.4981392 C 62.452931,8.779927 63.134978,10.839455 63.512649,13.074869 C 64.287511,17.661238 63.828491,17.416978 74.181794,18.752284 C 79.459382,19.432956 84.412233,20.939042 90.00689,23.564453 C 98.101202,27.36288 98.14654,27.405336 97.543161,30.621625 C 96.948963,33.78897 97.088554,33.937478 104.14565,37.64588 C 108.11089,39.729554 113.92291,43.811643 117.06125,46.717189 C 120.19958,49.622735 123.17408,52 123.67125,52 C 124.16841,52 126.79135,49.75 129.5,47 C 132.20865,44.25 135.00423,42 135.71241,42 C 137.25598,42 137.44251,45.608479 135.94673,46.532923 C 135.36743,46.890949 133.84267,49.559899 132.55837,52.463923 C 131.27408,55.367947 129.72305,58.053131 129.11164,58.431 C 127.5325,59.406968 127.73187,62 129.38606,62 C 130.85864,62 133.64124,56.871486 135.42284,50.873822 C 137.7406,43.071225 138.49998,47.553593 138.49369,69 C 138.48718,91.174427 137.87843,95 134.35639,95 C 133.49111,95 130.84003,92.883679 128.46511,90.297064 L 124.14707,85.594127 L 116.30896,93.047064 C 111.5775,97.546022 105.76753,101.88723 101.65032,104 C 95.189226,107.31555 94.70425,107.81322 92.447935,113.44336 C 89.568746,120.62774 83.288475,130 81.353472,130 C 80.581836,130 79.576248,128.9875 79.11883,127.75 z M 103.92511,60.248446 C 105.80892,59.286801 107.81314,57.741795 108.37893,56.815101 C 109.9613,54.223377 107.24012,50.089672 101.66008,46.608605 C 97.720459,44.150899 97.158265,43.470655 98.637777,42.95167 C 100.35503,42.349291 100.34619,42.255703 98.477696,41.25674 C 97.389963,40.6752 93.8,39.378326 90.5,38.374798 C 81.9569,35.776847 59.275579,35.786873 49.5,38.392922 C 42.976421,40.132027 32.362304,44.721927 33.150566,45.462965 C 33.342755,45.64364 37.775,45.428087 43,44.983959 C 61.087072,43.446548 76.480367,43.001906 78,43.972968 C 79.241764,44.766469 78.911636,45.423141 76.082409,47.787338 L 72.664818,50.643192 L 74.582409,54.562973 C 76.068016,57.599729 77.513734,58.866676 81,60.186994 C 87.179452,62.527274 99.396855,62.560024 103.92511,60.248446 z" style="fill:#d6af9d"/>
<path d="M 79.676614,129.25 C 79.433833,128.8375 78.932266,127.08642 78.562021,125.35872 L 77.888848,122.21744 L 67.194424,121.84418 C 58.287433,121.53331 55.664315,121.05551 51.5,118.98546 C 47.024106,116.76053 46.5,116.15679 46.5,113.22575 C 46.5,110.09402 46.157297,109.80241 38.626937,106.52647 C 28.909272,102.29898 24.101064,99.018507 18.513479,92.803768 C 11.592459,85.105928 9.7203466,77.063257 12.015104,64.88649 C 14.007235,54.315565 25.738113,42.133789 39,36.864379 C 46.314398,33.958114 47.399797,32.894383 49.881948,26.199662 C 52.172673,20.021243 59.879874,8.8387574 61.5,9.3428681 C 62.05,9.5140035 62.649267,11.192561 62.831705,13.072997 C 63.281389,17.708017 64.592185,18.99734 68.872445,19.014781 C 74.613947,19.038176 84.491166,21.714351 91.04325,25.021833 C 96.370008,27.710771 97.033265,28.372251 96.782983,30.746183 C 96.52961,33.149425 97.279412,33.852467 103.94882,37.465138 C 108.04567,39.684312 113.95582,43.8625 117.08248,46.75 C 120.20914,49.6375 123.17408,52 123.67125,52 C 124.16841,52 126.79135,49.75 129.5,47 C 132.20865,44.25 135.00423,42 135.71241,42 C 137.25598,42 137.44251,45.608479 135.94673,46.532923 C 135.36743,46.890949 133.84267,49.559899 132.55837,52.463923 C 131.27408,55.367947 129.72305,58.053131 129.11164,58.431 C 127.5325,59.406968 127.73187,62 129.38606,62 C 130.85864,62 133.64124,56.871486 135.42284,50.873822 C 137.7406,43.071225 138.49998,47.553593 138.49369,69 C 138.48718,91.174427 137.87843,95 134.35639,95 C 133.49111,95 130.84003,92.883679 128.46511,90.297064 L 124.14707,85.594127 L 116.32353,93.049302 C 111.2705,97.86442 106.0851,101.68887 101.68063,103.84905 C 95.072654,107.08995 94.758875,107.41535 91.557961,114.34681 C 86.571529,125.14474 81.214936,131.8637 79.676614,129.25 z M 103.92511,60.248446 C 105.80892,59.286801 107.81314,57.741795 108.37893,56.815101 C 109.9613,54.223377 107.24012,50.089672 101.66008,46.608605 C 97.720459,44.150899 97.158265,43.470655 98.637777,42.95167 C 100.35503,42.349291 100.34619,42.255703 98.477696,41.25674 C 97.389963,40.6752 93.8,39.378326 90.5,38.374798 C 81.9569,35.776847 59.275579,35.786873 49.5,38.392922 C 42.976421,40.132027 32.362304,44.721927 33.150566,45.462965 C 33.342755,45.64364 37.775,45.428087 43,44.983959 C 61.087072,43.446548 76.480367,43.001906 78,43.972968 C 79.241764,44.766469 78.911636,45.423141 76.082409,47.787338 L 72.664818,50.643192 L 74.582409,54.562973 C 76.068016,57.599729 77.513734,58.866676 81,60.186994 C 87.179452,62.527274 99.396855,62.560024 103.92511,60.248446 z" style="fill:#9fa1a4"/>
<path d="M 79.218676,125.75 L 78.380168,122.5 L 67.940084,121.93911 C 52.6193,121.11602 45.255119,117.66791 46.519858,111.90959 C 47.057976,109.45955 46.685486,109.12623 41.057268,107.02142 C 29.720034,102.78157 18.810642,94.323536 14.888303,86.73265 C 10.29581,77.844818 10.880517,64.99871 16.298341,55.753893 C 20.897583,47.90588 31.664258,39.791938 43.117224,35.542747 C 47.159707,34.042935 47.889473,33.311269 48.97985,29.66485 C 51.638999,20.772175 59.859689,8.1772148 62.100743,9.5622624 C 62.595334,9.8679368 63,11.576476 63,13.359017 C 63,17.529943 64.542781,18.996431 68.95,19.014781 C 74.622298,19.038399 84.525374,21.731619 91.049194,25.024833 C 96.951402,28.004258 97.064607,28.138695 96.446355,31.434258 C 95.855316,34.58477 96.016327,34.844675 98.959571,35.49112 C 102.70457,36.31366 115.29288,44.567107 119.43709,48.917082 C 121.05249,50.612687 123.13578,52 124.06663,52 C 124.99747,52 127.41841,49.975 129.44649,47.5 C 131.50298,44.990325 133.98888,43 135.06695,43 C 136.13013,43 137,43.170237 137,43.378304 C 137,43.586371 134.975,47.417536 132.5,51.892005 C 127.56253,60.818287 127.14529,62.31125 129.72707,61.814045 C 130.81226,61.605057 132.41402,58.98495 134.03683,54.764292 C 137.1767,46.59801 137.70784,45.987746 138.59588,49.525997 C 139.59945,53.524533 138.37662,87.998875 137.1159,91.25 C 135.59305,95.177086 132.68556,94.735816 128.87976,90 C 127.11179,87.8 125.07895,86 124.36233,86 C 123.64572,86 120.19679,88.82064 116.69805,92.26809 C 112.82563,96.083742 107.09908,100.28976 102.0618,103.01809 C 94.098538,107.33121 93.721845,107.69632 92.059687,112.71286 C 89.955852,119.06241 83.524079,129 81.518377,129 C 80.70852,129 79.683414,127.55129 79.218676,125.75 z M 103.92511,60.248446 C 105.80892,59.286801 107.81314,57.741795 108.37893,56.815101 C 109.9613,54.223377 107.24012,50.089672 101.66008,46.608605 C 97.720459,44.150899 97.158265,43.470655 98.637777,42.95167 C 100.35503,42.349291 100.34619,42.255703 98.477696,41.25674 C 97.389963,40.6752 93.8,39.378326 90.5,38.374798 C 81.9569,35.776847 59.275579,35.786873 49.5,38.392922 C 42.976421,40.132027 32.362304,44.721927 33.150566,45.462965 C 33.342755,45.64364 37.775,45.428087 43,44.983959 C 61.087072,43.446548 76.480367,43.001906 78,43.972968 C 79.241764,44.766469 78.911636,45.423141 76.082409,47.787338 L 72.664818,50.643192 L 74.582409,54.562973 C 76.068016,57.599729 77.513734,58.866676 81,60.186994 C 87.179452,62.527274 99.396855,62.560024 103.92511,60.248446 z" style="fill:#59a9d9"/>
<path d="M 79.218676,125.75 L 78.380168,122.5 L 67.940084,121.93911 C 52.6193,121.11602 45.255119,117.66791 46.519858,111.90959 C 47.057976,109.45955 46.685486,109.12623 41.057268,107.02142 C 29.720034,102.78157 18.810642,94.323536 14.888303,86.73265 C 10.29581,77.844818 10.880517,64.99871 16.298341,55.753893 C 20.897583,47.90588 31.664258,39.791938 43.117224,35.542747 C 47.159707,34.042935 47.889473,33.311269 48.97985,29.66485 C 51.638999,20.772175 59.859689,8.1772148 62.100743,9.5622624 C 62.595334,9.8679368 63,11.576476 63,13.359017 C 63,17.529943 64.542781,18.996431 68.95,19.014781 C 74.622298,19.038399 84.525374,21.731619 91.049194,25.024833 C 96.951402,28.004258 97.064607,28.138695 96.446355,31.434258 C 95.855316,34.58477 96.016327,34.844675 98.959571,35.49112 C 102.70457,36.31366 115.29288,44.567107 119.43709,48.917082 C 121.05249,50.612687 123.13578,52 124.06663,52 C 124.99747,52 127.41841,49.975 129.44649,47.5 C 131.50298,44.990325 133.98888,43 135.06695,43 C 136.13013,43 137,43.170237 137,43.378304 C 137,43.586371 134.975,47.417536 132.5,51.892005 C 127.56253,60.818287 127.14529,62.31125 129.72707,61.814045 C 130.81226,61.605057 132.41402,58.98495 134.03683,54.764292 C 137.1767,46.59801 137.70784,45.987746 138.59588,49.525997 C 139.59945,53.524533 138.37662,87.998875 137.1159,91.25 C 135.59305,95.177086 132.68556,94.735816 128.87976,90 C 127.11179,87.8 125.07895,86 124.36233,86 C 123.64572,86 120.19679,88.82064 116.69805,92.26809 C 112.82563,96.083742 107.09908,100.28976 102.0618,103.01809 C 94.098538,107.33121 93.721845,107.69632 92.059687,112.71286 C 89.955852,119.06241 83.524079,129 81.518377,129 C 80.70852,129 79.683414,127.55129 79.218676,125.75 z M 107.37611,60.076569 C 111.69461,57.407589 111.87556,55.661353 108.51986,49.039197 C 106.40461,44.86495 105.11728,43.697761 99.769863,41.105801 C 91.018581,36.863947 82.300607,35.621457 66.072888,36.303292 C 52.291729,36.88233 46.074674,38.079279 37.994847,41.709063 C 33.804373,43.591592 27.513829,49.024368 29.575686,48.9802 C 30.084059,48.96931 35.9,48.391874 42.5,47.69701 C 49.1,47.002145 57.85328,46.448555 61.951733,46.46681 L 69.403467,46.5 L 70.056977,49.659757 C 72.164818,59.851273 78.478782,63.266331 94.126108,62.67812 C 101.93696,62.384497 104.4356,61.893905 107.37611,60.076569 z" style="fill:#d18d6e"/>
<path d="M 79.345838,125.97919 C 79.013549,124.31775 78.332225,122.70533 77.831784,122.39604 C 77.331343,122.08675 72.551966,121.75257 67.210946,121.65343 C 59.102756,121.50291 56.674768,121.06276 52.5,118.98658 C 48.584683,117.03943 47.476477,115.95766 47.391569,114 C 47.331932,112.625 47.219432,110.99237 47.141569,110.37193 C 47.063706,109.75148 44.303866,108.23556 41.00859,107.00321 C 29.719957,102.78155 18.803631,94.309966 14.888303,86.73265 C 10.29581,77.844818 10.880517,64.99871 16.298341,55.753893 C 20.903191,47.896311 31.662335,39.793207 43.151883,35.52951 C 47.458494,33.931355 47.961482,33.370675 49.92869,27.975423 C 52.233988,21.652924 59.53418,10 61.18973,10 C 61.753066,10 61.959821,10.662321 61.649186,11.471824 C 60.826126,13.616683 62.914949,18.884115 65.039442,20.021109 C 66.045433,20.559499 68.810601,21.005341 71.184259,21.011869 C 76.333613,21.02603 83.536265,22.858239 90.819948,26.006791 C 95.285825,27.937276 96.055077,28.644422 95.611557,30.411543 C 94.885499,33.304391 95.884005,34.509426 100.16246,35.90375 C 104.29088,37.249176 116.24384,45.399611 119.92431,49.378872 C 123.31684,53.046819 125.20688,52.673886 129.44649,47.5 C 131.50298,44.990325 133.98888,43 135.06695,43 C 136.13013,43 137,43.170237 137,43.378304 C 137,43.586371 134.975,47.417536 132.5,51.892005 C 127.56253,60.818287 127.14529,62.31125 129.72707,61.814045 C 130.81226,61.605057 132.41402,58.98495 134.03683,54.764292 C 137.1767,46.59801 137.70784,45.987746 138.59588,49.525997 C 139.59945,53.524533 138.37662,87.998875 137.1159,91.25 C 135.59305,95.177086 132.68556,94.735816 128.87976,90 C 127.11179,87.8 125.07895,86 124.36233,86 C 123.64572,86 120.19679,88.82064 116.69805,92.26809 C 112.81217,96.097005 107.11161,100.28028 102.049,103.01809 C 94.063915,107.33635 93.665244,107.72268 91.13065,113.59855 C 87.779462,121.36749 82.87258,128.9959 81.225,128.99821 C 80.52375,128.9992 79.678127,127.64064 79.345838,125.97919 z M 107.37611,60.076569 C 111.69461,57.407589 111.87556,55.661353 108.51986,49.039197 C 106.40461,44.86495 105.11728,43.697761 99.769863,41.105801 C 91.018581,36.863947 82.300607,35.621457 66.072888,36.303292 C 52.291729,36.88233 46.074674,38.079279 37.994847,41.709063 C 33.804373,43.591592 27.513829,49.024368 29.575686,48.9802 C 30.084059,48.96931 35.9,48.391874 42.5,47.69701 C 49.1,47.002145 57.85328,46.448555 61.951733,46.46681 L 69.403467,46.5 L 70.056977,49.659757 C 72.164818,59.851273 78.478782,63.266331 94.126108,62.67812 C 101.93696,62.384497 104.4356,61.893905 107.37611,60.076569 z" style="fill:#5f8eac"/>
<path d="M 79.345838,125.97919 C 79.013549,124.31775 78.332225,122.70533 77.831784,122.39604 C 77.331343,122.08675 72.551966,121.75257 67.210946,121.65343 C 59.102756,121.50291 56.674768,121.06276 52.5,118.98658 C 48.584683,117.03943 47.476477,115.95766 47.391569,114 C 47.331932,112.625 47.219432,110.99237 47.141569,110.37193 C 47.063706,109.75148 44.303866,108.23556 41.00859,107.00321 C 25.241867,101.10685 14.312976,90.351363 12.110855,78.563981 C 11.072005,73.003289 12.60358,62.69737 15.235494,57.538394 C 18.829352,50.49385 27.236153,43.366379 38.033505,38.209735 L 47.89509,33.5 L 49.974352,27.82381 C 52.249582,21.612642 59.556672,10 61.18973,10 C 61.753066,10 61.959821,10.662321 61.649186,11.471824 C 60.826126,13.616683 62.914949,18.884115 65.039442,20.021109 C 66.045433,20.559499 68.810601,21.005341 71.184259,21.011869 C 76.333613,21.02603 83.536265,22.858239 90.819948,26.006791 C 95.285825,27.937276 96.055077,28.644422 95.611557,30.411543 C 94.865489,33.384116 95.649003,34.149999 103.18063,37.810298 C 106.85497,39.595995 112.82644,43.744191 116.45056,47.02851 C 120.07467,50.31283 123.41386,53 123.87098,53 C 124.32809,53 126.7747,50.75 129.30788,48 C 133.52057,43.426742 136.02603,41.831606 135.98329,43.75 C 135.9741,44.1625 134.02767,48.110711 131.65789,52.523803 C 127.3481,60.549655 126.87581,63 129.63866,63 C 130.9065,63 133.99156,57.359884 136.47599,50.5 C 137.16003,48.611234 137.25627,48.639042 138.20629,51 C 139.47282,54.14751 138.55468,87.412958 137.09538,91.25 C 135.60052,95.180533 132.68667,94.737193 128.87976,90 C 127.11179,87.8 125.07895,86 124.36233,86 C 123.64572,86 120.19679,88.82064 116.69805,92.26809 C 112.81217,96.097005 107.11161,100.28028 102.049,103.01809 C 94.063915,107.33635 93.665244,107.72268 91.13065,113.59855 C 87.779462,121.36749 82.87258,128.9959 81.225,128.99821 C 80.52375,128.9992 79.678127,127.64064 79.345838,125.97919 z M 40.179022,72.5 C 41.328225,68.250841 40.544143,67 36.731385,67 C 32.716062,67 31,68.507055 31,72.033333 C 31,75.54516 31.787264,76.150185 35.898088,75.797592 C 38.800072,75.548683 39.500391,75.009229 40.179022,72.5 z M 100.40693,63.021093 C 106.70263,61.990105 111,59.057603 111,55.792442 C 111,54.770031 109.87631,51.716012 108.50291,49.005734 C 106.29125,44.641235 105.17675,43.679918 98.752905,40.595791 C 94.763807,38.680601 88.575,36.64146 85,36.064368 C 64.955495,32.828693 36.622975,38.10326 30.903662,46.135294 C 28.57021,49.412325 28.499069,49.394368 38.236422,47.986182 C 49.799712,46.313934 69.029368,45.87726 69.458293,47.277184 C 69.664357,47.949733 70.082587,49.651731 70.387692,51.059403 C 72.627392,61.392737 83.615018,65.770948 100.40693,63.021093 z" style="fill:#db7249"/>
<path d="M 79.345838,125.97919 C 79.013549,124.31775 78.332225,122.70533 77.831784,122.39604 C 77.331343,122.08675 72.551966,121.75257 67.210946,121.65343 C 59.102756,121.50291 56.674768,121.06276 52.5,118.98658 C 48.584683,117.03943 47.476477,115.95766 47.391569,114 C 47.331932,112.625 47.219432,110.99237 47.141569,110.37193 C 47.063706,109.75148 44.303866,108.23556 41.00859,107.00321 C 25.241867,101.10685 14.312976,90.351363 12.110855,78.563981 C 11.072005,73.003289 12.60358,62.69737 15.235494,57.538394 C 18.829352,50.49385 27.236153,43.366379 38.033505,38.209735 L 47.89509,33.5 L 49.974352,27.82381 C 52.177246,21.810114 59.5377,10 61.082741,10 C 62.453058,10 62.301257,10.351356 58.47338,16.039557 C 54.712238,21.62859 54.575474,22.832751 57.904163,21.05129 C 59.528566,20.181936 60.523474,20.296887 62.482089,21.580221 C 63.858448,22.482046 65.625315,22.974022 66.408462,22.6735 C 71.295545,20.79815 96.409278,27.986423 95.49883,31 C 94.807133,33.289511 95.933926,34.288469 103.18063,37.810298 C 106.85497,39.595995 112.82644,43.744191 116.45056,47.02851 C 120.07467,50.31283 123.41386,53 123.87098,53 C 124.32809,53 126.7747,50.75 129.30788,48 C 133.52057,43.426742 136.02603,41.831606 135.98329,43.75 C 135.9741,44.1625 134.02767,48.110711 131.65789,52.523803 C 127.3481,60.549655 126.87581,63 129.63866,63 C 130.9065,63 133.99156,57.359884 136.47599,50.5 C 137.16003,48.611234 137.25627,48.639042 138.20629,51 C 139.47282,54.14751 138.55468,87.412958 137.09538,91.25 C 135.60052,95.180533 132.68667,94.737193 128.87976,90 C 127.11179,87.8 125.07895,86 124.36233,86 C 123.64572,86 120.19679,88.82064 116.69805,92.26809 C 112.81217,96.097005 107.11161,100.28028 102.049,103.01809 C 94.063915,107.33635 93.665244,107.72268 91.13065,113.59855 C 87.779462,121.36749 82.87258,128.9959 81.225,128.99821 C 80.52375,128.9992 79.678127,127.64064 79.345838,125.97919 z M 40.179022,72.5 C 41.328225,68.250841 40.544143,67 36.731385,67 C 32.716062,67 31,68.507055 31,72.033333 C 31,75.54516 31.787264,76.150185 35.898088,75.797592 C 38.800072,75.548683 39.500391,75.009229 40.179022,72.5 z M 100.40693,63.021093 C 106.70263,61.990105 111,59.057603 111,55.792442 C 111,54.770031 109.87631,51.716012 108.50291,49.005734 C 106.29125,44.641235 105.17675,43.679918 98.752905,40.595791 C 94.763807,38.680601 88.575,36.64146 85,36.064368 C 64.955495,32.828693 36.622975,38.10326 30.903662,46.135294 C 28.57021,49.412325 28.499069,49.394368 38.236422,47.986182 C 49.799712,46.313934 69.029368,45.87726 69.458293,47.277184 C 69.664357,47.949733 70.082587,49.651731 70.387692,51.059403 C 72.627392,61.392737 83.615018,65.770948 100.40693,63.021093 z" style="fill:#3989c6"/>
<path d="M 79.345838,125.97919 C 79.013549,124.31775 78.332225,122.70533 77.831784,122.39604 C 77.331343,122.08675 72.551966,121.75257 67.210946,121.65343 C 59.102756,121.50291 56.674768,121.06276 52.5,118.98658 C 48.584683,117.03943 47.476477,115.95766 47.391569,114 C 47.331932,112.625 47.219432,110.99237 47.141569,110.37193 C 47.063706,109.75148 44.303866,108.23556 41.00859,107.00321 C 25.241867,101.10685 14.312976,90.351363 12.110855,78.563981 C 11.072005,73.003289 12.60358,62.69737 15.235494,57.538394 C 18.829352,50.49385 27.236153,43.366379 38.033505,38.209735 L 47.89509,33.5 L 49.974352,27.82381 C 52.177246,21.810114 59.5377,10 61.082741,10 C 62.453058,10 62.301257,10.351356 58.47338,16.039557 C 54.712238,21.62859 54.575474,22.832751 57.904163,21.05129 C 59.528566,20.181936 60.523474,20.296887 62.482089,21.580221 C 63.858448,22.482046 65.625315,22.974022 66.408462,22.6735 C 71.295545,20.79815 96.409278,27.986423 95.49883,31 C 94.807133,33.289511 95.933926,34.288469 103.18063,37.810298 C 106.85497,39.595995 112.82644,43.744191 116.45056,47.02851 C 120.07467,50.31283 123.41386,53 123.87098,53 C 124.32809,53 126.7747,50.75 129.30788,48 C 133.52057,43.426742 136.02603,41.831606 135.98329,43.75 C 135.9741,44.1625 134.02767,48.110711 131.65789,52.523803 C 127.3481,60.549655 126.87581,63 129.63866,63 C 130.9065,63 133.99156,57.359884 136.47599,50.5 C 137.16003,48.611234 137.25627,48.639042 138.20629,51 C 139.47282,54.14751 138.55468,87.412958 137.09538,91.25 C 135.60052,95.180533 132.68667,94.737193 128.87976,90 C 127.11179,87.8 125.07895,86 124.36233,86 C 123.64572,86 120.19679,88.82064 116.69805,92.26809 C 112.81217,96.097005 107.11161,100.28028 102.049,103.01809 C 94.063915,107.33635 93.665244,107.72268 91.13065,113.59855 C 87.779462,121.36749 82.87258,128.9959 81.225,128.99821 C 80.52375,128.9992 79.678127,127.64064 79.345838,125.97919 z M 40.179022,72.5 C 41.328225,68.250841 40.544143,67 36.731385,67 C 32.716062,67 31,68.507055 31,72.033333 C 31,75.54516 31.787264,76.150185 35.898088,75.797592 C 38.800072,75.548683 39.500391,75.009229 40.179022,72.5 z M 100.28552,63.040854 C 106.96633,61.946658 111.86265,58.633333 111.94467,55.151129 C 112.19955,44.330633 97.367957,36.36199 75,35.301691 C 52.354681,34.228244 32.459744,40.408913 27.464083,50.069456 C 25.302889,54.248743 25.663444,55.664806 28.266182,53.219661 C 29.800365,51.778371 32.919662,50.720291 37.923151,49.943973 C 44.406376,48.938067 48.971834,48.98532 64,50.213875 C 66.961938,50.456013 67.961196,51.231912 70.5,55.260957 C 73.121359,59.421017 74.257281,60.265869 79.5,61.95479 C 86.261584,64.133007 91.838106,64.424386 100.28552,63.040854 z" style="fill:#3683b8"/>
<path d="M 79.345838,125.97919 C 79.013549,124.31775 78.332225,122.70533 77.831784,122.39604 C 77.331343,122.08675 72.551966,121.75257 67.210946,121.65343 C 59.102756,121.50291 56.674768,121.06276 52.5,118.98658 C 48.584683,117.03943 47.476477,115.95766 47.391569,114 C 47.331932,112.625 47.219432,110.99237 47.141569,110.37193 C 47.063706,109.75148 44.303866,108.23556 41.00859,107.00321 C 25.241867,101.10685 14.312976,90.351363 12.110855,78.563981 C 11.072005,73.003289 12.60358,62.69737 15.235494,57.538394 C 18.829352,50.49385 27.236153,43.366379 38.033505,38.209735 L 47.89509,33.5 L 49.974352,27.82381 C 52.177246,21.810114 59.5377,10 61.082741,10 C 62.453058,10 62.301257,10.351356 58.47338,16.039557 C 54.712238,21.62859 54.575474,22.832751 57.904163,21.05129 C 59.528566,20.181936 60.523474,20.296887 62.482089,21.580221 C 63.858448,22.482046 65.625315,22.974022 66.408462,22.6735 C 71.295545,20.79815 96.409278,27.986423 95.49883,31 C 94.807133,33.289511 95.933926,34.288469 103.18063,37.810298 C 106.85497,39.595995 112.82644,43.744191 116.45056,47.02851 C 120.07467,50.31283 123.41386,53 123.87098,53 C 124.32809,53 126.7747,50.75 129.30788,48 C 133.52057,43.426742 136.02603,41.831606 135.98329,43.75 C 135.9741,44.1625 134.02767,48.110711 131.65789,52.523803 C 127.3481,60.549655 126.87581,63 129.63866,63 C 130.9065,63 133.99156,57.359884 136.47599,50.5 C 137.16003,48.611234 137.25627,48.639042 138.20629,51 C 139.47282,54.14751 138.55468,87.412958 137.09538,91.25 C 135.60052,95.180533 132.68667,94.737193 128.87976,90 C 127.11179,87.8 125.07895,86 124.36233,86 C 123.64572,86 120.19679,88.82064 116.69805,92.26809 C 112.81217,96.097005 107.11161,100.28028 102.049,103.01809 C 94.063915,107.33635 93.665244,107.72268 91.13065,113.59855 C 87.779462,121.36749 82.87258,128.9959 81.225,128.99821 C 80.52375,128.9992 79.678127,127.64064 79.345838,125.97919 z M 40.179022,72.5 C 41.328225,68.250841 40.544143,67 36.731385,67 C 32.716062,67 31,68.507055 31,72.033333 C 31,75.54516 31.787264,76.150185 35.898088,75.797592 C 38.800072,75.548683 39.500391,75.009229 40.179022,72.5 z M 107.57283,61.743385 C 112.25721,59.286717 113.21342,57.65454 112.4263,53.458859 C 110.3574,42.430655 93.933226,35.126695 71,35.036255 C 63.011985,35.004753 50.331724,36.749368 43.44158,38.827882 C 35.721985,41.156613 28.288745,46.712262 25.329583,52.364902 C 23.135257,56.556537 25.012922,57.701451 28.823313,54.495218 C 33.966737,50.167312 47.589803,48.889345 58.11635,51.747266 C 60.527639,52.401922 62.340017,52.389221 63.555238,51.709149 C 64.999169,50.901085 65.702076,51.153698 66.938888,52.925177 C 71.224905,59.064013 74.086071,61.557068 78.160055,62.702655 C 84.37061,64.449038 103.61017,63.821557 107.57283,61.743385 z" style="fill:#d75e31"/>
<path d="M 79.345838,125.97919 C 79.013549,124.31775 78.332225,122.70533 77.831784,122.39604 C 77.331343,122.08675 72.551966,121.75257 67.210946,121.65343 C 59.102756,121.50291 56.674768,121.06276 52.5,118.98658 C 48.584683,117.03943 47.476477,115.95766 47.391569,114 C 47.331932,112.625 47.219432,110.99237 47.141569,110.37193 C 47.063706,109.75148 44.303866,108.23556 41.00859,107.00321 C 25.241867,101.10685 14.312976,90.351363 12.110855,78.563981 C 11.072005,73.003289 12.60358,62.69737 15.235494,57.538394 C 18.829352,50.49385 27.236153,43.366379 38.033505,38.209735 L 47.89509,33.5 L 49.974352,27.82381 C 52.177246,21.810114 59.5377,10 61.082741,10 C 62.582425,10 62.162813,11.006623 58.996799,15.004042 C 55.64881,19.231222 52.055592,26.570296 52.021962,29.25 C 51.995846,31.33098 53.041781,31.387352 63.145786,29.849543 C 69.616074,28.864777 72.614092,28.962704 82.645786,30.486485 C 89.165604,31.476825 94.95,32.795243 95.5,33.416303 C 96.05,34.037364 99.506282,36.010596 103.18063,37.801263 C 106.85497,39.591929 112.82644,43.744191 116.45056,47.02851 C 120.07467,50.31283 123.41386,53 123.87098,53 C 124.32809,53 126.7747,50.75 129.30788,48 C 133.52057,43.426742 136.02603,41.831606 135.98329,43.75 C 135.9741,44.1625 134.02767,48.110711 131.65789,52.523803 C 127.3481,60.549655 126.87581,63 129.63866,63 C 130.9065,63 133.99156,57.359884 136.47599,50.5 C 137.16003,48.611234 137.25627,48.639042 138.20629,51 C 139.47282,54.14751 138.55468,87.412958 137.09538,91.25 C 135.60052,95.180533 132.68667,94.737193 128.87976,90 C 127.11179,87.8 125.07895,86 124.36233,86 C 123.64572,86 120.19679,88.82064 116.69805,92.26809 C 112.81217,96.097005 107.11161,100.28028 102.049,103.01809 C 94.063915,107.33635 93.665244,107.72268 91.13065,113.59855 C 87.779462,121.36749 82.87258,128.9959 81.225,128.99821 C 80.52375,128.9992 79.678127,127.64064 79.345838,125.97919 z M 40.179022,72.5 C 41.328225,68.250841 40.544143,67 36.731385,67 C 32.716062,67 31,68.507055 31,72.033333 C 31,75.54516 31.787264,76.150185 35.898088,75.797592 C 38.800072,75.548683 39.500391,75.009229 40.179022,72.5 z M 107.57283,61.743385 C 112.25721,59.286717 113.21342,57.65454 112.4263,53.458859 C 110.3574,42.430655 93.933226,35.126695 71,35.036255 C 63.011985,35.004753 50.331724,36.749368 43.44158,38.827882 C 35.721985,41.156613 28.288745,46.712262 25.329583,52.364902 C 23.135257,56.556537 25.012922,57.701451 28.823313,54.495218 C 33.966737,50.167312 47.589803,48.889345 58.11635,51.747266 C 60.527639,52.401922 62.340017,52.389221 63.555238,51.709149 C 64.999169,50.901085 65.702076,51.153698 66.938888,52.925177 C 71.224905,59.064013 74.086071,61.557068 78.160055,62.702655 C 84.37061,64.449038 103.61017,63.821557 107.57283,61.743385 z" style="fill:#a26754"/>
<path d="M 80,126.08179 C 80,121.39377 79.230903,121 70.074512,121 C 61.740472,121 52.016496,119.03355 49.271013,116.79296 C 48.414198,116.09372 48.338491,115.23604 49.021013,113.96074 C 50.696507,110.83005 50.206791,110.34332 42.584264,107.56323 C 25.424376,101.30467 14.399186,90.812824 12.110855,78.563981 C 11.072005,73.003289 12.60358,62.69737 15.235494,57.538394 C 18.968064,50.221951 27.229244,43.351934 39.099305,37.693189 C 45.090724,34.836935 50.014712,32.05 50.041501,31.5 C 50.06829,30.95 50.713538,29.15 51.475387,27.5 L 52.860566,24.5 L 52.305283,27.75 C 51.804536,30.680809 51.98977,31 54.191341,31 C 55.534078,31 59.298247,30.507243 62.556161,29.904985 C 66.231206,29.225616 71.330355,29.106747 75.98982,29.591826 C 82.243381,30.24286 82.914373,30.472379 80,30.963544 C 77.128902,31.447417 78.207021,31.795095 86,32.898461 C 98.274795,34.636383 107.48274,38.901514 116.39342,46.976732 C 120.04896,50.289529 123.41386,53 123.87098,53 C 124.32809,53 126.7747,50.75 129.30788,48 C 133.52057,43.426742 136.02603,41.831606 135.98329,43.75 C 135.9741,44.1625 134.02767,48.110711 131.65789,52.523803 C 127.3481,60.549655 126.87581,63 129.63866,63 C 130.9065,63 133.99156,57.359884 136.47599,50.5 C 137.16003,48.611234 137.25627,48.639042 138.20629,51 C 139.47282,54.14751 138.55468,87.412958 137.09538,91.25 C 135.60052,95.180533 132.68667,94.737193 128.87976,90 C 127.11179,87.8 125.07895,86 124.36233,86 C 123.64572,86 120.14287,88.873769 116.57823,92.386153 C 112.22173,96.678787 107.34013,100.184 101.68721,103.0786 C 93.435431,107.30396 93.225704,107.50349 90.528752,113.69417 C 87.539285,120.5563 82.577959,128 80.993728,128 C 80.447177,128 80,127.1368 80,126.08179 z M 40.179022,72.5 C 41.328225,68.250841 40.544143,67 36.731385,67 C 32.716062,67 31,68.507055 31,72.033333 C 31,75.54516 31.787264,76.150185 35.898088,75.797592 C 38.800072,75.548683 39.500391,75.009229 40.179022,72.5 z M 107.57283,61.743385 C 112.25721,59.286717 113.21342,57.65454 112.4263,53.458859 C 110.3574,42.430655 93.933226,35.126695 71,35.036255 C 63.011985,35.004753 50.331724,36.749368 43.44158,38.827882 C 35.721985,41.156613 28.288745,46.712262 25.329583,52.364902 C 23.135257,56.556537 25.012922,57.701451 28.823313,54.495218 C 33.966737,50.167312 47.589803,48.889345 58.11635,51.747266 C 60.527639,52.401922 62.340017,52.389221 63.555238,51.709149 C 64.999169,50.901085 65.702076,51.153698 66.938888,52.925177 C 71.224905,59.064013 74.086071,61.557068 78.160055,62.702655 C 84.37061,64.449038 103.61017,63.821557 107.57283,61.743385 z" style="fill:#52748f"/>
<path d="M 80,126.08179 C 80,121.39377 79.230903,121 70.074512,121 C 61.740472,121 52.016496,119.03355 49.271013,116.79296 C 48.414198,116.09372 48.338491,115.23604 49.021013,113.96074 C 50.714007,110.79735 50.179083,110.24212 42.75,107.45163 C 27.357265,101.66986 16.738237,92.749417 13.444889,82.834076 C 11.316301,76.425499 12.127073,64.5265 15.116892,58.29553 C 18.433502,51.383507 27.93825,43.475295 39.65315,37.880687 C 45.343917,35.162985 50.020297,32.390543 50.045104,31.719705 C 50.069911,31.048867 50.713538,29.15 51.475387,27.5 L 52.860566,24.5 L 52.305283,27.75 C 51.804536,30.680809 51.98977,31 54.191341,31 C 55.534078,31 59.298247,30.507243 62.556161,29.904985 C 66.231206,29.225616 71.330355,29.106747 75.98982,29.591826 C 82.214923,30.239897 82.90111,30.473125 80,30.954846 C 77.089627,31.438104 78.016183,31.757016 85.5,32.847896 C 97.903352,34.655871 107.44306,39.439766 118.5,49.396463 C 120.7,51.377548 123.15065,52.998788 123.94589,52.999218 C 124.74114,52.999648 127.28136,50.8625 129.59084,48.25 C 131.90032,45.6375 134.04959,43.749924 134.367,44.055386 C 135.09391,44.754935 129.58349,56.521347 128.09944,57.438544 C 126.77243,58.258679 126.69343,60.967119 127.9391,62.935698 C 129.32239,65.121782 131.84305,62.584344 134.70405,56.125696 C 136.01342,53.169829 137.32665,50.993319 137.62234,51.289006 C 137.91803,51.584693 138.12365,59.581196 138.07929,69.059012 C 137.99871,86.272839 136.96594,94 134.74581,94 C 134.0984,94 131.43423,91.897628 128.82544,89.328062 L 124.08218,84.656123 L 116.23904,92.149412 C 110.97791,97.175867 105.92286,100.88149 100.88374,103.40566 C 93.590054,107.05919 93.290282,107.35525 90.575862,113.58603 C 87.546075,120.54071 82.587281,128 80.993728,128 C 80.447177,128 80,127.1368 80,126.08179 z M 41.410794,75.926811 C 41.911731,75.460191 42.361731,73.176346 42.410794,70.851599 C 42.489004,67.145814 42.191832,66.546045 40,65.985997 C 34.352612,64.542998 29.092517,68.017511 29.031803,73.230948 C 29.006451,75.407932 29.557828,76.084927 31.75,76.568419 C 33.2625,76.902007 34.95,77.320553 35.5,77.498521 C 36.806845,77.921388 40.253378,77.004938 41.410794,75.926811 z M 107.57283,61.743385 C 112.28383,59.272756 113.21173,57.663551 112.42658,53.325803 C 111.37971,47.542123 105.19328,42.129858 94.946394,38.033073 C 86.778033,34.7673 86.055616,34.657763 73,34.705436 C 47.314563,34.799228 31.519542,40.651884 25.341017,52.364902 C 23.131242,56.55411 25.010315,57.703645 28.823313,54.495218 C 33.966737,50.167312 47.589803,48.889345 58.11635,51.747266 C 60.527639,52.401922 62.340017,52.389221 63.555238,51.709149 C 64.999169,50.901085 65.702076,51.153698 66.938888,52.925177 C 71.224905,59.064013 74.086071,61.557068 78.160055,62.702655 C 84.37061,64.449038 103.61017,63.821557 107.57283,61.743385 z" style="fill:#2c74ab"/>
<path d="M 80,126.08179 C 80,121.39377 79.230903,121 70.074512,121 C 61.740472,121 52.016496,119.03355 49.271013,116.79296 C 48.414198,116.09372 48.338491,115.23604 49.021013,113.96074 C 50.714007,110.79735 50.179083,110.24212 42.75,107.45163 C 27.357265,101.66986 16.738237,92.749417 13.444889,82.834076 C 11.316301,76.425499 12.127073,64.5265 15.116892,58.29553 C 18.433502,51.383507 27.93825,43.475295 39.65315,37.880687 C 45.343917,35.162985 50.020297,32.390543 50.045104,31.719705 C 50.069911,31.048867 50.713538,29.15 51.475387,27.5 L 52.860566,24.5 L 52.305283,27.75 C 51.804536,30.680809 51.98977,31 54.191341,31 C 55.534078,31 59.298247,30.507243 62.556161,29.904985 C 66.231206,29.225616 71.330355,29.106747 75.98982,29.591826 C 82.214923,30.239897 82.90111,30.473125 80,30.954846 C 77.089627,31.438104 78.016183,31.757016 85.5,32.847896 C 97.903352,34.655871 107.44306,39.439766 118.5,49.396463 C 120.7,51.377548 123.15065,52.998788 123.94589,52.999218 C 124.74114,52.999648 127.28136,50.8625 129.59084,48.25 C 131.90032,45.6375 134.04959,43.749924 134.367,44.055386 C 135.09391,44.754935 129.58349,56.521347 128.09944,57.438544 C 126.77243,58.258679 126.69343,60.967119 127.9391,62.935698 C 129.32239,65.121782 131.84305,62.584344 134.70405,56.125696 C 136.01342,53.169829 137.32665,50.993319 137.62234,51.289006 C 137.91803,51.584693 138.12365,59.581196 138.07929,69.059012 C 137.99871,86.272839 136.96594,94 134.74581,94 C 134.0984,94 131.43423,91.897628 128.82544,89.328062 L 124.08218,84.656123 L 116.23904,92.149412 C 110.97791,97.175867 105.92286,100.88149 100.88374,103.40566 C 93.590054,107.05919 93.290282,107.35525 90.575862,113.58603 C 87.546075,120.54071 82.587281,128 80.993728,128 C 80.447177,128 80,127.1368 80,126.08179 z M 41.410794,75.926811 C 41.911731,75.460191 42.361731,73.176346 42.410794,70.851599 C 42.489004,67.145814 42.191832,66.546045 40,65.985997 C 34.352612,64.542998 29.092517,68.017511 29.031803,73.230948 C 29.006451,75.407932 29.557828,76.084927 31.75,76.568419 C 33.2625,76.902007 34.95,77.320553 35.5,77.498521 C 36.806845,77.921388 40.253378,77.004938 41.410794,75.926811 z M 102.41719,63.499885 C 111.30082,61.617912 114.272,59.065304 113.39848,54.065613 C 112.15233,46.933105 107.0356,42.220892 96.217512,38.242953 C 78.919671,31.882329 49.197496,33.996926 34.207837,42.654657 C 29.268605,45.50746 24,52.21481 24,55.650038 C 24,58.625657 25.303688,58.598558 31.419478,55.495815 C 36.941817,52.694148 41.49529,52.275716 42.716394,54.457708 C 43.395397,55.671019 44.703078,55.748399 50.516084,54.919239 C 60.165424,53.542869 64.724766,54.454548 69.07337,58.629924 C 74.924986,64.248438 89.106584,66.319701 102.41719,63.499885 z" style="fill:#2d6791"/>
<path d="M 80,126.08179 C 80,121.39377 79.230903,121 70.074512,121 C 61.740472,121 52.016496,119.03355 49.271013,116.79296 C 48.414198,116.09372 48.338491,115.23604 49.021013,113.96074 C 50.714007,110.79735 50.179083,110.24212 42.75,107.45163 C 27.357265,101.66986 16.738237,92.749417 13.444889,82.834076 C 11.316301,76.425499 12.127073,64.5265 15.116892,58.29553 C 18.433502,51.383507 27.93825,43.475295 39.65315,37.880687 C 45.343917,35.162985 50.020297,32.390543 50.045104,31.719705 C 50.069911,31.048867 50.713538,29.15 51.475387,27.5 L 52.860566,24.5 L 52.305283,27.75 C 51.804536,30.680809 51.98977,31 54.191341,31 C 55.534078,31 59.298247,30.507243 62.556161,29.904985 C 66.231206,29.225616 71.330355,29.106747 75.98982,29.591826 C 82.243381,30.24286 82.914373,30.472379 80,30.963544 C 77.098658,31.452514 78.105379,31.790776 85.885711,32.941163 C 96.958456,34.57836 106.35464,39.147108 116.22058,47.691021 C 119.59233,50.61096 123.0352,53 123.87141,53 C 124.70762,53 127.28136,50.8625 129.59084,48.25 C 131.90032,45.6375 134.04364,43.743974 134.35378,44.042164 C 135.05721,44.718503 130.39929,54.901303 128.35133,57.16428 C 126.41255,59.306609 126.97297,63.379109 129.26672,63.816328 C 130.59176,64.068898 131.8086,62.496618 134.13406,57.527217 C 135.8394,53.882988 137.44287,51.109532 137.69732,51.363982 C 137.95177,51.618433 138.12365,59.581196 138.07929,69.059012 C 137.99871,86.272839 136.96594,94 134.74581,94 C 134.0984,94 131.43423,91.897628 128.82544,89.328062 L 124.08218,84.656123 L 116.23904,92.149412 C 110.97791,97.175867 105.92286,100.88149 100.88374,103.40566 C 93.590054,107.05919 93.290282,107.35525 90.575862,113.58603 C 87.546075,120.54071 82.587281,128 80.993728,128 C 80.447177,128 80,127.1368 80,126.08179 z M 41.187419,77.118843 C 44.308671,75.932145 48.155902,65.332421 45.958327,63.974245 C 43.048226,62.175703 37.258106,61.865316 33.77396,63.321085 C 30.85497,64.540718 30.10478,65.526802 29.119718,69.438835 C 28.473827,72.003901 28.22871,74.561043 28.575013,75.121373 C 30.131347,77.639575 36.969383,78.722538 41.187419,77.118843 z M 105.84224,63.45421 C 112.0186,61.620029 115.60939,58.007164 114.08568,55.16009 C 113.48856,54.044356 113,52.293226 113,51.268689 C 113,48.277175 106.05801,42.346774 98.604978,38.971314 C 89.413119,34.808344 77.631632,33.538025 62.178353,35.043675 C 41.541552,37.054369 32.811749,40.673616 25.632556,50.195022 C 22.604483,54.211005 22.399892,58.269961 25.198662,58.803222 C 26.132925,58.981231 29.26557,57.993473 32.160095,56.608204 C 37.520093,54.043003 40.058193,54.021844 36.571429,56.571429 C 33.109088,59.103154 35.685757,59.216572 45.442804,56.961922 C 57.962597,54.068859 62.665854,54.561955 67.932147,59.319734 C 70.103835,61.281723 73.370019,63.153997 75.190335,63.480342 C 77.010651,63.806687 80.525,64.481323 83,64.979532 C 88.514331,66.089549 99.420442,65.361278 105.84224,63.45421 z" style="fill:#a44f31"/>
<path d="M 79.984687,125.33333 C 79.958108,120.41541 79.165109,120.04644 68.958878,120.20311 C 60.066852,120.3396 53.197915,119.0841 50.306038,116.79374 C 49.41241,116.08599 49.390385,115.2373 50.218479,113.41984 C 50.827,112.08428 51.139283,110.83445 50.912441,110.64244 C 50.685598,110.45043 47.125,109.04122 43,107.51087 C 27.429278,101.73421 16.765075,92.830221 13.444889,82.834076 C 11.316301,76.425499 12.127073,64.5265 15.116892,58.29553 C 21.649267,44.681651 47.92682,31.052811 67.768559,30.987768 C 69.820852,30.98104 76.844663,31.727924 83.377028,32.647509 C 93.633739,34.091383 96.266058,34.869446 102.67209,38.350762 C 106.75201,40.567966 112.84883,44.771083 116.22058,47.691021 C 119.59233,50.61096 123.0352,53 123.87141,53 C 124.70762,53 127.28136,50.8625 129.59084,48.25 C 131.90032,45.6375 134.04364,43.743974 134.35378,44.042164 C 135.05721,44.718503 130.39929,54.901303 128.35133,57.16428 C 126.41255,59.306609 126.97297,63.379109 129.26672,63.816328 C 130.59176,64.068898 131.8086,62.496618 134.13406,57.527217 C 135.8394,53.882988 137.44287,51.109532 137.69732,51.363982 C 137.95177,51.618433 138.12365,59.581196 138.07929,69.059012 C 137.99871,86.272839 136.96594,94 134.74581,94 C 134.0984,94 131.43423,91.897628 128.82544,89.328062 L 124.08218,84.656123 L 116.23904,92.149412 C 110.94398,97.208277 105.92739,100.87922 100.79767,103.44878 L 93.199447,107.25485 L 87.757741,117.32475 C 81.99703,127.98498 80.010082,130.03213 79.984687,125.33333 z M 41.187419,77.118843 C 44.308671,75.932145 48.155902,65.332421 45.958327,63.974245 C 43.048226,62.175703 37.258106,61.865316 33.77396,63.321085 C 30.85497,64.540718 30.10478,65.526802 29.119718,69.438835 C 28.473827,72.003901 28.22871,74.561043 28.575013,75.121373 C 30.131347,77.639575 36.969383,78.722538 41.187419,77.118843 z M 105.84224,63.45421 C 112.0186,61.620029 115.60939,58.007164 114.08568,55.16009 C 113.48856,54.044356 113,52.293226 113,51.268689 C 113,48.277175 106.05801,42.346774 98.604978,38.971314 C 89.413119,34.808344 77.631632,33.538025 62.178353,35.043675 C 41.541552,37.054369 32.811749,40.673616 25.632556,50.195022 C 22.604483,54.211005 22.399892,58.269961 25.198662,58.803222 C 26.132925,58.981231 29.26557,57.993473 32.160095,56.608204 C 37.520093,54.043003 40.058193,54.021844 36.571429,56.571429 C 33.109088,59.103154 35.685757,59.216572 45.442804,56.961922 C 57.962597,54.068859 62.665854,54.561955 67.932147,59.319734 C 70.103835,61.281723 73.370019,63.153997 75.190335,63.480342 C 77.010651,63.806687 80.525,64.481323 83,64.979532 C 88.514331,66.089549 99.420442,65.361278 105.84224,63.45421 z" style="fill:#575b65"/>
<path d="M 80.616305,126.91722 C 80.369212,126.13775 79.898155,124.27154 79.569511,122.77008 L 78.971976,120.04016 L 69.235988,120.1952 C 60.063417,120.34127 53.236343,119.11453 50.306038,116.79374 C 49.410188,116.08423 49.389755,115.23869 50.224204,113.40727 C 51.63713,110.30624 49.941558,108.89189 41.309557,105.97117 C 30.243991,102.22704 19.647936,94.021224 15.485938,85.972807 C 12.8608,80.896351 12.185074,74.658007 13.464123,67.307311 C 14.965389,58.679538 16.7251,55.365689 23.178635,49.013147 C 28.674352,43.603433 44.468004,34.936515 49.345582,34.653783 C 50.804735,34.569202 51.998905,34.224624 51.999294,33.888052 C 52.000363,32.961142 62.782686,30.990518 67.416781,31.070285 C 70.61393,31.125318 71.065994,31.327069 69.5,32 C 68.021414,32.63537 68.933889,32.908599 73,33.04803 C 85.220335,33.467076 83.473058,34.504599 70.434213,34.571579 C 51.404166,34.669335 38.740783,38.004655 29.959312,45.231983 C 26.532373,48.052422 22.859394,53.980671 23.173245,56.184807 C 23.63223,59.4082 26.069555,59.52303 32.160095,56.608204 C 37.520093,54.043003 40.058193,54.021844 36.571429,56.571429 C 33.109088,59.103154 35.685757,59.216572 45.442804,56.961922 C 57.924453,54.077673 62.670745,54.566373 67.879421,59.2721 C 70.022111,61.207891 73.063296,63.048815 74.63761,63.363044 C 85.188027,65.468875 90.956316,66.063893 95.406284,65.505401 C 108.56026,63.854513 116.41162,59.506154 114.08568,55.16009 C 113.48856,54.044356 113,52.259211 113,51.193101 C 113,48.319407 105.26812,41.716826 98.729068,39.006539 C 93.290295,36.752293 91.381915,35 94.365643,35 C 97.450821,35 110.18634,42.391412 115.92709,47.513785 C 119.30877,50.531203 122.82906,53 123.74995,53 C 124.67084,53 127.40343,51.0875 129.82236,48.75 C 133.66876,45.033093 134.12799,44.813584 133.48353,47 C 132.4759,50.418476 130.06057,55.155305 128.29905,57.167535 C 126.40635,59.329624 126.99809,63.383897 129.26956,63.816875 C 130.59241,64.069033 131.72839,62.628435 133.76956,58.110149 C 135.2713,54.785931 136.90446,52.051241 137.3988,52.033058 C 138.38908,51.996636 137.50829,87.057876 136.42618,90.75 C 135.47644,93.990477 134.15315,93.575668 128.88404,88.38578 L 124.19937,83.77156 L 116.16796,91.282451 C 111.03895,96.079048 105.51145,100.10663 100.87247,102.42741 L 93.608405,106.06148 L 88.261727,116.27321 C 82.352976,127.55847 81.289103,129.0396 80.616305,126.91722 z M 41.187419,77.118843 C 44.308671,75.932145 48.155902,65.332421 45.958327,63.974245 C 43.048226,62.175703 37.258106,61.865316 33.77396,63.321085 C 30.85497,64.540718 30.10478,65.526802 29.119718,69.438835 C 28.473827,72.003901 28.22871,74.561043 28.575013,75.121373 C 30.131347,77.639575 36.969383,78.722538 41.187419,77.118843 z" style="fill:#185888"/>
<path d="M 80.616305,126.91722 C 80.369212,126.13775 79.898155,124.27154 79.569511,122.77008 L 78.971976,120.04016 L 69.235988,120.1952 C 60.063417,120.34127 53.236343,119.11453 50.306038,116.79374 C 49.410188,116.08423 49.389755,115.23869 50.224204,113.40727 C 51.63713,110.30624 49.941558,108.89189 41.309557,105.97117 C 30.243991,102.22704 19.647936,94.021224 15.485938,85.972807 C 12.8608,80.896351 12.185074,74.658007 13.464123,67.307311 C 14.965389,58.679538 16.7251,55.365689 23.178635,49.013147 C 28.674352,43.603433 44.468004,34.936515 49.345582,34.653783 C 50.804735,34.569202 51.998905,34.224624 51.999294,33.888052 C 52.000363,32.961142 62.782686,30.990518 67.416781,31.070285 C 70.61393,31.125318 71.065994,31.327069 69.5,32 C 68.021414,32.63537 68.933889,32.908599 73,33.04803 C 85.220335,33.467076 83.473058,34.504599 70.434213,34.571579 C 49.154536,34.680891 36.533575,38.537738 27.702202,47.630081 C 25.701747,49.68965 23.623872,52.640204 23.084703,54.186866 C 22.210911,56.693428 22.537168,57.49901 26.08738,61.600959 C 28.460798,64.34323 29.873282,66.869128 29.58267,67.85147 C 27.370546,75.329004 28.147479,76.817303 34.710781,77.674929 C 39.939624,78.358181 43.595494,76.747815 44.438225,73.39011 C 44.818631,71.874452 46.273859,69.274816 47.672066,67.613142 L 50.21426,64.591916 L 48.093751,62.874831 C 46.927471,61.930435 45.416762,60.931513 44.736621,60.655005 C 42.547723,59.765118 46.109071,58.130285 51.779997,57.42175 C 55.933766,56.902771 57.463633,57.109607 58.867349,58.379953 C 59.851922,59.270979 61.395691,60 62.297947,60 C 63.200203,60 65.63977,60.886298 67.719206,61.969552 C 78.962299,67.826485 106.22646,66.989466 112.91436,60.582045 C 115.57428,58.033679 115.63169,57.767094 114.48927,53.267797 C 112.93127,47.131756 106.07034,40.754816 98.438165,38.348986 C 95.447174,37.406159 93,36.266936 93,35.817378 C 93,32.753007 107.90783,40.358335 115.92709,47.513785 C 119.30877,50.531203 122.82906,53 123.74995,53 C 124.67084,53 127.40343,51.0875 129.82236,48.75 C 133.66876,45.033093 134.12799,44.813584 133.48353,47 C 132.4759,50.418476 130.06057,55.155305 128.29905,57.167535 C 126.40635,59.329624 126.99809,63.383897 129.26956,63.816875 C 130.59241,64.069033 131.72839,62.628435 133.76956,58.110149 C 135.2713,54.785931 136.90446,52.051241 137.3988,52.033058 C 138.38908,51.996636 137.50829,87.057876 136.42618,90.75 C 135.47644,93.990477 134.15315,93.575668 128.88404,88.38578 L 124.19937,83.77156 L 116.16796,91.282451 C 111.03895,96.079048 105.51145,100.10663 100.87247,102.42741 L 93.608405,106.06148 L 88.261727,116.27321 C 82.352976,127.55847 81.289103,129.0396 80.616305,126.91722 z" style="fill:#2b5170"/>
<path d="M 80.616305,126.91722 C 80.369212,126.13775 79.898155,124.27154 79.569511,122.77008 L 78.971976,120.04016 L 69.235988,120.1952 C 60.063417,120.34127 53.236343,119.11453 50.306038,116.79374 C 49.410188,116.08423 49.389755,115.23869 50.224204,113.40727 C 51.63713,110.30624 49.941558,108.89189 41.309557,105.97117 C 29.173546,101.86484 18.806446,93.338008 14.721122,84.102455 C 13.056895,80.340194 12.825712,78.26024 13.309622,71.403183 C 13.983998,61.847196 15.389043,58.084158 20.46105,52.25 C 24.878909,47.168285 26.995865,46.652589 24.081559,51.368034 C 21.283266,55.895768 21.421601,56.82334 25.521281,61.021794 L 29.042562,64.627913 L 27.521281,68.939683 C 25.391539,74.976017 25.535363,75.551632 29.662721,77.510192 C 32.40369,78.810867 34.823546,79.112424 39.278381,78.708474 C 42.552497,78.411587 45.585235,77.793227 46.017799,77.33434 C 46.450362,76.875453 47.002389,74.690443 47.244525,72.478762 C 47.486662,70.267081 48.213311,67.469942 48.859301,66.262898 C 49.892268,64.332782 49.700343,63.859583 47.266915,62.336796 C 45.745112,61.384484 44.288032,60.444655 44.02896,60.248287 C 42.967658,59.443854 46.809893,58.042723 51.779997,57.42175 C 55.933766,56.902771 57.463633,57.109607 58.867349,58.379953 C 59.851922,59.270979 61.395691,60 62.297947,60 C 63.200203,60 65.63977,60.886298 67.719206,61.969552 C 78.962299,67.826485 106.22646,66.989466 112.91436,60.582045 C 115.54503,58.061703 115.62163,57.727502 114.54263,53.477938 C 112.80359,46.628917 106.34427,40.909594 96.606872,37.59696 C 95.565651,37.242739 94.967942,36.698724 95.278629,36.388038 C 96.564218,35.102449 109.2759,42.432788 115.426,48.006251 C 119.06362,51.302813 122.91171,54 123.9773,54 C 125.04289,54 127.17142,52.425013 128.70737,50.500029 C 130.24332,48.575046 131.82636,47.000046 132.22525,47.000029 C 133.33659,46.999984 131.19017,52.06117 128.29332,56.271342 C 126.08192,59.485322 125.86532,60.409002 126.82777,62.521342 C 127.44891,63.884604 128.38463,65 128.90713,65 C 130.55642,65 133.06553,61.876697 134.7021,57.786497 C 137.2596,51.394692 138.01856,55.088407 137.50183,71.412162 C 136.9781,87.957145 136.3173,93 134.67306,93 C 134.06566,93 131.43423,90.897628 128.82544,88.328062 L 124.08218,83.656123 L 116.21609,91.171341 C 110.98242,96.171553 105.88332,99.920584 100.9792,102.37402 L 93.608405,106.06148 L 88.261727,116.27321 C 82.352976,127.55847 81.289103,129.0396 80.616305,126.91722 z M 52,34.100427 C 52,33.017995 62.216642,30.989293 67.416781,31.039142 L 71.5,31.078284 L 68.5,32.377911 C 64.92145,33.928172 52,35.277106 52,34.100427 z" style="fill:#96300e"/>
<path d="M 80.656162,127 C 79.454397,123.23143 79.260096,120.95729 80.095753,120.44082 C 81.516746,119.5626 83.16392,124.88558 82.072613,126.82921 C 81.271708,128.25563 81.064538,128.28061 80.656162,127 z M 55,118.83153 C 50.297104,117.50384 49.59309,116.62974 51.167898,114.07361 C 52.358353,112.14133 52.234167,111.70588 50,109.97841 C 48.625,108.91526 44.714301,107.10742 41.309557,105.96099 C 29.19351,101.88134 18.809264,93.344378 14.721122,84.102455 C 13.056895,80.340194 12.825712,78.26024 13.309622,71.403183 C 13.983998,61.847196 15.389043,58.084158 20.46105,52.25 C 24.878909,47.168285 26.995865,46.652589 24.081559,51.368034 C 21.283266,55.895768 21.421601,56.82334 25.521281,61.021794 L 29.042562,64.627913 L 27.521281,68.939683 C 25.391539,74.976017 25.535363,75.551632 29.662721,77.510192 C 32.40369,78.810867 34.823546,79.112424 39.278381,78.708474 C 42.552497,78.411587 45.585235,77.793227 46.017799,77.33434 C 46.450362,76.875453 47.002389,74.690443 47.244525,72.478762 C 47.486662,70.267081 48.213311,67.469942 48.859301,66.262898 C 49.892268,64.332782 49.700343,63.859583 47.266915,62.336796 C 45.745112,61.384484 44.288032,60.444655 44.02896,60.248287 C 42.967658,59.443854 46.809893,58.042723 51.779997,57.42175 C 55.933766,56.902771 57.463633,57.109607 58.867349,58.379953 C 59.851922,59.270979 61.395691,60 62.297947,60 C 63.200203,60 65.63977,60.886298 67.719206,61.969552 C 78.962299,67.826485 106.22646,66.989466 112.91436,60.582045 C 115.54503,58.061703 115.62163,57.727502 114.54263,53.477938 C 112.80359,46.628917 106.34427,40.909594 96.606872,37.59696 C 95.565651,37.242739 94.967942,36.698724 95.278629,36.388038 C 96.564218,35.102449 109.2759,42.432788 115.426,48.006251 C 119.06362,51.302813 122.91171,54 123.9773,54 C 125.04289,54 127.17142,52.425013 128.70737,50.500029 C 130.24332,48.575046 131.82636,47.000046 132.22525,47.000029 C 133.33659,46.999984 131.19017,52.06117 128.29332,56.271342 C 126.08192,59.485322 125.86532,60.409002 126.82777,62.521342 C 127.44891,63.884604 128.38463,65 128.90713,65 C 130.55642,65 133.06553,61.876697 134.7021,57.786497 C 137.2596,51.394692 138.01856,55.088407 137.50183,71.412162 C 136.9781,87.957145 136.3173,93 134.67306,93 C 134.06566,93 131.43423,90.897628 128.82544,88.328062 L 124.08218,83.656123 L 116.18224,91.203673 C 110.74023,96.402946 105.91197,99.922709 100.66383,102.51648 C 96.360671,104.64322 92.787064,107.09554 92.45181,108.15183 C 91.694984,110.53638 88.375059,112.19573 79,114.87526 C 74.875,116.05425 69.414604,117.68962 66.865786,118.50943 C 61.63622,120.19149 59.976778,120.23654 55,118.83153 z M 52,34.083936 C 52,33.25376 65.007413,30.963248 69.290848,31.039142 C 71.186884,31.072736 71.074792,31.262488 68.5,32.377911 C 64.894441,33.939873 52,35.273099 52,34.083936 z" style="fill:#114973"/>
<path d="M 80.656162,127 C 79.454397,123.23143 79.260096,120.95729 80.095753,120.44082 C 81.516746,119.5626 83.16392,124.88558 82.072613,126.82921 C 81.271708,128.25563 81.064538,128.28061 80.656162,127 z M 55,118.83153 C 50.297104,117.50384 49.59309,116.62974 51.167898,114.07361 C 52.358353,112.14133 52.234167,111.70588 50,109.97841 C 48.625,108.91526 44.714301,107.10742 41.309557,105.96099 C 29.19351,101.88134 18.809264,93.344378 14.721122,84.102455 C 13.056895,80.340194 12.825712,78.26024 13.309622,71.403183 C 14.008104,61.505609 15.423565,57.897937 20.922411,52 C 25.385272,47.213236 25.547568,47.339601 22.535759,53.256167 L 20.623693,57.012335 L 23.887,61.642024 C 26.802629,65.77846 27.082721,66.763309 26.515956,70.885856 C 25.924626,75.187077 26.072121,75.610851 28.690803,77.134536 C 33.431739,79.893057 37.538193,80.276168 43.569959,78.522686 C 47.597158,77.351947 49.020923,76.496907 48.63178,75.482816 C 48.312246,74.650126 49.316655,73.198647 51.082509,71.941248 C 53.179212,70.448264 53.900792,69.262782 53.49365,67.979991 C 52.995398,66.410139 53.524306,66.133168 57.206312,66.035794 C 59.567841,65.973342 63.3,65.853782 65.5,65.770106 C 67.7,65.68643 74.708598,66.127982 81.074662,66.751331 C 98.645185,68.471796 110.9029,66.190367 116.3297,60.189597 C 117.84459,58.51449 117.95587,57.78606 116.97646,55.956013 C 116.03678,54.200209 116.0718,53.568317 117.14675,52.883331 C 117.89104,52.409054 119.175,52.29915 120,52.639101 C 124.447,54.471536 125.7929,54.152692 128.6323,50.594107 C 130.20954,48.617381 131.84354,47.000046 132.26342,47.000029 C 133.43881,46.999984 130.15753,54.203417 127.8758,56.632205 C 124.94528,59.751599 125.62137,64.5 128.99604,64.5 C 130.95511,64.5 132.05697,63.454074 134.1179,59.638149 C 135.5621,56.964131 137.02654,55.233933 137.37223,55.793265 C 138.11072,56.98816 137.31441,84.807154 136.40259,89.667556 C 136.05874,91.5004 135.28046,93 134.67306,93 C 134.06566,93 131.43423,90.897628 128.82544,88.328062 L 124.08218,83.656123 L 116.18224,91.203673 C 110.74023,96.402946 105.91197,99.922709 100.66383,102.51648 C 96.360671,104.64322 92.787064,107.09554 92.45181,108.15183 C 91.694984,110.53638 88.375059,112.19573 79,114.87526 C 74.875,116.05425 69.414604,117.68962 66.865786,118.50943 C 61.63622,120.19149 59.976778,120.23654 55,118.83153 z M 52,34.083936 C 52,33.25376 65.007413,30.963248 69.290848,31.039142 C 71.186884,31.072736 71.074792,31.262488 68.5,32.377911 C 64.894441,33.939873 52,35.273099 52,34.083936 z" style="fill:#6a210b"/>
<path d="M 54.5,109.88027 C 33.957392,105.16149 20.049906,96.149056 14.721122,84.102455 C 13.056895,80.340194 12.825712,78.26024 13.309622,71.403183 C 14.008104,61.505609 15.423565,57.897937 20.922411,52 C 25.385272,47.213236 25.547568,47.339601 22.535759,53.256167 L 20.623693,57.012335 L 23.887,61.642024 C 26.802629,65.77846 27.082721,66.763309 26.515956,70.885856 C 25.924626,75.187077 26.072121,75.610851 28.690803,77.134536 C 33.431739,79.893057 37.538193,80.276168 43.569959,78.522686 C 47.597158,77.351947 49.020923,76.496907 48.63178,75.482816 C 48.312246,74.650126 49.316655,73.198647 51.082509,71.941248 C 53.179212,70.448264 53.900792,69.262782 53.49365,67.979991 C 52.995398,66.410139 53.524306,66.133168 57.206312,66.035794 C 59.567841,65.973342 63.3,65.853782 65.5,65.770106 C 67.7,65.68643 74.708598,66.127982 81.074662,66.751331 C 98.645185,68.471796 110.9029,66.190367 116.3297,60.189597 C 117.84459,58.51449 117.95587,57.78606 116.97646,55.956013 C 116.03678,54.200209 116.0718,53.568317 117.14675,52.883331 C 117.89104,52.409054 119.175,52.29915 120,52.639101 C 124.447,54.471536 125.7929,54.152692 128.6323,50.594107 C 130.20954,48.617381 131.84354,47.000046 132.26342,47.000029 C 133.43881,46.999984 130.15753,54.203417 127.8758,56.632205 C 124.94528,59.751599 125.62137,64.5 128.99604,64.5 C 130.95511,64.5 132.05697,63.454074 134.1179,59.638149 C 135.5621,56.964131 137.02654,55.233933 137.37223,55.793265 C 138.11072,56.98816 137.31441,84.807154 136.40259,89.667556 C 136.05874,91.5004 135.28046,93 134.67306,93 C 134.06566,93 131.43423,90.897628 128.82544,88.328062 L 124.08218,83.656123 L 116.26627,91.123396 C 102.39749,104.37355 85.220066,111.15044 66.139532,110.89955 C 61.937789,110.8443 56.7,110.38563 54.5,109.88027 z M 52.75,34.337719 C 53.4375,34.060307 54.5625,34.060307 55.25,34.337719 C 55.9375,34.615132 55.375,34.842105 54,34.842105 C 52.625,34.842105 52.0625,34.615132 52.75,34.337719 z M 59.75,33.294267 C 60.9875,33.055914 63.0125,33.055914 64.25,33.294267 C 65.4875,33.53262 64.475,33.727636 62,33.727636 C 59.525,33.727636 58.5125,33.53262 59.75,33.294267 z" style="fill:#072a4f"/>
<path d="M 51.074015,108.94541 C 33.807761,104.42432 20.214883,95.079628 15.305184,84.355432 C 13.025521,79.375992 12.848284,78.094155 13.482044,71.169893 C 14.19058,63.428645 15.987243,58.085403 18.615007,55.904553 C 19.762082,54.952565 19.93101,55.016211 19.466949,56.225533 C 19.147868,57.057045 20.306948,59.836265 22.049839,62.418739 C 24.778301,66.461553 25.126278,67.678825 24.589196,71.301763 C 23.98059,75.407182 24.063478,75.560799 28.338272,78.25 C 33.762056,81.66201 39.464388,81.8456 48.57706,78.901601 C 54.024485,77.14172 54.977298,76.503834 54.483334,74.947491 C 54.040946,73.553647 54.898114,72.458134 57.927305,70.54589 C 62.711409,67.525818 70.270801,67.1258 77.090273,69.53185 C 80.626704,70.779576 81.975115,70.838735 84.360189,69.850805 C 87.003684,68.755833 87.477066,68.870929 89.229106,71.034607 C 90.997754,73.218794 91.802286,73.405484 98.302656,73.140099 C 106.27963,72.814431 107.14326,72.536892 106.37879,70.544715 C 106.01277,69.590898 107.9349,68.186121 112.49223,66.07674 C 120.16751,62.5242 119.85674,62.58069 121.92126,64.362737 C 123.84966,66.027297 129.18056,67.124474 130.71927,66.173498 C 131.33807,65.79106 133.00377,63.458072 134.42083,60.989079 L 136.9973,56.5 L 136.72184,73.726809 C 136.38705,94.663975 135.85354,95.790418 129.60651,88.75 C 127.28841,86.1375 124.95762,84 124.42697,84 C 123.89631,84 120.32066,87.0375 116.48107,90.75 C 98.936347,107.714 73.449085,114.80423 51.074015,108.94541 z M 94.497306,70.995642 C 93.772889,69.82351 96.3355,68.611833 98.214348,69.238116 C 99.042681,69.514227 98.722723,70.078027 97.308025,70.83515 C 95.866572,71.606592 94.908698,71.661287 94.497306,70.995642 z M 125,54.892282 C 126.375,54.352762 128.32655,52.918786 129.33678,51.705669 C 130.347,50.492551 130.84106,50.175 130.43467,51 C 128.92964,54.055357 126.63137,55.998225 124.59501,55.936614 C 122.71613,55.879767 122.75791,55.772029 125,54.892282 z" style="fill:#021c43"/>
<path d="M 54.547901,109.87319 C 41.513507,106.81944 30.357685,101.39727 23.219649,94.646412 C 14.11824,86.038678 11.962853,79.540299 14.215711,67.5 C 15.14037,62.5582 15.962777,60.5 17.01274,60.5 C 17.830733,60.5 18.64713,61.537926 18.826955,62.806502 C 19.006781,64.075078 20.244281,65.60981 21.576955,66.217017 C 24.149705,67.38924 24.58516,69.038102 23.069775,71.869623 C 21.887751,74.078256 22.499697,74.961316 27.900038,78.839869 C 31.681735,81.555903 33.152613,82 38.366606,82 C 41.703197,82 46.248179,81.361132 48.466567,80.580293 C 59.84052,76.576836 64.074841,75.773967 75.5,75.45449 C 85.949166,75.162304 109.57497,73.852058 111,73.485722 C 111.275,73.415027 114.65,72.997163 118.5,72.557136 C 122.35,72.117109 125.98398,71.371804 126.57552,70.900903 C 127.16706,70.430002 129.64206,70.392385 132.07552,70.81731 L 136.5,71.5899 L 136.26692,81.478027 C 136.13873,86.916497 135.582,91.818003 135.02974,92.370262 C 134.3576,93.042404 132.60293,91.824754 129.72233,88.687184 C 127.35551,86.109233 124.89026,84 124.244,84 C 123.59773,84 120.01361,87.0375 116.27929,90.75 C 107.24611,99.730398 93.359205,107.28571 81.885669,109.4622 C 73.025104,111.14302 60.755318,111.32748 54.547901,109.87319 z M 66.199254,72.945792 C 61.587981,71.948375 61.360677,71.342519 65.319129,70.599909 C 68.824687,69.942263 72,70.607704 72,72 C 72,73.317768 69.67304,73.697171 66.199254,72.945792 z M 118.25,69.333333 C 116.11716,68.480197 116.8774,66.843486 119.25,67.180449 C 120.4875,67.356202 121.3875,67.95 121.25,68.5 C 120.94619,69.715239 119.91846,70.000719 118.25,69.333333 z M 134,64.19113 C 134,63.746251 134.66069,62.508751 135.4682,61.44113 C 136.8745,59.581836 136.93773,59.615938 136.9682,62.25 C 136.98892,64.041913 136.47741,65 135.5,65 C 134.675,65 134,64.636008 134,64.19113 z" style="fill:#010e2e"/>
<path d="M 56.171248,110.28395 C 51.840957,109.45891 36.107596,103.2531 31.499147,100.55237 C 24.942518,96.709928 20.306282,92.37877 17.350029,87.334307 C 12.908734,79.75581 12.619352,76.493772 15.563848,67.199765 C 16.206167,65.172352 20.5,69.685569 20.5,72.388117 C 20.5,76.009383 28.968122,82.722715 34.601548,83.567499 C 41.211766,84.558762 49.287166,83.488135 58.5,80.399071 C 65.704412,77.98343 68.538695,77.644169 87,76.987647 C 98.275,76.586685 112.72111,75.459988 119.10246,74.483875 C 125.48382,73.507763 131.94168,73.019529 133.45326,73.398912 L 136.20159,74.0887 L 135.85079,82.461585 C 135.65786,87.066673 135.11764,91.209215 134.6503,91.667236 C 134.18297,92.125256 132.09683,90.5875 130.01443,88.25 C 127.93204,85.9125 125.44168,84 124.4803,84 C 123.51891,84 119.42734,87.139413 115.38792,90.976474 C 110.73401,95.397236 105.37962,99.284412 100.77175,101.58752 C 96.772289,103.58654 92.825,105.81085 92,106.53043 C 88.537333,109.55063 65.170727,111.99859 56.171248,110.28395 z" style="fill:#000218"/>
<path d="M 56.5,110.311 C 51.211961,109.1027 34.950649,102.31048 30.5,99.451017 C 20.8327,93.239943 14,84.163261 14,77.532119 C 14,75.911949 14.558114,75 15.54966,75 C 18.03913,75 22.849919,77.851054 24.006261,80.011699 C 24.592314,81.106749 27.297559,83.13057 30.017918,84.50908 C 32.738277,85.88759 35.690894,88.124804 36.57929,89.480667 C 37.616594,91.063793 39.501541,92.160213 41.847277,92.544903 C 43.856275,92.874369 46.4,93.553735 47.5,94.054603 C 51.83772,96.02972 59.455351,96.990916 71.20516,97.045731 C 92.181433,97.143588 105,95.582589 105,92.930318 C 105,92.427299 106.53476,91.224698 108.41059,90.25787 C 110.28641,89.291041 115.00029,86.310087 118.88587,83.633527 C 126.37098,78.477457 129,78.174655 129,82.468615 C 129,85.020172 127.64389,85.85086 126.5,84 C 125.10918,81.74961 122.27104,83.36789 115.49976,90.272217 C 110.43351,95.438023 106.35929,98.51875 101.43384,100.90818 C 97.62023,102.75825 93.6,105.07613 92.5,106.05903 C 88.70254,109.45225 64.995757,112.25226 56.5,110.311 z M 71.048724,104.35128 C 73.049238,102.35076 66.815892,100.90232 57.522836,101.20826 C 48.440384,101.50728 45.342804,103.05699 50.166252,104.88876 C 53.340567,106.09424 69.727531,105.67247 71.048724,104.35128 z" style="fill:#010106"/>
</g>
</svg>
