<?xml version="1.0" encoding="UTF-8" standalone="no"?>
<!DOCTYPE svg PUBLIC "-//W3C//DTD SVG 1.1 Tiny//EN" "http://www.w3.org/Graphics/SVG/1.1/DTD/svg11-tiny.dtd">
<svg xmlns="http://www.w3.org/2000/svg" baseProfile="tiny" height="165pt" version="1.1" viewBox="0 0 150 165" width="150pt">
<defs/>
<path d=" M 93.8 17.9 C 101.8 14.9 110.4 13.5 119.0 13.3 C 123.8 13.3 129.0 13.2 133.3 15.6 C 135.5 16.9 135.5 19.7 136.0 21.8 C 139.0 43.1 143.7 64.4 142.6 86.1 C 141.8 103.3 137.7 121.1 127.2 135.2 C 118.6 146.9 105.7 155.3 91.6 158.6 C 76.6 162.1 60.4 160.3 46.4 153.7 C 29.0 145.6 15.7 129.4 11.0 110.8 C 7.7 98.9 8.3 86.0 12.3 74.2 C 18.5 56.4 32.4 41.1 50.0 34.0 C 61.3 29.2 74.0 28.2 85.9 30.7 C 85.9 28.2 85.3 25.6 86.0 23.2 C 87.8 20.5 90.8 19.0 93.8 17.9 Z" fill="#2a4185" stroke="#2a4185" stroke-width="0.09375"/>
<path d=" M 94.2 20.2 C 104.3 16.2 115.4 15.2 126.2 15.7 C 128.2 31.5 130.7 47.5 129.4 63.5 C 126.6 59.7 124.2 55.5 121.1 51.9 C 112.6 42.0 101.0 34.7 88.3 31.6 C 88.1 29.1 87.8 26.6 88.1 24.2 C 89.5 22.1 92.0 21.2 94.2 20.2 Z" fill="#40cbfd" stroke="#40cbfd" stroke-width="0.09375"/>
<path d=" M 126.2 15.7 C 127.5 16.0 128.8 16.4 130.1 16.7 C 133.1 31.0 134.9 45.6 136.8 60.0 C 137.7 70.7 139.0 81.6 137.1 92.2 C 135.9 98.9 134.8 105.6 132.9 112.2 C 129.8 121.9 124.6 131.1 117.1 138.0 C 110.2 144.5 102.6 150.7 93.3 153.2 C 85.1 155.2 76.2 156.4 68.0 153.9 C 57.3 150.9 46.6 147.0 37.7 140.3 C 25.7 130.4 17.1 116.0 15.8 100.4 C 15.1 90.9 14.2 80.9 18.1 72.0 C 20.2 67.1 23.8 63.0 27.5 59.3 C 29.7 64.4 31.1 69.9 32.1 75.3 C 37.9 72.2 41.4 65.8 48.1 64.1 C 45.9 68.8 42.7 72.9 40.9 77.8 C 36.7 88.8 37.4 101.4 41.7 112.4 C 46.4 124.3 56.1 134.2 68.0 139.0 C 81.4 144.6 97.4 143.2 109.9 135.9 C 119.9 130.0 127.6 120.5 131.3 109.6 C 134.8 99.7 135.3 89.1 134.0 78.8 C 133.4 73.4 130.4 68.8 129.4 63.5 C 130.7 47.5 128.2 31.5 126.2 15.7 Z" fill="#2aadf7" stroke="#2aadf7" stroke-width="0.09375"/>
<path d=" M 130.1 16.7 C 130.7 17.0 132.0 17.4 132.7 17.6 C 134.9 26.5 135.7 35.7 137.3 44.7 C 140.8 66.4 142.5 89.1 136.6 110.6 C 132.0 127.5 121.0 143.2 105.2 151.2 C 81.4 163.7 50.0 158.9 30.7 140.3 C 18.7 128.9 11.4 112.6 11.1 96.1 C 10.8 79.2 17.8 62.3 29.7 50.4 C 32.9 53.9 36.1 60.2 41.8 58.2 C 50.4 55.2 57.4 49.2 65.8 45.9 C 66.7 47.7 67.6 49.5 68.6 51.2 C 63.4 53.7 58.1 56.0 53.8 59.8 C 51.9 61.3 50.3 63.2 48.1 64.1 C 41.4 65.8 37.9 72.2 32.1 75.3 C 31.1 69.9 29.7 64.4 27.5 59.3 C 23.8 63.0 20.2 67.1 18.1 72.0 C 14.2 80.9 15.1 90.9 15.8 100.4 C 17.1 116.0 25.7 130.4 37.7 140.3 C 46.6 147.0 57.3 150.9 68.0 153.9 C 76.2 156.4 85.1 155.2 93.3 153.2 C 102.6 150.7 110.2 144.5 117.1 138.0 C 124.6 131.1 129.8 121.9 132.9 112.2 C 134.8 105.6 135.9 98.9 137.1 92.2 C 139.0 81.6 137.7 70.7 136.8 60.0 C 134.9 45.6 133.1 31.0 130.1 16.7 Z" fill="#40cbfd" stroke="#40cbfd" stroke-width="0.09375"/>
<path d=" M 39.7 42.5 C 47.7 36.2 57.9 32.9 68.0 31.9 C 86.4 30.2 105.3 37.6 117.7 51.3 C 119.8 53.6 122.2 55.9 123.5 58.8 C 123.6 59.1 123.8 59.8 123.9 60.1 C 120.2 55.5 116.5 50.9 111.9 47.1 C 98.3 35.7 79.1 30.9 61.8 35.4 C 54.2 37.1 47.6 42.0 39.7 42.5 Z" fill="#fefefe" stroke="#fefefe" stroke-width="0.09375"/>
<path d=" M 39.7 42.5 C 47.6 42.0 54.2 37.1 61.8 35.4 C 63.2 38.8 64.6 42.3 65.8 45.9 C 57.4 49.2 50.4 55.2 41.8 58.2 C 36.1 60.2 32.9 53.9 29.7 50.4 C 32.9 47.6 35.7 44.1 39.7 42.5 Z" fill="#97fdfc" stroke="#97fdfc" stroke-width="0.09375"/>
<path d=" M 65.0 36.8 C 73.3 36.1 81.8 35.6 89.8 38.1 C 104.7 42.2 117.7 52.7 124.3 66.7 C 125.2 68.5 125.6 70.5 126.1 72.5 C 123.4 73.2 120.8 73.9 118.1 74.2 C 115.9 72.9 115.1 70.2 113.8 68.1 C 108.3 58.1 98.0 51.5 87.2 48.7 C 81.2 46.9 74.8 47.7 68.6 47.8 C 67.2 44.2 65.9 40.6 65.0 36.8 Z" fill="#f9982a" stroke="#f9982a" stroke-width="0.09375"/>
<path d=" M 46.9 69.6 C 53.5 61.6 62.3 54.3 72.9 52.9 C 73.6 55.2 74.2 57.4 74.8 59.8 C 71.8 61.0 68.8 62.2 66.0 63.8 C 61.6 66.0 57.8 69.2 53.3 71.2 C 51.1 72.3 48.9 70.2 46.9 69.6 Z" fill="#97fdfc" stroke="#97fdfc" stroke-width="0.09375"/>
<path d=" M 76.2 54.3 C 86.0 53.7 96.7 56.5 103.1 64.2 C 99.5 62.5 95.9 60.6 92.2 59.0 C 88.0 57.2 83.3 56.8 78.7 56.3 C 77.9 57.3 77.1 58.4 76.2 59.4 C 76.3 57.7 76.2 56.0 76.2 54.3 Z" fill="#f9982a" stroke="#f9982a" stroke-width="0.09375"/>
<path d=" M 78.7 56.3 C 83.3 56.8 88.0 57.2 92.2 59.0 C 95.9 60.6 99.5 62.5 103.1 64.2 C 106.3 66.2 108.3 69.5 110.1 72.7 C 108.0 73.6 105.9 74.3 103.7 74.9 C 98.8 67.4 90.1 62.2 81.0 62.3 C 78.8 62.6 77.3 61.1 76.2 59.4 C 77.1 58.4 77.9 57.3 78.7 56.3 Z" fill="#fa7d0d" stroke="#fa7d0d" stroke-width="0.09375"/>
<path d=" M 123.5 58.8 C 128.1 64.2 130.0 71.1 132.2 77.7 C 138.7 100.6 126.1 126.9 104.5 136.5 C 96.7 139.9 88.0 141.2 79.6 139.9 C 93.6 139.2 108.7 135.2 117.8 123.7 C 129.8 110.3 132.6 91.1 129.4 73.9 C 128.4 69.0 125.4 64.8 123.9 60.1 C 123.8 59.8 123.6 59.1 123.5 58.8 Z" fill="#40cbfd" stroke="#40cbfd" stroke-width="0.09375"/>
<path d=" M 66.0 63.8 C 68.8 62.2 71.8 61.0 74.8 59.8 C 75.8 61.5 75.7 64.6 78.2 64.9 C 83.0 65.6 88.2 64.9 92.6 67.6 C 95.0 69.1 98.2 70.7 99.1 73.6 C 99.2 74.0 99.4 74.8 99.5 75.2 C 95.5 72.5 91.9 69.0 87.2 67.7 C 75.1 63.7 61.5 73.1 59.2 85.2 C 57.2 92.6 59.5 100.1 62.5 106.8 C 66.5 116.3 77.1 121.6 87.1 121.6 C 99.8 121.9 113.2 113.0 115.6 100.0 C 117.7 92.4 117.9 84.4 116.1 76.7 C 120.6 76.1 125.0 75.1 129.4 73.9 C 132.6 91.1 129.8 110.3 117.8 123.7 C 108.7 135.2 93.6 139.2 79.6 139.9 C 66.2 138.8 54.0 130.3 47.0 119.0 C 38.4 104.7 36.6 84.9 46.9 71.0 C 47.1 73.6 47.6 76.2 48.1 78.8 C 55.3 75.4 60.4 69.2 66.0 63.8 Z" fill="#2aadf7" stroke="#2aadf7" stroke-width="0.09375"/>
<path d=" M 53.3 71.2 C 57.8 69.2 61.6 66.0 66.0 63.8 C 60.4 69.2 55.3 75.4 48.1 78.8 C 47.6 76.2 47.1 73.6 46.9 71.0 C 46.9 70.6 46.9 69.9 46.9 69.6 C 48.9 70.2 51.1 72.3 53.3 71.2 Z" fill="#40cbfd" stroke="#40cbfd" stroke-width="0.09375"/>
<path d=" M 64.2 79.0 C 69.5 68.3 85.7 65.4 94.4 73.8 C 89.1 72.1 83.4 70.3 77.9 71.9 C 72.4 73.4 68.5 77.9 63.9 81.0 C 63.9 80.5 64.1 79.5 64.2 79.0 Z" fill="#97fdfc" stroke="#97fdfc" stroke-width="0.09375"/>
<path d=" M 77.9 71.9 C 83.4 70.3 89.1 72.1 94.4 73.8 C 101.3 78.7 102.5 89.4 97.6 96.1 C 97.7 94.3 97.7 92.5 97.6 90.7 C 97.5 85.5 95.2 80.1 90.6 77.4 C 84.2 73.4 75.0 75.7 71.1 82.2 C 68.2 86.4 69.7 91.7 69.9 96.5 C 69.8 100.1 70.6 104.0 73.7 106.3 C 78.4 110.8 85.5 111.6 91.6 110.5 C 98.4 109.3 103.7 103.8 106.6 97.8 C 109.3 91.0 106.6 83.5 103.2 77.6 C 106.4 76.9 109.5 75.4 112.4 73.8 C 119.4 87.3 114.7 105.6 101.8 113.8 C 91.4 120.4 76.5 119.0 67.9 110.1 C 60.0 102.2 57.5 88.3 64.2 79.0 C 64.1 79.5 63.9 80.5 63.9 81.0 C 68.5 77.9 72.4 73.4 77.9 71.9 Z" fill="#2aadf7" stroke="#2aadf7" stroke-width="0.09375"/>
<path d=" M 99.5 75.2 C 99.4 74.8 99.2 74.0 99.1 73.6 C 100.5 74.8 102.1 76.0 103.2 77.6 C 106.6 83.5 109.3 91.0 106.6 97.8 C 103.7 103.8 98.4 109.3 91.6 110.5 C 85.5 111.6 78.4 110.8 73.7 106.3 C 70.6 104.0 69.8 100.1 69.9 96.5 C 70.1 97.0 70.6 98.1 70.9 98.7 C 71.9 101.0 72.8 103.5 74.5 105.5 C 81.2 112.0 93.7 112.1 99.5 104.4 C 101.3 102.4 100.1 99.6 99.8 97.3 C 101.0 94.2 102.6 91.2 102.7 87.9 C 103.0 83.4 100.5 79.4 99.5 75.2 Z" fill="#40cbfd" stroke="#40cbfd" stroke-width="0.09375"/>
<path d=" M 71.1 86.2 C 73.0 78.1 84.2 73.6 90.7 79.3 C 95.0 82.1 96.2 87.3 95.7 92.2 C 94.6 88.0 93.4 83.0 89.4 80.7 C 84.6 78.1 77.5 78.4 74.2 83.2 C 70.5 88.1 73.1 94.5 74.0 99.9 C 71.9 95.7 69.4 91.0 71.1 86.2 Z" fill="#f9982a" stroke="#f9982a" stroke-width="0.09375"/>
<path d=" M 74.2 83.2 C 77.5 78.4 84.6 78.1 89.4 80.7 C 93.4 83.0 94.6 88.0 95.7 92.2 C 93.8 96.9 88.2 99.9 83.3 97.9 C 79.2 96.7 77.9 92.3 76.0 89.0 C 76.1 93.2 78.2 96.9 80.6 100.2 C 81.0 100.7 81.6 101.6 81.9 102.1 C 79.3 101.3 76.7 100.4 74.0 99.9 C 73.1 94.5 70.5 88.1 74.2 83.2 Z" fill="#fa7d0d" stroke="#fa7d0d" stroke-width="0.09375"/>
<path d=" M 97.6 90.7 C 97.7 92.5 97.7 94.3 97.6 96.1 C 95.9 97.6 93.9 98.6 91.9 99.6 C 94.0 96.7 96.1 93.9 97.6 90.7 Z" fill="#40cbfd" stroke="#40cbfd" stroke-width="0.09375"/>
<path d=" M 92.8 102.8 C 95.2 101.1 97.5 99.1 99.8 97.3 C 100.1 99.6 101.3 102.4 99.5 104.4 C 93.7 112.1 81.2 112.0 74.5 105.5 C 72.8 103.5 71.9 101.0 70.9 98.7 C 71.3 98.9 72.1 99.5 72.4 99.7 C 75.0 101.7 77.6 103.8 80.8 104.6 C 84.8 105.7 89.4 105.2 92.8 102.8 Z" fill="#97fdfc" stroke="#97fdfc" stroke-width="0.09375"/>
<path d=" M 74.0 99.9 C 76.7 100.4 79.3 101.3 81.9 102.1 C 81.6 101.6 81.0 100.7 80.6 100.2 C 84.2 101.0 87.7 101.9 91.2 102.9 C 87.8 103.7 84.3 104.3 80.8 104.6 C 77.6 103.8 75.0 101.7 72.4 99.7 C 72.8 99.8 73.6 99.9 74.0 99.9 Z" fill="#f9982a" stroke="#f9982a" stroke-width="0.09375"/>
<path d=" M 115.6 100.0 C 113.2 113.0 99.8 121.9 87.1 121.6 C 77.1 121.6 66.5 116.3 62.5 106.8 C 67.0 112.1 72.5 117.0 79.4 118.6 C 89.2 121.6 100.4 118.8 107.6 111.6 C 111.1 108.3 113.4 104.1 115.6 100.0 Z" fill="#40cbfd" stroke="#40cbfd" stroke-width="0.09375"/>
</svg>
